<svg width="226" height="180" viewBox="0 0 226 180" fill="none" xmlns="http://www.w3.org/2000/svg">
<path d="M24.0057 135.089C23.7638 135.089 23.5442 135.044 23.347 134.953C23.1498 134.86 22.9932 134.727 22.8772 134.553C22.7612 134.377 22.7032 134.165 22.7032 133.916C22.7032 133.697 22.7463 133.52 22.8324 133.384C22.9186 133.247 23.0338 133.139 23.178 133.061C23.3221 132.983 23.4812 132.925 23.6552 132.887C23.8309 132.847 24.0074 132.816 24.1847 132.793C24.4167 132.763 24.6048 132.74 24.749 132.725C24.8948 132.709 25.0009 132.682 25.0672 132.643C25.1351 132.605 25.1691 132.539 25.1691 132.445V132.425C25.1691 132.179 25.102 131.989 24.9677 131.853C24.8352 131.717 24.6338 131.649 24.3637 131.649C24.0836 131.649 23.864 131.71 23.7049 131.833C23.5459 131.956 23.434 132.087 23.3694 132.226L22.8125 132.027C22.912 131.795 23.0446 131.614 23.2103 131.485C23.3776 131.354 23.5599 131.263 23.7571 131.212C23.956 131.159 24.1516 131.132 24.3438 131.132C24.4664 131.132 24.6073 131.147 24.7664 131.177C24.9271 131.205 25.0821 131.264 25.2312 131.353C25.382 131.443 25.5071 131.578 25.6066 131.759C25.706 131.939 25.7557 132.181 25.7557 132.484V135H25.1691V134.483H25.1392C25.0995 134.566 25.0332 134.654 24.9404 134.749C24.8476 134.843 24.7241 134.924 24.57 134.99C24.4159 135.056 24.2278 135.089 24.0057 135.089ZM24.0952 134.562C24.3272 134.562 24.5228 134.517 24.6819 134.426C24.8426 134.335 24.9636 134.217 25.0448 134.073C25.1276 133.929 25.1691 133.777 25.1691 133.618V133.081C25.1442 133.111 25.0895 133.138 25.005 133.163C24.9222 133.186 24.826 133.207 24.7167 133.225C24.6089 133.242 24.5037 133.257 24.401 133.27C24.2999 133.281 24.2178 133.291 24.1549 133.3C24.0024 133.32 23.8599 133.352 23.7273 133.397C23.5964 133.44 23.4903 133.505 23.4091 133.593C23.3296 133.679 23.2898 133.797 23.2898 133.946C23.2898 134.15 23.3652 134.304 23.516 134.408C23.6685 134.511 23.8616 134.562 24.0952 134.562ZM29.3819 129.909V135H28.7952V129.909H29.3819ZM32.0075 135.08C31.6628 135.08 31.3604 134.998 31.1002 134.833C30.8417 134.669 30.6395 134.44 30.4937 134.145C30.3495 133.85 30.2774 133.505 30.2774 133.111C30.2774 132.713 30.3495 132.366 30.4937 132.069C30.6395 131.773 30.8417 131.542 31.1002 131.378C31.3604 131.214 31.6628 131.132 32.0075 131.132C32.3522 131.132 32.6538 131.214 32.9123 131.378C33.1725 131.542 33.3747 131.773 33.5189 132.069C33.6647 132.366 33.7376 132.713 33.7376 133.111C33.7376 133.505 33.6647 133.85 33.5189 134.145C33.3747 134.44 33.1725 134.669 32.9123 134.833C32.6538 134.998 32.3522 135.08 32.0075 135.08ZM32.0075 134.553C32.2693 134.553 32.4848 134.485 32.6538 134.351C32.8228 134.217 32.948 134.04 33.0292 133.822C33.1104 133.603 33.151 133.366 33.151 133.111C33.151 132.856 33.1104 132.618 33.0292 132.397C32.948 132.177 32.8228 131.999 32.6538 131.863C32.4848 131.727 32.2693 131.659 32.0075 131.659C31.7457 131.659 31.5302 131.727 31.3612 131.863C31.1922 131.999 31.067 132.177 30.9858 132.397C30.9046 132.618 30.864 132.856 30.864 133.111C30.864 133.366 30.9046 133.603 30.9858 133.822C31.067 134.04 31.1922 134.217 31.3612 134.351C31.5302 134.485 31.7457 134.553 32.0075 134.553ZM34.6331 135V131.182H35.1999V131.759H35.2397C35.3093 131.57 35.4352 131.416 35.6175 131.299C35.7998 131.181 36.0053 131.122 36.234 131.122C36.2771 131.122 36.3309 131.123 36.3956 131.125C36.4602 131.126 36.5091 131.129 36.5422 131.132V131.729C36.5223 131.724 36.4768 131.716 36.4055 131.706C36.3359 131.695 36.2621 131.689 36.1843 131.689C35.9987 131.689 35.8329 131.728 35.6871 131.806C35.5429 131.882 35.4286 131.988 35.3441 132.124C35.2612 132.258 35.2198 132.411 35.2198 132.584V135H34.6331ZM38.7223 135.08C38.3544 135.08 38.037 134.998 37.7702 134.836C37.505 134.672 37.3004 134.443 37.1562 134.15C37.0137 133.855 36.9424 133.512 36.9424 133.121C36.9424 132.73 37.0137 132.385 37.1562 132.087C37.3004 131.787 37.5009 131.553 37.7578 131.386C38.0163 131.217 38.3179 131.132 38.6626 131.132C38.8615 131.132 39.0578 131.165 39.2517 131.232C39.4456 131.298 39.6221 131.406 39.7812 131.555C39.9403 131.702 40.0671 131.898 40.1615 132.141C40.256 132.385 40.3032 132.685 40.3032 133.041V133.29H37.36V132.783H39.7066C39.7066 132.567 39.6635 132.375 39.5774 132.206C39.4929 132.037 39.3719 131.904 39.2144 131.806C39.0587 131.708 38.8747 131.659 38.6626 131.659C38.4289 131.659 38.2268 131.717 38.0561 131.833C37.887 131.947 37.7569 132.097 37.6658 132.281C37.5746 132.464 37.5291 132.662 37.5291 132.872V133.21C37.5291 133.499 37.5788 133.743 37.6782 133.944C37.7793 134.142 37.9193 134.294 38.0983 134.398C38.2773 134.501 38.4853 134.553 38.7223 134.553C38.8764 134.553 39.0156 134.531 39.1399 134.488C39.2658 134.443 39.3744 134.377 39.4655 134.289C39.5567 134.2 39.6271 134.089 39.6768 133.956L40.2436 134.115C40.1839 134.307 40.0836 134.476 39.9428 134.622C39.8019 134.766 39.6279 134.879 39.4208 134.96C39.2136 135.04 38.9808 135.08 38.7223 135.08ZM43.3831 132.544V133.091H41.1559V132.544H43.3831ZM45.8571 135.08C45.5389 135.08 45.258 134.999 45.0144 134.838C44.7708 134.676 44.5802 134.447 44.4427 134.152C44.3051 133.856 44.2364 133.505 44.2364 133.101C44.2364 132.7 44.3051 132.352 44.4427 132.057C44.5802 131.762 44.7716 131.534 45.0169 131.373C45.2622 131.212 45.5456 131.132 45.8671 131.132C46.1156 131.132 46.312 131.174 46.4562 131.256C46.602 131.338 46.7131 131.43 46.7893 131.535C46.8672 131.638 46.9277 131.722 46.9707 131.788H47.0205V129.909H47.6071V135H47.0403V134.413H46.9707C46.9277 134.483 46.8663 134.571 46.7868 134.677C46.7073 134.781 46.5937 134.875 46.4462 134.958C46.2988 135.039 46.1024 135.08 45.8571 135.08ZM45.9367 134.553C46.172 134.553 46.3708 134.491 46.5332 134.369C46.6957 134.244 46.8191 134.073 46.9036 133.854C46.9881 133.634 47.0304 133.379 47.0304 133.091C47.0304 132.806 46.989 132.556 46.9061 132.343C46.8233 132.127 46.7006 131.96 46.5382 131.841C46.3758 131.72 46.1753 131.659 45.9367 131.659C45.6881 131.659 45.4809 131.723 45.3152 131.85C45.1511 131.976 45.0277 132.148 44.9448 132.365C44.8636 132.58 44.823 132.822 44.823 133.091C44.823 133.363 44.8645 133.61 44.9473 133.832C45.0318 134.052 45.1561 134.228 45.3202 134.359C45.4859 134.488 45.6914 134.553 45.9367 134.553ZM48.763 135V131.182H49.3298V131.759H49.3695C49.4391 131.57 49.5651 131.416 49.7474 131.299C49.9297 131.181 50.1352 131.122 50.3639 131.122C50.4069 131.122 50.4608 131.123 50.5254 131.125C50.5901 131.126 50.639 131.129 50.6721 131.132V131.729C50.6522 131.724 50.6066 131.716 50.5354 131.706C50.4658 131.695 50.392 131.689 50.3141 131.689C50.1285 131.689 49.9628 131.728 49.817 131.806C49.6728 131.882 49.5585 131.988 49.4739 132.124C49.3911 132.258 49.3497 132.411 49.3497 132.584V135H48.763ZM51.3675 135V131.182H51.9541V135H51.3675ZM51.6658 130.545C51.5514 130.545 51.4528 130.507 51.37 130.429C51.2888 130.351 51.2482 130.257 51.2482 130.148C51.2482 130.038 51.2888 129.945 51.37 129.867C51.4528 129.789 51.5514 129.75 51.6658 129.75C51.7801 129.75 51.8779 129.789 51.9591 129.867C52.042 129.945 52.0834 130.038 52.0834 130.148C52.0834 130.257 52.042 130.351 51.9591 130.429C51.8779 130.507 51.7801 130.545 51.6658 130.545ZM56.1508 131.182L54.7389 135H54.1423L52.7303 131.182H53.3667L54.4207 134.224H54.4604L55.5144 131.182H56.1508ZM58.3892 135.08C58.0214 135.08 57.704 134.998 57.4372 134.836C57.172 134.672 56.9674 134.443 56.8232 134.15C56.6807 133.855 56.6094 133.512 56.6094 133.121C56.6094 132.73 56.6807 132.385 56.8232 132.087C56.9674 131.787 57.1679 131.553 57.4248 131.386C57.6833 131.217 57.9849 131.132 58.3296 131.132C58.5285 131.132 58.7248 131.165 58.9187 131.232C59.1126 131.298 59.2891 131.406 59.4482 131.555C59.6073 131.702 59.7341 131.898 59.8285 132.141C59.923 132.385 59.9702 132.685 59.9702 133.041V133.29H57.027V132.783H59.3736C59.3736 132.567 59.3305 132.375 59.2444 132.206C59.1598 132.037 59.0389 131.904 58.8814 131.806C58.7257 131.708 58.5417 131.659 58.3296 131.659C58.0959 131.659 57.8937 131.717 57.7231 131.833C57.554 131.947 57.4239 132.097 57.3328 132.281C57.2416 132.464 57.1961 132.662 57.1961 132.872V133.21C57.1961 133.499 57.2458 133.743 57.3452 133.944C57.4463 134.142 57.5863 134.294 57.7653 134.398C57.9443 134.501 58.1523 134.553 58.3892 134.553C58.5434 134.553 58.6826 134.531 58.8069 134.488C58.9328 134.443 59.0414 134.377 59.1325 134.289C59.2236 134.2 59.2941 134.089 59.3438 133.956L59.9106 134.115C59.8509 134.307 59.7506 134.476 59.6098 134.622C59.4689 134.766 59.2949 134.879 59.0878 134.96C58.8806 135.04 58.6478 135.08 58.3892 135.08ZM61.4493 132.703V135H60.8626V131.182H61.4294V131.778H61.4791C61.5686 131.585 61.7045 131.429 61.8868 131.311C62.0691 131.192 62.3044 131.132 62.5927 131.132C62.8513 131.132 63.0775 131.185 63.2714 131.291C63.4652 131.396 63.616 131.555 63.7238 131.768C63.8315 131.981 63.8853 132.249 63.8853 132.574V135H63.2987V132.614C63.2987 132.314 63.2208 132.08 63.065 131.913C62.9093 131.744 62.6955 131.659 62.4237 131.659C62.2364 131.659 62.0691 131.7 61.9216 131.781C61.7757 131.862 61.6606 131.981 61.576 132.136C61.4915 132.292 61.4493 132.481 61.4493 132.703ZM65.8323 134.304L65.7926 134.572C65.7644 134.761 65.7213 134.964 65.6633 135.179C65.607 135.394 65.5481 135.597 65.4868 135.788C65.4255 135.979 65.375 136.13 65.3352 136.243H64.8877C64.9093 136.137 64.9375 135.997 64.9723 135.823C65.0071 135.649 65.0419 135.454 65.0767 135.239C65.1131 135.025 65.1429 134.806 65.1661 134.582L65.196 134.304H65.8323ZM68.888 135V131.182H69.4548V131.778H69.5045C69.584 131.575 69.7125 131.416 69.8898 131.304C70.0671 131.189 70.2801 131.132 70.5286 131.132C70.7805 131.132 70.9902 131.189 71.1575 131.304C71.3266 131.416 71.4583 131.575 71.5528 131.778H71.5926C71.6903 131.581 71.837 131.425 72.0325 131.309C72.2281 131.191 72.4626 131.132 72.736 131.132C73.0774 131.132 73.3566 131.239 73.5737 131.453C73.7908 131.665 73.8994 131.996 73.8994 132.445V135H73.3127V132.445C73.3127 132.163 73.2357 131.962 73.0815 131.841C72.9274 131.72 72.746 131.659 72.5372 131.659C72.2687 131.659 72.0607 131.74 71.9132 131.903C71.7657 132.063 71.692 132.267 71.692 132.514V135H71.0954V132.385C71.0954 132.168 71.025 131.993 70.8841 131.86C70.7432 131.726 70.5618 131.659 70.3397 131.659C70.1872 131.659 70.0447 131.7 69.9122 131.781C69.7812 131.862 69.6752 131.975 69.594 132.119C69.5144 132.261 69.4747 132.426 69.4747 132.614V135H68.888ZM76.5231 135.08C76.1784 135.08 75.876 134.998 75.6158 134.833C75.3573 134.669 75.1551 134.44 75.0093 134.145C74.8651 133.85 74.793 133.505 74.793 133.111C74.793 132.713 74.8651 132.366 75.0093 132.069C75.1551 131.773 75.3573 131.542 75.6158 131.378C75.876 131.214 76.1784 131.132 76.5231 131.132C76.8678 131.132 77.1694 131.214 77.428 131.378C77.6881 131.542 77.8903 131.773 78.0345 132.069C78.1803 132.366 78.2532 132.713 78.2532 133.111C78.2532 133.505 78.1803 133.85 78.0345 134.145C77.8903 134.44 77.6881 134.669 77.428 134.833C77.1694 134.998 76.8678 135.08 76.5231 135.08ZM76.5231 134.553C76.785 134.553 77.0004 134.485 77.1694 134.351C77.3385 134.217 77.4636 134.04 77.5448 133.822C77.626 133.603 77.6666 133.366 77.6666 133.111C77.6666 132.856 77.626 132.618 77.5448 132.397C77.4636 132.177 77.3385 131.999 77.1694 131.863C77.0004 131.727 76.785 131.659 76.5231 131.659C76.2613 131.659 76.0459 131.727 75.8768 131.863C75.7078 131.999 75.5827 132.177 75.5015 132.397C75.4203 132.618 75.3797 132.856 75.3797 133.111C75.3797 133.366 75.4203 133.603 75.5015 133.822C75.5827 134.04 75.7078 134.217 75.8768 134.351C76.0459 134.485 76.2613 134.553 76.5231 134.553ZM80.5905 135.08C80.2723 135.08 79.9914 134.999 79.7478 134.838C79.5042 134.676 79.3136 134.447 79.1761 134.152C79.0385 133.856 78.9698 133.505 78.9698 133.101C78.9698 132.7 79.0385 132.352 79.1761 132.057C79.3136 131.762 79.505 131.534 79.7503 131.373C79.9956 131.212 80.279 131.132 80.6005 131.132C80.849 131.132 81.0454 131.174 81.1896 131.256C81.3354 131.338 81.4465 131.43 81.5227 131.535C81.6006 131.638 81.6611 131.722 81.7041 131.788H81.7539V129.909H82.3405V135H81.7737V134.413H81.7041C81.6611 134.483 81.5997 134.571 81.5202 134.677C81.4407 134.781 81.3271 134.875 81.1796 134.958C81.0322 135.039 80.8358 135.08 80.5905 135.08ZM80.6701 134.553C80.9054 134.553 81.1042 134.491 81.2666 134.369C81.4291 134.244 81.5525 134.073 81.637 133.854C81.7215 133.634 81.7638 133.379 81.7638 133.091C81.7638 132.806 81.7224 132.556 81.6395 132.343C81.5567 132.127 81.434 131.96 81.2716 131.841C81.1092 131.72 80.9087 131.659 80.6701 131.659C80.4215 131.659 80.2143 131.723 80.0486 131.85C79.8845 131.976 79.7611 132.148 79.6782 132.365C79.597 132.58 79.5564 132.822 79.5564 133.091C79.5564 133.363 79.5978 133.61 79.6807 133.832C79.7652 134.052 79.8895 134.228 80.0536 134.359C80.2193 134.488 80.4248 134.553 80.6701 134.553ZM85.9027 133.439V131.182H86.4893V135H85.9027V134.354H85.8629C85.7734 134.548 85.6342 134.712 85.4453 134.848C85.2563 134.983 85.0177 135.05 84.7294 135.05C84.4907 135.05 84.2786 134.998 84.093 134.893C83.9074 134.787 83.7616 134.628 83.6555 134.416C83.5494 134.202 83.4964 133.933 83.4964 133.608V131.182H84.0831V133.568C84.0831 133.847 84.1609 134.069 84.3167 134.234C84.4742 134.4 84.6747 134.483 84.9183 134.483C85.0641 134.483 85.2124 134.446 85.3632 134.371C85.5157 134.297 85.6433 134.182 85.746 134.028C85.8505 133.874 85.9027 133.678 85.9027 133.439ZM88.1504 129.909V135H87.5638V129.909H88.1504ZM90.3485 135.089C90.1065 135.089 89.887 135.044 89.6898 134.953C89.4926 134.86 89.336 134.727 89.2199 134.553C89.1039 134.377 89.0459 134.165 89.0459 133.916C89.0459 133.697 89.089 133.52 89.1752 133.384C89.2614 133.247 89.3766 133.139 89.5207 133.061C89.6649 132.983 89.824 132.925 89.998 132.887C90.1737 132.847 90.3502 132.816 90.5275 132.793C90.7595 132.763 90.9476 132.74 91.0918 132.725C91.2376 132.709 91.3436 132.682 91.4099 132.643C91.4779 132.605 91.5119 132.539 91.5119 132.445V132.425C91.5119 132.179 91.4447 131.989 91.3105 131.853C91.1779 131.717 90.9766 131.649 90.7065 131.649C90.4264 131.649 90.2068 131.71 90.0477 131.833C89.8886 131.956 89.7768 132.087 89.7121 132.226L89.1553 132.027C89.2547 131.795 89.3873 131.614 89.553 131.485C89.7204 131.354 89.9027 131.263 90.0999 131.212C90.2988 131.159 90.4943 131.132 90.6866 131.132C90.8092 131.132 90.9501 131.147 91.1092 131.177C91.2699 131.205 91.4248 131.264 91.574 131.353C91.7248 131.443 91.8499 131.578 91.9494 131.759C92.0488 131.939 92.0985 132.181 92.0985 132.484V135H91.5119V134.483H91.482C91.4422 134.566 91.376 134.654 91.2832 134.749C91.1904 134.843 91.0669 134.924 90.9128 134.99C90.7587 135.056 90.5706 135.089 90.3485 135.089ZM90.438 134.562C90.67 134.562 90.8655 134.517 91.0246 134.426C91.1854 134.335 91.3064 134.217 91.3876 134.073C91.4704 133.929 91.5119 133.777 91.5119 133.618V133.081C91.487 133.111 91.4323 133.138 91.3478 133.163C91.2649 133.186 91.1688 133.207 91.0594 133.225C90.9517 133.242 90.8465 133.257 90.7437 133.27C90.6427 133.281 90.5606 133.291 90.4976 133.3C90.3452 133.32 90.2027 133.352 90.0701 133.397C89.9392 133.44 89.8331 133.505 89.7519 133.593C89.6724 133.679 89.6326 133.797 89.6326 133.946C89.6326 134.15 89.708 134.304 89.8588 134.408C90.0113 134.511 90.2043 134.562 90.438 134.562ZM93.1693 135V131.182H93.736V131.759H93.7758C93.8454 131.57 93.9713 131.416 94.1536 131.299C94.3359 131.181 94.5414 131.122 94.7701 131.122C94.8132 131.122 94.8671 131.123 94.9317 131.125C94.9963 131.126 95.0452 131.129 95.0783 131.132V131.729C95.0585 131.724 95.0129 131.716 94.9416 131.706C94.872 131.695 94.7983 131.689 94.7204 131.689C94.5348 131.689 94.3691 131.728 94.2232 131.806C94.0791 131.882 93.9647 131.988 93.8802 132.124C93.7973 132.258 93.7559 132.411 93.7559 132.584V135H93.1693ZM99.2936 135.08C98.9357 135.08 98.6274 134.995 98.3689 134.826C98.1104 134.657 97.9115 134.424 97.7723 134.127C97.6331 133.831 97.5635 133.492 97.5635 133.111C97.5635 132.723 97.6348 132.381 97.7773 132.084C97.9215 131.786 98.122 131.553 98.3789 131.386C98.6374 131.217 98.939 131.132 99.2837 131.132C99.5522 131.132 99.7941 131.182 100.01 131.281C100.225 131.381 100.401 131.52 100.539 131.699C100.677 131.878 100.762 132.087 100.795 132.325H100.208C100.164 132.151 100.064 131.997 99.9101 131.863C99.7576 131.727 99.5522 131.659 99.2936 131.659C99.0649 131.659 98.8644 131.719 98.6921 131.838C98.5214 131.956 98.388 132.122 98.2919 132.338C98.1974 132.551 98.1502 132.803 98.1502 133.091C98.1502 133.386 98.1966 133.643 98.2894 133.862C98.3838 134.08 98.5164 134.25 98.6871 134.371C98.8594 134.492 99.0616 134.553 99.2936 134.553C99.4461 134.553 99.5845 134.526 99.7088 134.473C99.8331 134.42 99.9383 134.344 100.024 134.244C100.111 134.145 100.172 134.026 100.208 133.886H100.795C100.762 134.112 100.68 134.315 100.549 134.495C100.42 134.674 100.248 134.817 100.034 134.923C99.8223 135.027 99.5754 135.08 99.2936 135.08ZM103.204 135.08C102.859 135.08 102.557 134.998 102.296 134.833C102.038 134.669 101.836 134.44 101.69 134.145C101.546 133.85 101.474 133.505 101.474 133.111C101.474 132.713 101.546 132.366 101.69 132.069C101.836 131.773 102.038 131.542 102.296 131.378C102.557 131.214 102.859 131.132 103.204 131.132C103.548 131.132 103.85 131.214 104.109 131.378C104.369 131.542 104.571 131.773 104.715 132.069C104.861 132.366 104.934 132.713 104.934 133.111C104.934 133.505 104.861 133.85 104.715 134.145C104.571 134.44 104.369 134.669 104.109 134.833C103.85 134.998 103.548 135.08 103.204 135.08ZM103.204 134.553C103.466 134.553 103.681 134.485 103.85 134.351C104.019 134.217 104.144 134.04 104.225 133.822C104.307 133.603 104.347 133.366 104.347 133.111C104.347 132.856 104.307 132.618 104.225 132.397C104.144 132.177 104.019 131.999 103.85 131.863C103.681 131.727 103.466 131.659 103.204 131.659C102.942 131.659 102.727 131.727 102.557 131.863C102.388 131.999 102.263 132.177 102.182 132.397C102.101 132.618 102.06 132.856 102.06 133.111C102.06 133.366 102.101 133.603 102.182 133.822C102.263 134.04 102.388 134.217 102.557 134.351C102.727 134.485 102.942 134.553 103.204 134.553ZM106.416 132.703V135H105.829V131.182H106.396V131.778H106.446C106.535 131.585 106.671 131.429 106.854 131.311C107.036 131.192 107.271 131.132 107.56 131.132C107.818 131.132 108.044 131.185 108.238 131.291C108.432 131.396 108.583 131.555 108.691 131.768C108.798 131.981 108.852 132.249 108.852 132.574V135H108.265V132.614C108.265 132.314 108.188 132.08 108.032 131.913C107.876 131.744 107.662 131.659 107.39 131.659C107.203 131.659 107.036 131.7 106.888 131.781C106.743 131.862 106.627 131.981 106.543 132.136C106.458 132.292 106.416 132.481 106.416 132.703ZM111.475 135.08C111.117 135.08 110.809 134.995 110.551 134.826C110.292 134.657 110.093 134.424 109.954 134.127C109.815 133.831 109.745 133.492 109.745 133.111C109.745 132.723 109.816 132.381 109.959 132.084C110.103 131.786 110.304 131.553 110.561 131.386C110.819 131.217 111.121 131.132 111.465 131.132C111.734 131.132 111.976 131.182 112.191 131.281C112.407 131.381 112.583 131.52 112.721 131.699C112.858 131.878 112.944 132.087 112.977 132.325H112.39C112.345 132.151 112.246 131.997 112.092 131.863C111.939 131.727 111.734 131.659 111.475 131.659C111.247 131.659 111.046 131.719 110.874 131.838C110.703 131.956 110.57 132.122 110.473 132.338C110.379 132.551 110.332 132.803 110.332 133.091C110.332 133.386 110.378 133.643 110.471 133.862C110.565 134.08 110.698 134.25 110.869 134.371C111.041 134.492 111.243 134.553 111.475 134.553C111.628 134.553 111.766 134.526 111.89 134.473C112.015 134.42 112.12 134.344 112.206 134.244C112.292 134.145 112.354 134.026 112.39 133.886H112.977C112.944 134.112 112.862 134.315 112.731 134.495C112.601 134.674 112.43 134.817 112.216 134.923C112.004 135.027 111.757 135.08 111.475 135.08ZM115.435 135.08C115.067 135.08 114.75 134.998 114.483 134.836C114.218 134.672 114.013 134.443 113.869 134.15C113.727 133.855 113.655 133.512 113.655 133.121C113.655 132.73 113.727 132.385 113.869 132.087C114.013 131.787 114.214 131.553 114.471 131.386C114.729 131.217 115.031 131.132 115.375 131.132C115.574 131.132 115.771 131.165 115.965 131.232C116.159 131.298 116.335 131.406 116.494 131.555C116.653 131.702 116.78 131.898 116.874 132.141C116.969 132.385 117.016 132.685 117.016 133.041V133.29H114.073V132.783H116.42C116.42 132.567 116.376 132.375 116.29 132.206C116.206 132.037 116.085 131.904 115.927 131.806C115.772 131.708 115.588 131.659 115.375 131.659C115.142 131.659 114.94 131.717 114.769 131.833C114.6 131.947 114.47 132.097 114.379 132.281C114.288 132.464 114.242 132.662 114.242 132.872V133.21C114.242 133.499 114.292 133.743 114.391 133.944C114.492 134.142 114.632 134.294 114.811 134.398C114.99 134.501 115.198 134.553 115.435 134.553C115.589 134.553 115.728 134.531 115.853 134.488C115.979 134.443 116.087 134.377 116.178 134.289C116.27 134.2 116.34 134.089 116.39 133.956L116.956 134.115C116.897 134.307 116.797 134.476 116.656 134.622C116.515 134.766 116.341 134.879 116.134 134.96C115.927 135.04 115.694 135.08 115.435 135.08ZM117.909 136.432V131.182H118.475V131.788H118.545C118.588 131.722 118.648 131.638 118.724 131.535C118.802 131.43 118.913 131.338 119.057 131.256C119.203 131.174 119.4 131.132 119.649 131.132C119.97 131.132 120.253 131.212 120.499 131.373C120.744 131.534 120.935 131.762 121.073 132.057C121.21 132.352 121.279 132.7 121.279 133.101C121.279 133.505 121.21 133.856 121.073 134.152C120.935 134.447 120.745 134.676 120.501 134.838C120.258 134.999 119.977 135.08 119.659 135.08C119.413 135.08 119.217 135.039 119.069 134.958C118.922 134.875 118.808 134.781 118.729 134.677C118.649 134.571 118.588 134.483 118.545 134.413H118.495V136.432H117.909ZM118.485 133.091C118.485 133.379 118.527 133.634 118.612 133.854C118.697 134.073 118.82 134.244 118.982 134.369C119.145 134.491 119.344 134.553 119.579 134.553C119.824 134.553 120.029 134.488 120.193 134.359C120.359 134.228 120.483 134.052 120.566 133.832C120.65 133.61 120.693 133.363 120.693 133.091C120.693 132.822 120.651 132.58 120.568 132.365C120.487 132.148 120.364 131.976 120.198 131.85C120.034 131.723 119.828 131.659 119.579 131.659C119.34 131.659 119.14 131.72 118.977 131.841C118.815 131.96 118.692 132.127 118.61 132.343C118.527 132.556 118.485 132.806 118.485 133.091ZM123.835 131.182V131.679H121.856V131.182H123.835ZM122.433 130.267H123.019V133.906C123.019 134.072 123.043 134.196 123.091 134.279C123.141 134.36 123.204 134.415 123.28 134.443C123.358 134.47 123.44 134.483 123.526 134.483C123.591 134.483 123.644 134.48 123.686 134.473C123.727 134.465 123.76 134.458 123.785 134.453L123.904 134.98C123.864 134.995 123.809 135.01 123.738 135.025C123.666 135.041 123.576 135.05 123.467 135.05C123.301 135.05 123.139 135.014 122.98 134.943C122.822 134.872 122.691 134.763 122.587 134.617C122.484 134.471 122.433 134.287 122.433 134.065V130.267ZM126.765 135V129.909H127.352V131.788H127.402C127.445 131.722 127.505 131.638 127.581 131.535C127.659 131.43 127.77 131.338 127.914 131.256C128.06 131.174 128.257 131.132 128.505 131.132C128.827 131.132 129.11 131.212 129.356 131.373C129.601 131.534 129.792 131.762 129.93 132.057C130.067 132.352 130.136 132.7 130.136 133.101C130.136 133.505 130.067 133.856 129.93 134.152C129.792 134.447 129.602 134.676 129.358 134.838C129.114 134.999 128.834 135.08 128.515 135.08C128.27 135.08 128.074 135.039 127.926 134.958C127.779 134.875 127.665 134.781 127.586 134.677C127.506 134.571 127.445 134.483 127.402 134.413H127.332V135H126.765ZM127.342 133.091C127.342 133.379 127.384 133.634 127.469 133.854C127.553 134.073 127.677 134.244 127.839 134.369C128.002 134.491 128.201 134.553 128.436 134.553C128.681 134.553 128.886 134.488 129.05 134.359C129.216 134.228 129.34 134.052 129.423 133.832C129.507 133.61 129.549 133.363 129.549 133.091C129.549 132.822 129.508 132.58 129.425 132.365C129.344 132.148 129.221 131.976 129.055 131.85C128.891 131.723 128.684 131.659 128.436 131.659C128.197 131.659 127.997 131.72 127.834 131.841C127.672 131.96 127.549 132.127 127.466 132.343C127.384 132.556 127.342 132.806 127.342 133.091ZM132.634 135.08C132.266 135.08 131.949 134.998 131.682 134.836C131.417 134.672 131.212 134.443 131.068 134.15C130.926 133.855 130.855 133.512 130.855 133.121C130.855 132.73 130.926 132.385 131.068 132.087C131.212 131.787 131.413 131.553 131.67 131.386C131.928 131.217 132.23 131.132 132.575 131.132C132.774 131.132 132.97 131.165 133.164 131.232C133.358 131.298 133.534 131.406 133.693 131.555C133.852 131.702 133.979 131.898 134.074 132.141C134.168 132.385 134.215 132.685 134.215 133.041V133.29H131.272V132.783H133.619C133.619 132.567 133.576 132.375 133.489 132.206C133.405 132.037 133.284 131.904 133.127 131.806C132.971 131.708 132.787 131.659 132.575 131.659C132.341 131.659 132.139 131.717 131.968 131.833C131.799 131.947 131.669 132.097 131.578 132.281C131.487 132.464 131.441 132.662 131.441 132.872V133.21C131.441 133.499 131.491 133.743 131.59 133.944C131.691 134.142 131.831 134.294 132.01 134.398C132.189 134.501 132.397 134.553 132.634 134.553C132.788 134.553 132.928 134.531 133.052 134.488C133.178 134.443 133.286 134.377 133.378 134.289C133.469 134.2 133.539 134.089 133.589 133.956L134.156 134.115C134.096 134.307 133.996 134.476 133.855 134.622C133.714 134.766 133.54 134.879 133.333 134.96C133.126 135.04 132.893 135.08 132.634 135.08ZM135.694 132.703V135H135.108V131.182H135.674V131.778H135.724C135.814 131.585 135.95 131.429 136.132 131.311C136.314 131.192 136.549 131.132 136.838 131.132C137.096 131.132 137.323 131.185 137.516 131.291C137.71 131.396 137.861 131.555 137.969 131.768C138.077 131.981 138.13 132.249 138.13 132.574V135H137.544V132.614C137.544 132.314 137.466 132.08 137.31 131.913C137.154 131.744 136.941 131.659 136.669 131.659C136.482 131.659 136.314 131.7 136.167 131.781C136.021 131.862 135.906 131.981 135.821 132.136C135.737 132.292 135.694 132.481 135.694 132.703ZM140.803 135.08C140.435 135.08 140.118 134.998 139.851 134.836C139.586 134.672 139.381 134.443 139.237 134.15C139.095 133.855 139.023 133.512 139.023 133.121C139.023 132.73 139.095 132.385 139.237 132.087C139.381 131.787 139.582 131.553 139.839 131.386C140.097 131.217 140.399 131.132 140.744 131.132C140.943 131.132 141.139 131.165 141.333 131.232C141.527 131.298 141.703 131.406 141.862 131.555C142.021 131.702 142.148 131.898 142.243 132.141C142.337 132.385 142.384 132.685 142.384 133.041V133.29H139.441V132.783H141.788C141.788 132.567 141.745 132.375 141.658 132.206C141.574 132.037 141.453 131.904 141.295 131.806C141.14 131.708 140.956 131.659 140.744 131.659C140.51 131.659 140.308 131.717 140.137 131.833C139.968 131.947 139.838 132.097 139.747 132.281C139.656 132.464 139.61 132.662 139.61 132.872V133.21C139.61 133.499 139.66 133.743 139.759 133.944C139.86 134.142 140 134.294 140.179 134.398C140.358 134.501 140.566 134.553 140.803 134.553C140.957 134.553 141.097 134.531 141.221 134.488C141.347 134.443 141.455 134.377 141.547 134.289C141.638 134.2 141.708 134.089 141.758 133.956L142.325 134.115C142.265 134.307 142.165 134.476 142.024 134.622C141.883 134.766 141.709 134.879 141.502 134.96C141.295 135.04 141.062 135.08 140.803 135.08ZM144.4 135.089C144.158 135.089 143.939 135.044 143.742 134.953C143.544 134.86 143.388 134.727 143.272 134.553C143.156 134.377 143.098 134.165 143.098 133.916C143.098 133.697 143.141 133.52 143.227 133.384C143.313 133.247 143.428 133.139 143.572 133.061C143.717 132.983 143.876 132.925 144.05 132.887C144.225 132.847 144.402 132.816 144.579 132.793C144.811 132.763 144.999 132.74 145.144 132.725C145.289 132.709 145.395 132.682 145.462 132.643C145.53 132.605 145.564 132.539 145.564 132.445V132.425C145.564 132.179 145.496 131.989 145.362 131.853C145.23 131.717 145.028 131.649 144.758 131.649C144.478 131.649 144.259 131.71 144.099 131.833C143.94 131.956 143.829 132.087 143.764 132.226L143.207 132.027C143.307 131.795 143.439 131.614 143.605 131.485C143.772 131.354 143.954 131.263 144.152 131.212C144.351 131.159 144.546 131.132 144.738 131.132C144.861 131.132 145.002 131.147 145.161 131.177C145.322 131.205 145.477 131.264 145.626 131.353C145.777 131.443 145.902 131.578 146.001 131.759C146.101 131.939 146.15 132.181 146.15 132.484V135H145.564V134.483H145.534C145.494 134.566 145.428 134.654 145.335 134.749C145.242 134.843 145.119 134.924 144.965 134.99C144.81 135.056 144.622 135.089 144.4 135.089ZM144.49 134.562C144.722 134.562 144.917 134.517 145.076 134.426C145.237 134.335 145.358 134.217 145.439 134.073C145.522 133.929 145.564 133.777 145.564 133.618V133.081C145.539 133.111 145.484 133.138 145.4 133.163C145.317 133.186 145.221 133.207 145.111 133.225C145.003 133.242 144.898 133.257 144.795 133.27C144.694 133.281 144.612 133.291 144.549 133.3C144.397 133.32 144.254 133.352 144.122 133.397C143.991 133.44 143.885 133.505 143.804 133.593C143.724 133.679 143.684 133.797 143.684 133.946C143.684 134.15 143.76 134.304 143.911 134.408C144.063 134.511 144.256 134.562 144.49 134.562ZM148.882 131.182V131.679H146.903V131.182H148.882ZM147.48 130.267H148.066V133.906C148.066 134.072 148.09 134.196 148.138 134.279C148.188 134.36 148.251 134.415 148.327 134.443C148.405 134.47 148.487 134.483 148.573 134.483C148.638 134.483 148.691 134.48 148.732 134.473C148.774 134.465 148.807 134.458 148.832 134.453L148.951 134.98C148.911 134.995 148.856 135.01 148.785 135.025C148.713 135.041 148.623 135.05 148.514 135.05C148.348 135.05 148.186 135.014 148.026 134.943C147.869 134.872 147.738 134.763 147.634 134.617C147.531 134.471 147.48 134.287 147.48 134.065V130.267ZM150.433 132.703V135H149.846V129.909H150.433V131.778H150.482C150.572 131.581 150.706 131.425 150.885 131.309C151.066 131.191 151.306 131.132 151.606 131.132C151.866 131.132 152.094 131.184 152.29 131.289C152.485 131.391 152.637 131.55 152.744 131.763C152.854 131.976 152.909 132.246 152.909 132.574V135H152.322V132.614C152.322 132.31 152.243 132.076 152.086 131.91C151.93 131.743 151.714 131.659 151.437 131.659C151.245 131.659 151.072 131.7 150.92 131.781C150.769 131.862 150.65 131.981 150.562 132.136C150.476 132.292 150.433 132.481 150.433 132.703ZM156.03 135V129.909H157.75C158.15 129.909 158.476 129.981 158.73 130.125C158.985 130.268 159.174 130.461 159.296 130.705C159.419 130.948 159.48 131.22 159.48 131.52C159.48 131.82 159.419 132.092 159.296 132.338C159.175 132.583 158.988 132.779 158.735 132.924C158.481 133.069 158.156 133.141 157.76 133.141H156.527V132.594H157.74C158.014 132.594 158.233 132.547 158.399 132.452C158.565 132.358 158.685 132.23 158.759 132.069C158.836 131.907 158.874 131.724 158.874 131.52C158.874 131.316 158.836 131.134 158.759 130.973C158.685 130.812 158.564 130.686 158.397 130.595C158.229 130.502 158.007 130.456 157.73 130.456H156.647V135H156.03ZM160.473 135V129.909H161.09V132.176H163.804V129.909H164.421V135H163.804V132.723H161.09V135H160.473ZM165.655 135V129.909H167.375C167.775 129.909 168.101 129.981 168.355 130.125C168.61 130.268 168.799 130.461 168.921 130.705C169.044 130.948 169.105 131.22 169.105 131.52C169.105 131.82 169.044 132.092 168.921 132.338C168.8 132.583 168.613 132.779 168.36 132.924C168.106 133.069 167.781 133.141 167.385 133.141H166.152V132.594H167.365C167.639 132.594 167.858 132.547 168.024 132.452C168.19 132.358 168.31 132.23 168.384 132.069C168.461 131.907 168.499 131.724 168.499 131.52C168.499 131.316 168.461 131.134 168.384 130.973C168.31 130.812 168.189 130.686 168.022 130.595C167.854 130.502 167.632 130.456 167.355 130.456H166.272V135H165.655ZM170.614 134.304L170.574 134.572C170.546 134.761 170.503 134.964 170.445 135.179C170.388 135.394 170.329 135.597 170.268 135.788C170.207 135.979 170.156 136.13 170.116 136.243H169.669C169.691 136.137 169.719 135.997 169.754 135.823C169.788 135.649 169.823 135.454 169.858 135.239C169.894 135.025 169.924 134.806 169.947 134.582L169.977 134.304H170.614ZM175.111 135.08C174.793 135.08 174.512 134.999 174.268 134.838C174.025 134.676 173.834 134.447 173.697 134.152C173.559 133.856 173.49 133.505 173.49 133.101C173.49 132.7 173.559 132.352 173.697 132.057C173.834 131.762 174.026 131.534 174.271 131.373C174.516 131.212 174.799 131.132 175.121 131.132C175.37 131.132 175.566 131.174 175.71 131.256C175.856 131.338 175.967 131.43 176.043 131.535C176.121 131.638 176.182 131.722 176.225 131.788H176.274V129.909H176.861V135H176.294V134.413H176.225C176.182 134.483 176.12 134.571 176.041 134.677C175.961 134.781 175.848 134.875 175.7 134.958C175.553 135.039 175.356 135.08 175.111 135.08ZM175.191 134.553C175.426 134.553 175.625 134.491 175.787 134.369C175.95 134.244 176.073 134.073 176.158 133.854C176.242 133.634 176.284 133.379 176.284 133.091C176.284 132.806 176.243 132.556 176.16 132.343C176.077 132.127 175.955 131.96 175.792 131.841C175.63 131.72 175.429 131.659 175.191 131.659C174.942 131.659 174.735 131.723 174.569 131.85C174.405 131.976 174.282 132.148 174.199 132.365C174.118 132.58 174.077 132.822 174.077 133.091C174.077 133.363 174.118 133.61 174.201 133.832C174.286 134.052 174.41 134.228 174.574 134.359C174.74 134.488 174.945 134.553 175.191 134.553ZM179.618 135.08C179.25 135.08 178.933 134.998 178.666 134.836C178.401 134.672 178.196 134.443 178.052 134.15C177.909 133.855 177.838 133.512 177.838 133.121C177.838 132.73 177.909 132.385 178.052 132.087C178.196 131.787 178.396 131.553 178.653 131.386C178.912 131.217 179.213 131.132 179.558 131.132C179.757 131.132 179.953 131.165 180.147 131.232C180.341 131.298 180.518 131.406 180.677 131.555C180.836 131.702 180.963 131.898 181.057 132.141C181.152 132.385 181.199 132.685 181.199 133.041V133.29H178.256V132.783H180.602C180.602 132.567 180.559 132.375 180.473 132.206C180.388 132.037 180.267 131.904 180.11 131.806C179.954 131.708 179.77 131.659 179.558 131.659C179.324 131.659 179.122 131.717 178.952 131.833C178.783 131.947 178.652 132.097 178.561 132.281C178.47 132.464 178.425 132.662 178.425 132.872V133.21C178.425 133.499 178.474 133.743 178.574 133.944C178.675 134.142 178.815 134.294 178.994 134.398C179.173 134.501 179.381 134.553 179.618 134.553C179.772 134.553 179.911 134.531 180.035 134.488C180.161 134.443 180.27 134.377 180.361 134.289C180.452 134.2 180.523 134.089 180.572 133.956L181.139 134.115C181.079 134.307 180.979 134.476 180.838 134.622C180.697 134.766 180.523 134.879 180.316 134.96C180.109 135.04 179.876 135.08 179.618 135.08ZM184.796 132.037L184.269 132.186C184.236 132.098 184.187 132.013 184.122 131.93C184.059 131.846 183.973 131.776 183.864 131.721C183.754 131.667 183.614 131.639 183.443 131.639C183.21 131.639 183.015 131.693 182.859 131.801C182.705 131.907 182.628 132.042 182.628 132.206C182.628 132.352 182.681 132.467 182.787 132.551C182.893 132.636 183.059 132.706 183.284 132.763L183.851 132.902C184.192 132.985 184.447 133.112 184.614 133.282C184.782 133.451 184.865 133.669 184.865 133.936C184.865 134.155 184.802 134.35 184.676 134.523C184.552 134.695 184.378 134.831 184.154 134.93C183.931 135.03 183.67 135.08 183.374 135.08C182.984 135.08 182.662 134.995 182.407 134.826C182.152 134.657 181.99 134.41 181.922 134.085L182.479 133.946C182.532 134.152 182.632 134.306 182.78 134.408C182.929 134.511 183.124 134.562 183.364 134.562C183.637 134.562 183.854 134.504 184.015 134.388C184.178 134.271 184.259 134.13 184.259 133.966C184.259 133.833 184.212 133.722 184.12 133.633C184.027 133.542 183.884 133.474 183.692 133.429L183.056 133.28C182.706 133.197 182.449 133.069 182.285 132.895C182.123 132.719 182.041 132.499 182.041 132.236C182.041 132.02 182.102 131.83 182.223 131.664C182.346 131.498 182.512 131.368 182.723 131.274C182.935 131.179 183.175 131.132 183.443 131.132C183.821 131.132 184.118 131.215 184.333 131.381C184.55 131.546 184.705 131.765 184.796 132.037ZM185.748 135V131.182H186.335V135H185.748ZM186.047 130.545C185.932 130.545 185.834 130.507 185.751 130.429C185.67 130.351 185.629 130.257 185.629 130.148C185.629 130.038 185.67 129.945 185.751 129.867C185.834 129.789 185.932 129.75 186.047 129.75C186.161 129.75 186.259 129.789 186.34 129.867C186.423 129.945 186.464 130.038 186.464 130.148C186.464 130.257 186.423 130.351 186.34 130.429C186.259 130.507 186.161 130.545 186.047 130.545ZM188.951 136.511C188.667 136.511 188.424 136.475 188.22 136.402C188.016 136.331 187.846 136.236 187.71 136.119C187.576 136.003 187.469 135.878 187.39 135.746L187.857 135.418C187.91 135.487 187.977 135.567 188.058 135.656C188.139 135.747 188.251 135.826 188.391 135.892C188.534 135.96 188.72 135.994 188.951 135.994C189.259 135.994 189.513 135.92 189.714 135.771C189.914 135.621 190.015 135.388 190.015 135.07V134.294H189.965C189.922 134.364 189.86 134.45 189.781 134.553C189.703 134.654 189.59 134.744 189.443 134.824C189.297 134.901 189.1 134.94 188.851 134.94C188.543 134.94 188.266 134.867 188.021 134.722C187.777 134.576 187.584 134.364 187.442 134.085C187.301 133.807 187.231 133.469 187.231 133.071C187.231 132.68 187.299 132.339 187.437 132.049C187.574 131.758 187.766 131.532 188.011 131.373C188.256 131.212 188.54 131.132 188.861 131.132C189.11 131.132 189.307 131.174 189.453 131.256C189.6 131.338 189.713 131.43 189.791 131.535C189.87 131.638 189.932 131.722 189.975 131.788H190.034V131.182H190.601V135.109C190.601 135.438 190.527 135.704 190.378 135.91C190.23 136.117 190.031 136.269 189.781 136.365C189.532 136.462 189.256 136.511 188.951 136.511ZM188.931 134.413C189.166 134.413 189.365 134.359 189.527 134.252C189.69 134.144 189.813 133.989 189.898 133.787C189.982 133.585 190.025 133.343 190.025 133.061C190.025 132.786 189.983 132.543 189.9 132.333C189.817 132.122 189.695 131.957 189.532 131.838C189.37 131.719 189.169 131.659 188.931 131.659C188.682 131.659 188.475 131.722 188.309 131.848C188.145 131.974 188.022 132.143 187.939 132.355C187.858 132.567 187.817 132.803 187.817 133.061C187.817 133.326 187.859 133.561 187.941 133.765C188.026 133.967 188.15 134.126 188.314 134.242C188.48 134.356 188.686 134.413 188.931 134.413ZM192.262 132.703V135H191.675V131.182H192.242V131.778H192.292C192.381 131.585 192.517 131.429 192.699 131.311C192.882 131.192 193.117 131.132 193.405 131.132C193.664 131.132 193.89 131.185 194.084 131.291C194.278 131.396 194.429 131.555 194.536 131.768C194.644 131.981 194.698 132.249 194.698 132.574V135H194.111V132.614C194.111 132.314 194.033 132.08 193.878 131.913C193.722 131.744 193.508 131.659 193.236 131.659C193.049 131.659 192.882 131.7 192.734 131.781C192.588 131.862 192.473 131.981 192.389 132.136C192.304 132.292 192.262 132.481 192.262 132.703ZM197.371 135.08C197.003 135.08 196.685 134.998 196.419 134.836C196.153 134.672 195.949 134.443 195.805 134.15C195.662 133.855 195.591 133.512 195.591 133.121C195.591 132.73 195.662 132.385 195.805 132.087C195.949 131.787 196.149 131.553 196.406 131.386C196.665 131.217 196.966 131.132 197.311 131.132C197.51 131.132 197.706 131.165 197.9 131.232C198.094 131.298 198.271 131.406 198.43 131.555C198.589 131.702 198.716 131.898 198.81 132.141C198.904 132.385 198.952 132.685 198.952 133.041V133.29H196.008V132.783H198.355C198.355 132.567 198.312 132.375 198.226 132.206C198.141 132.037 198.02 131.904 197.863 131.806C197.707 131.708 197.523 131.659 197.311 131.659C197.077 131.659 196.875 131.717 196.705 131.833C196.535 131.947 196.405 132.097 196.314 132.281C196.223 132.464 196.178 132.662 196.178 132.872V133.21C196.178 133.499 196.227 133.743 196.327 133.944C196.428 134.142 196.568 134.294 196.747 134.398C196.926 134.501 197.134 134.553 197.371 134.553C197.525 134.553 197.664 134.531 197.788 134.488C197.914 134.443 198.023 134.377 198.114 134.289C198.205 134.2 198.276 134.089 198.325 133.956L198.892 134.115C198.832 134.307 198.732 134.476 198.591 134.622C198.45 134.766 198.276 134.879 198.069 134.96C197.862 135.04 197.629 135.08 197.371 135.08ZM201.286 135.08C200.968 135.08 200.687 134.999 200.443 134.838C200.2 134.676 200.009 134.447 199.871 134.152C199.734 133.856 199.665 133.505 199.665 133.101C199.665 132.7 199.734 132.352 199.871 132.057C200.009 131.762 200.2 131.534 200.446 131.373C200.691 131.212 200.974 131.132 201.296 131.132C201.544 131.132 201.741 131.174 201.885 131.256C202.031 131.338 202.142 131.43 202.218 131.535C202.296 131.638 202.356 131.722 202.399 131.788H202.449V129.909H203.036V135H202.469V134.413H202.399C202.356 134.483 202.295 134.571 202.216 134.677C202.136 134.781 202.022 134.875 201.875 134.958C201.727 135.039 201.531 135.08 201.286 135.08ZM201.365 134.553C201.601 134.553 201.8 134.491 201.962 134.369C202.124 134.244 202.248 134.073 202.332 133.854C202.417 133.634 202.459 133.379 202.459 133.091C202.459 132.806 202.418 132.556 202.335 132.343C202.252 132.127 202.129 131.96 201.967 131.841C201.805 131.72 201.604 131.659 201.365 131.659C201.117 131.659 200.91 131.723 200.744 131.85C200.58 131.976 200.456 132.148 200.374 132.365C200.292 132.58 200.252 132.822 200.252 133.091C200.252 133.363 200.293 133.61 200.376 133.832C200.461 134.052 200.585 134.228 200.749 134.359C200.915 134.488 201.12 134.553 201.365 134.553ZM31.231 140.703V143H30.6444V139.182H31.2111V139.778H31.2608C31.3503 139.585 31.4862 139.429 31.6685 139.311C31.8508 139.192 32.0861 139.132 32.3745 139.132C32.633 139.132 32.8592 139.185 33.0531 139.291C33.247 139.396 33.3978 139.555 33.5055 139.768C33.6132 139.981 33.6671 140.249 33.6671 140.574V143H33.0804V140.614C33.0804 140.314 33.0025 140.08 32.8468 139.913C32.691 139.744 32.4772 139.659 32.2054 139.659C32.0182 139.659 31.8508 139.7 31.7033 139.781C31.5575 139.862 31.4423 139.981 31.3578 140.136C31.2733 140.292 31.231 140.481 31.231 140.703ZM36.2902 143.08C35.9455 143.08 35.6431 142.998 35.3829 142.833C35.1244 142.669 34.9222 142.44 34.7764 142.145C34.6322 141.85 34.5601 141.505 34.5601 141.111C34.5601 140.713 34.6322 140.366 34.7764 140.069C34.9222 139.773 35.1244 139.542 35.3829 139.378C35.6431 139.214 35.9455 139.132 36.2902 139.132C36.6349 139.132 36.9365 139.214 37.195 139.378C37.4552 139.542 37.6574 139.773 37.8016 140.069C37.9474 140.366 38.0203 140.713 38.0203 141.111C38.0203 141.505 37.9474 141.85 37.8016 142.145C37.6574 142.44 37.4552 142.669 37.195 142.833C36.9365 142.998 36.6349 143.08 36.2902 143.08ZM36.2902 142.553C36.5521 142.553 36.7675 142.485 36.9365 142.351C37.1056 142.217 37.2307 142.04 37.3119 141.822C37.3931 141.603 37.4337 141.366 37.4337 141.111C37.4337 140.856 37.3931 140.618 37.3119 140.397C37.2307 140.177 37.1056 139.999 36.9365 139.863C36.7675 139.727 36.5521 139.659 36.2902 139.659C36.0284 139.659 35.8129 139.727 35.6439 139.863C35.4749 139.999 35.3498 140.177 35.2686 140.397C35.1874 140.618 35.1468 140.856 35.1468 141.111C35.1468 141.366 35.1874 141.603 35.2686 141.822C35.3498 142.04 35.4749 142.217 35.6439 142.351C35.8129 142.485 36.0284 142.553 36.2902 142.553ZM40.5763 139.182V139.679H38.5977V139.182H40.5763ZM39.1744 138.267H39.761V141.906C39.761 142.072 39.785 142.196 39.8331 142.279C39.8828 142.36 39.9458 142.415 40.022 142.443C40.0999 142.47 40.1819 142.483 40.2681 142.483C40.3327 142.483 40.3858 142.48 40.4272 142.473C40.4686 142.465 40.5018 142.458 40.5266 142.453L40.646 142.98C40.6062 142.995 40.5507 143.01 40.4794 143.025C40.4081 143.041 40.3178 143.05 40.2085 143.05C40.0427 143.05 39.8803 143.014 39.7212 142.943C39.5638 142.872 39.4329 142.763 39.3285 142.617C39.2257 142.471 39.1744 142.287 39.1744 142.065V138.267ZM45.0881 139.182V139.679H43.1094V139.182H45.0881ZM43.6861 138.267H44.2727V141.906C44.2727 142.072 44.2968 142.196 44.3448 142.279C44.3945 142.36 44.4575 142.415 44.5337 142.443C44.6116 142.47 44.6937 142.483 44.7798 142.483C44.8445 142.483 44.8975 142.48 44.9389 142.473C44.9804 142.465 45.0135 142.458 45.0384 142.453L45.1577 142.98C45.1179 142.995 45.0624 143.01 44.9911 143.025C44.9199 143.041 44.8295 143.05 44.7202 143.05C44.5545 143.05 44.392 143.014 44.233 142.943C44.0755 142.872 43.9446 142.763 43.8402 142.617C43.7375 142.471 43.6861 142.287 43.6861 142.065V138.267ZM47.4806 143.08C47.1359 143.08 46.8335 142.998 46.5733 142.833C46.3148 142.669 46.1126 142.44 45.9668 142.145C45.8226 141.85 45.7505 141.505 45.7505 141.111C45.7505 140.713 45.8226 140.366 45.9668 140.069C46.1126 139.773 46.3148 139.542 46.5733 139.378C46.8335 139.214 47.1359 139.132 47.4806 139.132C47.8253 139.132 48.127 139.214 48.3855 139.378C48.6457 139.542 48.8478 139.773 48.992 140.069C49.1378 140.366 49.2108 140.713 49.2108 141.111C49.2108 141.505 49.1378 141.85 48.992 142.145C48.8478 142.44 48.6457 142.669 48.3855 142.833C48.127 142.998 47.8253 143.08 47.4806 143.08ZM47.4806 142.553C47.7425 142.553 47.9579 142.485 48.127 142.351C48.296 142.217 48.4211 142.04 48.5023 141.822C48.5835 141.603 48.6241 141.366 48.6241 141.111C48.6241 140.856 48.5835 140.618 48.5023 140.397C48.4211 140.177 48.296 139.999 48.127 139.863C47.9579 139.727 47.7425 139.659 47.4806 139.659C47.2188 139.659 47.0034 139.727 46.8343 139.863C46.6653 139.999 46.5402 140.177 46.459 140.397C46.3778 140.618 46.3372 140.856 46.3372 141.111C46.3372 141.366 46.3778 141.603 46.459 141.822C46.5402 142.04 46.6653 142.217 46.8343 142.351C47.0034 142.485 47.2188 142.553 47.4806 142.553ZM53.5168 143.08C53.1986 143.08 52.9177 142.999 52.6741 142.838C52.4305 142.676 52.2399 142.447 52.1024 142.152C51.9648 141.856 51.896 141.505 51.896 141.101C51.896 140.7 51.9648 140.352 52.1024 140.057C52.2399 139.762 52.4313 139.534 52.6766 139.373C52.9218 139.212 53.2052 139.132 53.5267 139.132C53.7753 139.132 53.9717 139.174 54.1159 139.256C54.2617 139.338 54.3727 139.43 54.449 139.535C54.5268 139.638 54.5873 139.722 54.6304 139.788H54.6801V137.909H55.2668V143H54.7V142.413H54.6304C54.5873 142.483 54.526 142.571 54.4465 142.677C54.3669 142.781 54.2534 142.875 54.1059 142.958C53.9584 143.039 53.762 143.08 53.5168 143.08ZM53.5963 142.553C53.8316 142.553 54.0305 142.491 54.1929 142.369C54.3553 142.244 54.4788 142.073 54.5633 141.854C54.6478 141.634 54.6901 141.379 54.6901 141.091C54.6901 140.806 54.6486 140.556 54.5658 140.343C54.4829 140.127 54.3603 139.96 54.1979 139.841C54.0355 139.72 53.835 139.659 53.5963 139.659C53.3477 139.659 53.1406 139.723 52.9749 139.85C52.8108 139.976 52.6874 140.148 52.6045 140.365C52.5233 140.58 52.4827 140.822 52.4827 141.091C52.4827 141.363 52.5241 141.61 52.607 141.832C52.6915 142.052 52.8158 142.228 52.9798 142.359C53.1456 142.488 53.3511 142.553 53.5963 142.553ZM56.4227 143V139.182H57.0093V143H56.4227ZM56.721 138.545C56.6066 138.545 56.508 138.507 56.4252 138.429C56.344 138.351 56.3034 138.257 56.3034 138.148C56.3034 138.038 56.344 137.945 56.4252 137.867C56.508 137.789 56.6066 137.75 56.721 137.75C56.8353 137.75 56.9331 137.789 57.0143 137.867C57.0972 137.945 57.1386 138.038 57.1386 138.148C57.1386 138.257 57.0972 138.351 57.0143 138.429C56.9331 138.507 56.8353 138.545 56.721 138.545ZM59.6349 143.08C59.277 143.08 58.9688 142.995 58.7102 142.826C58.4517 142.657 58.2528 142.424 58.1136 142.127C57.9744 141.831 57.9048 141.492 57.9048 141.111C57.9048 140.723 57.9761 140.381 58.1186 140.084C58.2628 139.786 58.4633 139.553 58.7202 139.386C58.9787 139.217 59.2803 139.132 59.625 139.132C59.8935 139.132 60.1354 139.182 60.3509 139.281C60.5663 139.381 60.7428 139.52 60.8803 139.699C61.0179 139.878 61.1032 140.087 61.1364 140.325H60.5497C60.505 140.151 60.4055 139.997 60.2514 139.863C60.099 139.727 59.8935 139.659 59.6349 139.659C59.4063 139.659 59.2057 139.719 59.0334 139.838C58.8627 139.956 58.7293 140.122 58.6332 140.338C58.5387 140.551 58.4915 140.803 58.4915 141.091C58.4915 141.386 58.5379 141.643 58.6307 141.862C58.7251 142.08 58.8577 142.25 59.0284 142.371C59.2008 142.492 59.4029 142.553 59.6349 142.553C59.7874 142.553 59.9258 142.526 60.0501 142.473C60.1744 142.42 60.2796 142.344 60.3658 142.244C60.4519 142.145 60.5133 142.026 60.5497 141.886H61.1364C61.1032 142.112 61.0212 142.315 60.8903 142.495C60.761 142.674 60.5895 142.817 60.3757 142.923C60.1636 143.027 59.9167 143.08 59.6349 143.08ZM63.6545 139.182V139.679H61.6758V139.182H63.6545ZM62.2525 138.267H62.8391V141.906C62.8391 142.072 62.8632 142.196 62.9112 142.279C62.9609 142.36 63.0239 142.415 63.1001 142.443C63.178 142.47 63.2601 142.483 63.3462 142.483C63.4109 142.483 63.4639 142.48 63.5053 142.473C63.5468 142.465 63.5799 142.458 63.6048 142.453L63.7241 142.98C63.6843 142.995 63.6288 143.01 63.5575 143.025C63.4863 143.041 63.396 143.05 63.2866 143.05C63.1209 143.05 62.9585 143.014 62.7994 142.943C62.6419 142.872 62.511 142.763 62.4066 142.617C62.3039 142.471 62.2525 142.287 62.2525 142.065V138.267ZM65.6605 143.089C65.4186 143.089 65.199 143.044 65.0018 142.953C64.8046 142.86 64.648 142.727 64.532 142.553C64.416 142.377 64.358 142.165 64.358 141.916C64.358 141.697 64.401 141.52 64.4872 141.384C64.5734 141.247 64.6886 141.139 64.8327 141.061C64.9769 140.983 65.136 140.925 65.31 140.887C65.4857 140.847 65.6622 140.816 65.8395 140.793C66.0715 140.763 66.2596 140.74 66.4038 140.725C66.5496 140.709 66.6557 140.682 66.7219 140.643C66.7899 140.605 66.8239 140.539 66.8239 140.445V140.425C66.8239 140.179 66.7567 139.989 66.6225 139.853C66.4899 139.717 66.2886 139.649 66.0185 139.649C65.7384 139.649 65.5188 139.71 65.3597 139.833C65.2006 139.956 65.0888 140.087 65.0241 140.226L64.4673 140.027C64.5668 139.795 64.6993 139.614 64.8651 139.485C65.0324 139.354 65.2147 139.263 65.4119 139.212C65.6108 139.159 65.8063 139.132 65.9986 139.132C66.1212 139.132 66.2621 139.147 66.4212 139.177C66.5819 139.205 66.7369 139.264 66.886 139.353C67.0368 139.443 67.1619 139.578 67.2614 139.759C67.3608 139.939 67.4105 140.181 67.4105 140.484V143H66.8239V142.483H66.794C66.7543 142.566 66.688 142.654 66.5952 142.749C66.5024 142.843 66.3789 142.924 66.2248 142.99C66.0707 143.056 65.8826 143.089 65.6605 143.089ZM65.75 142.562C65.982 142.562 66.1776 142.517 66.3366 142.426C66.4974 142.335 66.6184 142.217 66.6996 142.073C66.7824 141.929 66.8239 141.777 66.8239 141.618V141.081C66.799 141.111 66.7443 141.138 66.6598 141.163C66.5769 141.186 66.4808 141.207 66.3714 141.225C66.2637 141.242 66.1585 141.257 66.0558 141.27C65.9547 141.281 65.8726 141.291 65.8097 141.3C65.6572 141.32 65.5147 141.352 65.3821 141.397C65.2512 141.44 65.1451 141.505 65.0639 141.593C64.9844 141.679 64.9446 141.797 64.9446 141.946C64.9446 142.15 65.02 142.304 65.1708 142.408C65.3233 142.511 65.5163 142.562 65.75 142.562ZM70.1418 139.182V139.679H68.1631V139.182H70.1418ZM68.7398 138.267H69.3264V141.906C69.3264 142.072 69.3505 142.196 69.3985 142.279C69.4482 142.36 69.5112 142.415 69.5874 142.443C69.6653 142.47 69.7474 142.483 69.8335 142.483C69.8982 142.483 69.9512 142.48 69.9926 142.473C70.0341 142.465 70.0672 142.458 70.0921 142.453L70.2114 142.98C70.1716 142.995 70.1161 143.01 70.0448 143.025C69.9736 143.041 69.8833 143.05 69.7739 143.05C69.6082 143.05 69.4458 143.014 69.2867 142.943C69.1292 142.872 68.9983 142.763 68.8939 142.617C68.7912 142.471 68.7398 142.287 68.7398 142.065V138.267ZM72.5841 143.08C72.2162 143.08 71.8988 142.998 71.632 142.836C71.3669 142.672 71.1622 142.443 71.018 142.15C70.8755 141.855 70.8042 141.512 70.8042 141.121C70.8042 140.73 70.8755 140.385 71.018 140.087C71.1622 139.787 71.3627 139.553 71.6196 139.386C71.8781 139.217 72.1797 139.132 72.5244 139.132C72.7233 139.132 72.9197 139.165 73.1135 139.232C73.3074 139.298 73.4839 139.406 73.643 139.555C73.8021 139.702 73.9289 139.898 74.0233 140.141C74.1178 140.385 74.165 140.685 74.165 141.041V141.29H71.2219V140.783H73.5684C73.5684 140.567 73.5254 140.375 73.4392 140.206C73.3547 140.037 73.2337 139.904 73.0763 139.806C72.9205 139.708 72.7365 139.659 72.5244 139.659C72.2907 139.659 72.0886 139.717 71.9179 139.833C71.7488 139.947 71.6188 140.097 71.5276 140.281C71.4365 140.464 71.3909 140.662 71.3909 140.872V141.21C71.3909 141.499 71.4406 141.743 71.54 141.944C71.6411 142.142 71.7812 142.294 71.9601 142.398C72.1391 142.501 72.3471 142.553 72.5841 142.553C72.7382 142.553 72.8774 142.531 73.0017 142.488C73.1276 142.443 73.2362 142.377 73.3273 142.289C73.4185 142.2 73.4889 142.089 73.5386 141.956L74.1054 142.115C74.0457 142.307 73.9455 142.476 73.8046 142.622C73.6637 142.766 73.4897 142.879 73.2826 142.96C73.0754 143.04 72.8426 143.08 72.5841 143.08ZM78.468 143.08C78.1498 143.08 77.8689 142.999 77.6253 142.838C77.3817 142.676 77.1911 142.447 77.0535 142.152C76.916 141.856 76.8472 141.505 76.8472 141.101C76.8472 140.7 76.916 140.352 77.0535 140.057C77.1911 139.762 77.3825 139.534 77.6278 139.373C77.873 139.212 78.1564 139.132 78.4779 139.132C78.7265 139.132 78.9229 139.174 79.067 139.256C79.2129 139.338 79.3239 139.43 79.4001 139.535C79.478 139.638 79.5385 139.722 79.5816 139.788H79.6313V137.909H80.218V143H79.6512V142.413H79.5816C79.5385 142.483 79.4772 142.571 79.3976 142.677C79.3181 142.781 79.2046 142.875 79.0571 142.958C78.9096 143.039 78.7132 143.08 78.468 143.08ZM78.5475 142.553C78.7828 142.553 78.9817 142.491 79.1441 142.369C79.3065 142.244 79.43 142.073 79.5145 141.854C79.599 141.634 79.6412 141.379 79.6412 141.091C79.6412 140.806 79.5998 140.556 79.517 140.343C79.4341 140.127 79.3115 139.96 79.1491 139.841C78.9867 139.72 78.7861 139.659 78.5475 139.659C78.2989 139.659 78.0918 139.723 77.926 139.85C77.762 139.976 77.6385 140.148 77.5557 140.365C77.4745 140.58 77.4339 140.822 77.4339 141.091C77.4339 141.363 77.4753 141.61 77.5581 141.832C77.6427 142.052 77.767 142.228 77.931 142.359C78.0967 142.488 78.3022 142.553 78.5475 142.553ZM82.9747 143.08C82.6068 143.08 82.2894 142.998 82.0226 142.836C81.7575 142.672 81.5528 142.443 81.4086 142.15C81.2661 141.855 81.1949 141.512 81.1949 141.121C81.1949 140.73 81.2661 140.385 81.4086 140.087C81.5528 139.787 81.7533 139.553 82.0102 139.386C82.2687 139.217 82.5703 139.132 82.915 139.132C83.1139 139.132 83.3103 139.165 83.5042 139.232C83.6981 139.298 83.8746 139.406 84.0336 139.555C84.1927 139.702 84.3195 139.898 84.414 140.141C84.5084 140.385 84.5557 140.685 84.5557 141.041V141.29H81.6125V140.783H83.9591C83.9591 140.567 83.916 140.375 83.8298 140.206C83.7453 140.037 83.6243 139.904 83.4669 139.806C83.3111 139.708 83.1272 139.659 82.915 139.659C82.6814 139.659 82.4792 139.717 82.3085 139.833C82.1395 139.947 82.0094 140.097 81.9182 140.281C81.8271 140.464 81.7815 140.662 81.7815 140.872V141.21C81.7815 141.499 81.8312 141.743 81.9307 141.944C82.0318 142.142 82.1718 142.294 82.3508 142.398C82.5297 142.501 82.7377 142.553 82.9747 142.553C83.1288 142.553 83.268 142.531 83.3923 142.488C83.5183 142.443 83.6268 142.377 83.718 142.289C83.8091 142.2 83.8795 142.089 83.9292 141.956L84.496 142.115C84.4363 142.307 84.3361 142.476 84.1952 142.622C84.0544 142.766 83.8804 142.879 83.6732 142.96C83.4661 143.04 83.2332 143.08 82.9747 143.08ZM88.454 139.182L87.0421 143H86.4455L85.0336 139.182H85.6699L86.7239 142.224H86.7637L87.8176 139.182H88.454ZM90.6925 143.08C90.3246 143.08 90.0072 142.998 89.7404 142.836C89.4753 142.672 89.2706 142.443 89.1264 142.15C88.9839 141.855 88.9126 141.512 88.9126 141.121C88.9126 140.73 88.9839 140.385 89.1264 140.087C89.2706 139.787 89.4711 139.553 89.728 139.386C89.9865 139.217 90.2881 139.132 90.6328 139.132C90.8317 139.132 91.0281 139.165 91.2219 139.232C91.4158 139.298 91.5923 139.406 91.7514 139.555C91.9105 139.702 92.0373 139.898 92.1317 140.141C92.2262 140.385 92.2734 140.685 92.2734 141.041V141.29H89.3303V140.783H91.6768C91.6768 140.567 91.6338 140.375 91.5476 140.206C91.4631 140.037 91.3421 139.904 91.1847 139.806C91.0289 139.708 90.8449 139.659 90.6328 139.659C90.3991 139.659 90.197 139.717 90.0263 139.833C89.8572 139.947 89.7272 140.097 89.636 140.281C89.5449 140.464 89.4993 140.662 89.4993 140.872V141.21C89.4993 141.499 89.549 141.743 89.6484 141.944C89.7495 142.142 89.8896 142.294 90.0685 142.398C90.2475 142.501 90.4555 142.553 90.6925 142.553C90.8466 142.553 90.9858 142.531 91.1101 142.488C91.236 142.443 91.3446 142.377 91.4357 142.289C91.5269 142.2 91.5973 142.089 91.647 141.956L92.2138 142.115C92.1541 142.307 92.0539 142.476 91.913 142.622C91.7721 142.766 91.5981 142.879 91.391 142.96C91.1838 143.04 90.951 143.08 90.6925 143.08ZM93.7525 137.909V143H93.1658V137.909H93.7525ZM96.3781 143.08C96.0334 143.08 95.731 142.998 95.4708 142.833C95.2123 142.669 95.0101 142.44 94.8643 142.145C94.7201 141.85 94.648 141.505 94.648 141.111C94.648 140.713 94.7201 140.366 94.8643 140.069C95.0101 139.773 95.2123 139.542 95.4708 139.378C95.731 139.214 96.0334 139.132 96.3781 139.132C96.7228 139.132 97.0244 139.214 97.2829 139.378C97.5431 139.542 97.7453 139.773 97.8895 140.069C98.0353 140.366 98.1082 140.713 98.1082 141.111C98.1082 141.505 98.0353 141.85 97.8895 142.145C97.7453 142.44 97.5431 142.669 97.2829 142.833C97.0244 142.998 96.7228 143.08 96.3781 143.08ZM96.3781 142.553C96.6399 142.553 96.8554 142.485 97.0244 142.351C97.1934 142.217 97.3186 142.04 97.3998 141.822C97.481 141.603 97.5216 141.366 97.5216 141.111C97.5216 140.856 97.481 140.618 97.3998 140.397C97.3186 140.177 97.1934 139.999 97.0244 139.863C96.8554 139.727 96.6399 139.659 96.3781 139.659C96.1163 139.659 95.9008 139.727 95.7318 139.863C95.5628 139.999 95.4376 140.177 95.3564 140.397C95.2752 140.618 95.2346 140.856 95.2346 141.111C95.2346 141.366 95.2752 141.603 95.3564 141.822C95.4376 142.04 95.5628 142.217 95.7318 142.351C95.9008 142.485 96.1163 142.553 96.3781 142.553ZM99.0037 144.432V139.182H99.5705V139.788H99.6401C99.6832 139.722 99.7428 139.638 99.8191 139.535C99.897 139.43 100.008 139.338 100.152 139.256C100.298 139.174 100.495 139.132 100.744 139.132C101.065 139.132 101.349 139.212 101.594 139.373C101.839 139.534 102.031 139.762 102.168 140.057C102.306 140.352 102.374 140.7 102.374 141.101C102.374 141.505 102.306 141.856 102.168 142.152C102.031 142.447 101.84 142.676 101.596 142.838C101.353 142.999 101.072 143.08 100.754 143.08C100.508 143.08 100.312 143.039 100.165 142.958C100.017 142.875 99.9036 142.781 99.824 142.677C99.7445 142.571 99.6832 142.483 99.6401 142.413H99.5904V144.432H99.0037ZM99.5804 141.091C99.5804 141.379 99.6227 141.634 99.7072 141.854C99.7917 142.073 99.9152 142.244 100.078 142.369C100.24 142.491 100.439 142.553 100.674 142.553C100.919 142.553 101.124 142.488 101.288 142.359C101.454 142.228 101.578 142.052 101.661 141.832C101.746 141.61 101.788 141.363 101.788 141.091C101.788 140.822 101.746 140.58 101.664 140.365C101.582 140.148 101.459 139.976 101.293 139.85C101.129 139.723 100.923 139.659 100.674 139.659C100.436 139.659 100.235 139.72 100.073 139.841C99.9102 139.96 99.7876 140.127 99.7047 140.343C99.6219 140.556 99.5804 140.806 99.5804 141.091ZM103.269 143V139.182H103.836V139.778H103.886C103.965 139.575 104.094 139.416 104.271 139.304C104.448 139.189 104.661 139.132 104.91 139.132C105.162 139.132 105.372 139.189 105.539 139.304C105.708 139.416 105.84 139.575 105.934 139.778H105.974C106.072 139.581 106.218 139.425 106.414 139.309C106.609 139.191 106.844 139.132 107.117 139.132C107.459 139.132 107.738 139.239 107.955 139.453C108.172 139.665 108.281 139.996 108.281 140.445V143H107.694V140.445C107.694 140.163 107.617 139.962 107.463 139.841C107.309 139.72 107.127 139.659 106.919 139.659C106.65 139.659 106.442 139.74 106.295 139.903C106.147 140.063 106.073 140.267 106.073 140.514V143H105.477V140.385C105.477 140.168 105.406 139.993 105.265 139.86C105.125 139.726 104.943 139.659 104.721 139.659C104.569 139.659 104.426 139.7 104.294 139.781C104.163 139.862 104.057 139.975 103.975 140.119C103.896 140.261 103.856 140.426 103.856 140.614V143H103.269ZM110.954 143.08C110.586 143.08 110.269 142.998 110.002 142.836C109.737 142.672 109.532 142.443 109.388 142.15C109.246 141.855 109.174 141.512 109.174 141.121C109.174 140.73 109.246 140.385 109.388 140.087C109.532 139.787 109.733 139.553 109.99 139.386C110.248 139.217 110.55 139.132 110.895 139.132C111.093 139.132 111.29 139.165 111.484 139.232C111.678 139.298 111.854 139.406 112.013 139.555C112.172 139.702 112.299 139.898 112.393 140.141C112.488 140.385 112.535 140.685 112.535 141.041V141.29H109.592V140.783H111.939C111.939 140.567 111.895 140.375 111.809 140.206C111.725 140.037 111.604 139.904 111.446 139.806C111.291 139.708 111.107 139.659 110.895 139.659C110.661 139.659 110.459 139.717 110.288 139.833C110.119 139.947 109.989 140.097 109.898 140.281C109.807 140.464 109.761 140.662 109.761 140.872V141.21C109.761 141.499 109.811 141.743 109.91 141.944C110.011 142.142 110.151 142.294 110.33 142.398C110.509 142.501 110.717 142.553 110.954 142.553C111.108 142.553 111.248 142.531 111.372 142.488C111.498 142.443 111.606 142.377 111.697 142.289C111.789 142.2 111.859 142.089 111.909 141.956L112.475 142.115C112.416 142.307 112.316 142.476 112.175 142.622C112.034 142.766 111.86 142.879 111.653 142.96C111.446 143.04 111.213 143.08 110.954 143.08ZM114.014 140.703V143H113.428V139.182H113.994V139.778H114.044C114.134 139.585 114.269 139.429 114.452 139.311C114.634 139.192 114.869 139.132 115.158 139.132C115.416 139.132 115.642 139.185 115.836 139.291C116.03 139.396 116.181 139.555 116.289 139.768C116.396 139.981 116.45 140.249 116.45 140.574V143H115.864V140.614C115.864 140.314 115.786 140.08 115.63 139.913C115.474 139.744 115.26 139.659 114.989 139.659C114.801 139.659 114.634 139.7 114.487 139.781C114.341 139.862 114.225 139.981 114.141 140.136C114.056 140.292 114.014 140.481 114.014 140.703ZM119.183 139.182V139.679H117.204V139.182H119.183ZM117.781 138.267H118.367V141.906C118.367 142.072 118.391 142.196 118.44 142.279C118.489 142.36 118.552 142.415 118.628 142.443C118.706 142.47 118.788 142.483 118.875 142.483C118.939 142.483 118.992 142.48 119.034 142.473C119.075 142.465 119.108 142.458 119.133 142.453L119.252 142.98C119.213 142.995 119.157 143.01 119.086 143.025C119.015 143.041 118.924 143.05 118.815 143.05C118.649 143.05 118.487 143.014 118.328 142.943C118.17 142.872 118.039 142.763 117.935 142.617C117.832 142.471 117.781 142.287 117.781 142.065V138.267ZM128.497 140.544V141.091H121.497V140.544H128.497ZM131.082 143V137.909H131.669V139.788H131.719C131.762 139.722 131.821 139.638 131.898 139.535C131.976 139.43 132.087 139.338 132.231 139.256C132.377 139.174 132.574 139.132 132.822 139.132C133.144 139.132 133.427 139.212 133.672 139.373C133.918 139.534 134.109 139.762 134.247 140.057C134.384 140.352 134.453 140.7 134.453 141.101C134.453 141.505 134.384 141.856 134.247 142.152C134.109 142.447 133.919 142.676 133.675 142.838C133.431 142.999 133.15 143.08 132.832 143.08C132.587 143.08 132.391 143.039 132.243 142.958C132.096 142.875 131.982 142.781 131.903 142.677C131.823 142.571 131.762 142.483 131.719 142.413H131.649V143H131.082ZM131.659 141.091C131.659 141.379 131.701 141.634 131.786 141.854C131.87 142.073 131.994 142.244 132.156 142.369C132.319 142.491 132.517 142.553 132.753 142.553C132.998 142.553 133.203 142.488 133.367 142.359C133.532 142.228 133.657 142.052 133.74 141.832C133.824 141.61 133.866 141.363 133.866 141.091C133.866 140.822 133.825 140.58 133.742 140.365C133.661 140.148 133.537 139.976 133.372 139.85C133.208 139.723 133.001 139.659 132.753 139.659C132.514 139.659 132.314 139.72 132.151 139.841C131.989 139.96 131.866 140.127 131.783 140.343C131.7 140.556 131.659 140.806 131.659 141.091ZM137.757 141.439V139.182H138.343V143H137.757V142.354H137.717C137.627 142.548 137.488 142.712 137.299 142.848C137.11 142.983 136.872 143.05 136.583 143.05C136.345 143.05 136.133 142.998 135.947 142.893C135.761 142.787 135.616 142.628 135.509 142.416C135.403 142.202 135.35 141.933 135.35 141.608V139.182H135.937V141.568C135.937 141.847 136.015 142.069 136.171 142.234C136.328 142.4 136.529 142.483 136.772 142.483C136.918 142.483 137.066 142.446 137.217 142.371C137.37 142.297 137.497 142.182 137.6 142.028C137.704 141.874 137.757 141.678 137.757 141.439ZM141.078 139.182V139.679H139.1V139.182H141.078ZM139.676 138.267H140.263V141.906C140.263 142.072 140.287 142.196 140.335 142.279C140.385 142.36 140.448 142.415 140.524 142.443C140.602 142.47 140.684 142.483 140.77 142.483C140.835 142.483 140.888 142.48 140.929 142.473C140.971 142.465 141.004 142.458 141.029 142.453L141.148 142.98C141.108 142.995 141.053 143.01 140.981 143.025C140.91 143.041 140.82 143.05 140.71 143.05C140.545 143.05 140.382 143.014 140.223 142.943C140.066 142.872 139.935 142.763 139.83 142.617C139.728 142.471 139.676 142.287 139.676 142.065V138.267ZM145.59 139.182V139.679H143.611V139.182H145.59ZM144.188 138.267H144.775V141.906C144.775 142.072 144.799 142.196 144.847 142.279C144.896 142.36 144.959 142.415 145.036 142.443C145.114 142.47 145.196 142.483 145.282 142.483C145.346 142.483 145.399 142.48 145.441 142.473C145.482 142.465 145.515 142.458 145.54 142.453L145.66 142.98C145.62 142.995 145.564 143.01 145.493 143.025C145.422 143.041 145.331 143.05 145.222 143.05C145.056 143.05 144.894 143.014 144.735 142.943C144.577 142.872 144.447 142.763 144.342 142.617C144.239 142.471 144.188 142.287 144.188 142.065V138.267ZM147.983 143.08C147.638 143.08 147.335 142.998 147.075 142.833C146.817 142.669 146.615 142.44 146.469 142.145C146.325 141.85 146.252 141.505 146.252 141.111C146.252 140.713 146.325 140.366 146.469 140.069C146.615 139.773 146.817 139.542 147.075 139.378C147.335 139.214 147.638 139.132 147.983 139.132C148.327 139.132 148.629 139.214 148.887 139.378C149.148 139.542 149.35 139.773 149.494 140.069C149.64 140.366 149.713 140.713 149.713 141.111C149.713 141.505 149.64 141.85 149.494 142.145C149.35 142.44 149.148 142.669 148.887 142.833C148.629 142.998 148.327 143.08 147.983 143.08ZM147.983 142.553C148.244 142.553 148.46 142.485 148.629 142.351C148.798 142.217 148.923 142.04 149.004 141.822C149.085 141.603 149.126 141.366 149.126 141.111C149.126 140.856 149.085 140.618 149.004 140.397C148.923 140.177 148.798 139.999 148.629 139.863C148.46 139.727 148.244 139.659 147.983 139.659C147.721 139.659 147.505 139.727 147.336 139.863C147.167 139.999 147.042 140.177 146.961 140.397C146.88 140.618 146.839 140.856 146.839 141.111C146.839 141.366 146.88 141.603 146.961 141.822C147.042 142.04 147.167 142.217 147.336 142.351C147.505 142.485 147.721 142.553 147.983 142.553ZM152.577 143V139.182H153.144V139.759H153.184C153.253 139.57 153.379 139.416 153.561 139.299C153.744 139.181 153.949 139.122 154.178 139.122C154.221 139.122 154.275 139.123 154.339 139.125C154.404 139.126 154.453 139.129 154.486 139.132V139.729C154.466 139.724 154.421 139.716 154.349 139.706C154.28 139.695 154.206 139.689 154.128 139.689C153.943 139.689 153.777 139.728 153.631 139.806C153.487 139.882 153.372 139.988 153.288 140.124C153.205 140.258 153.164 140.411 153.164 140.584V143H152.577ZM156.666 143.08C156.298 143.08 155.981 142.998 155.714 142.836C155.449 142.672 155.244 142.443 155.1 142.15C154.958 141.855 154.886 141.512 154.886 141.121C154.886 140.73 154.958 140.385 155.1 140.087C155.244 139.787 155.445 139.553 155.702 139.386C155.96 139.217 156.262 139.132 156.606 139.132C156.805 139.132 157.002 139.165 157.196 139.232C157.389 139.298 157.566 139.406 157.725 139.555C157.884 139.702 158.011 139.898 158.105 140.141C158.2 140.385 158.247 140.685 158.247 141.041V141.29H155.304V140.783H157.65C157.65 140.567 157.607 140.375 157.521 140.206C157.437 140.037 157.316 139.904 157.158 139.806C157.003 139.708 156.819 139.659 156.606 139.659C156.373 139.659 156.171 139.717 156 139.833C155.831 139.947 155.701 140.097 155.61 140.281C155.518 140.464 155.473 140.662 155.473 140.872V141.21C155.473 141.499 155.523 141.743 155.622 141.944C155.723 142.142 155.863 142.294 156.042 142.398C156.221 142.501 156.429 142.553 156.666 142.553C156.82 142.553 156.959 142.531 157.084 142.488C157.21 142.443 157.318 142.377 157.409 142.289C157.501 142.2 157.571 142.089 157.621 141.956L158.187 142.115C158.128 142.307 158.027 142.476 157.887 142.622C157.746 142.766 157.572 142.879 157.365 142.96C157.157 143.04 156.925 143.08 156.666 143.08ZM161.844 140.037L161.317 140.186C161.284 140.098 161.235 140.013 161.17 139.93C161.107 139.846 161.021 139.776 160.912 139.721C160.802 139.667 160.662 139.639 160.492 139.639C160.258 139.639 160.063 139.693 159.908 139.801C159.753 139.907 159.676 140.042 159.676 140.206C159.676 140.352 159.729 140.467 159.835 140.551C159.942 140.636 160.107 140.706 160.333 140.763L160.899 140.902C161.241 140.985 161.495 141.112 161.663 141.282C161.83 141.451 161.914 141.669 161.914 141.936C161.914 142.155 161.851 142.35 161.725 142.523C161.6 142.695 161.426 142.831 161.203 142.93C160.979 143.03 160.719 143.08 160.422 143.08C160.033 143.08 159.71 142.995 159.455 142.826C159.2 142.657 159.038 142.41 158.97 142.085L159.527 141.946C159.58 142.152 159.681 142.306 159.828 142.408C159.977 142.511 160.172 142.562 160.412 142.562C160.686 142.562 160.903 142.504 161.063 142.388C161.226 142.271 161.307 142.13 161.307 141.966C161.307 141.833 161.261 141.722 161.168 141.633C161.075 141.542 160.933 141.474 160.74 141.429L160.104 141.28C159.754 141.197 159.497 141.069 159.333 140.895C159.171 140.719 159.09 140.499 159.09 140.236C159.09 140.02 159.15 139.83 159.271 139.664C159.394 139.498 159.56 139.368 159.771 139.274C159.983 139.179 160.223 139.132 160.492 139.132C160.87 139.132 161.166 139.215 161.382 139.381C161.599 139.546 161.753 139.765 161.844 140.037ZM162.797 144.432V139.182H163.363V139.788H163.433C163.476 139.722 163.536 139.638 163.612 139.535C163.69 139.43 163.801 139.338 163.945 139.256C164.091 139.174 164.288 139.132 164.537 139.132C164.858 139.132 165.142 139.212 165.387 139.373C165.632 139.534 165.824 139.762 165.961 140.057C166.099 140.352 166.167 140.7 166.167 141.101C166.167 141.505 166.099 141.856 165.961 142.152C165.824 142.447 165.633 142.676 165.389 142.838C165.146 142.999 164.865 143.08 164.547 143.08C164.301 143.08 164.105 143.039 163.958 142.958C163.81 142.875 163.697 142.781 163.617 142.677C163.537 142.571 163.476 142.483 163.433 142.413H163.383V144.432H162.797ZM163.373 141.091C163.373 141.379 163.416 141.634 163.5 141.854C163.585 142.073 163.708 142.244 163.871 142.369C164.033 142.491 164.232 142.553 164.467 142.553C164.712 142.553 164.917 142.488 165.081 142.359C165.247 142.228 165.371 142.052 165.454 141.832C165.539 141.61 165.581 141.363 165.581 141.091C165.581 140.822 165.539 140.58 165.456 140.365C165.375 140.148 165.252 139.976 165.086 139.85C164.922 139.723 164.716 139.659 164.467 139.659C164.229 139.659 164.028 139.72 163.866 139.841C163.703 139.96 163.581 140.127 163.498 140.343C163.415 140.556 163.373 140.806 163.373 141.091ZM168.613 143.08C168.269 143.08 167.966 142.998 167.706 142.833C167.448 142.669 167.245 142.44 167.1 142.145C166.955 141.85 166.883 141.505 166.883 141.111C166.883 140.713 166.955 140.366 167.1 140.069C167.245 139.773 167.448 139.542 167.706 139.378C167.966 139.214 168.269 139.132 168.613 139.132C168.958 139.132 169.26 139.214 169.518 139.378C169.778 139.542 169.981 139.773 170.125 140.069C170.271 140.366 170.344 140.713 170.344 141.111C170.344 141.505 170.271 141.85 170.125 142.145C169.981 142.44 169.778 142.669 169.518 142.833C169.26 142.998 168.958 143.08 168.613 143.08ZM168.613 142.553C168.875 142.553 169.091 142.485 169.26 142.351C169.429 142.217 169.554 142.04 169.635 141.822C169.716 141.603 169.757 141.366 169.757 141.111C169.757 140.856 169.716 140.618 169.635 140.397C169.554 140.177 169.429 139.999 169.26 139.863C169.091 139.727 168.875 139.659 168.613 139.659C168.352 139.659 168.136 139.727 167.967 139.863C167.798 139.999 167.673 140.177 167.592 140.397C167.511 140.618 167.47 140.856 167.47 141.111C167.47 141.366 167.511 141.603 167.592 141.822C167.673 142.04 167.798 142.217 167.967 142.351C168.136 142.485 168.352 142.553 168.613 142.553ZM171.826 140.703V143H171.239V139.182H171.806V139.778H171.856C171.945 139.585 172.081 139.429 172.263 139.311C172.446 139.192 172.681 139.132 172.969 139.132C173.228 139.132 173.454 139.185 173.648 139.291C173.842 139.396 173.993 139.555 174.1 139.768C174.208 139.981 174.262 140.249 174.262 140.574V143H173.675V140.614C173.675 140.314 173.597 140.08 173.441 139.913C173.286 139.744 173.072 139.659 172.8 139.659C172.613 139.659 172.446 139.7 172.298 139.781C172.152 139.862 172.037 139.981 171.953 140.136C171.868 140.292 171.826 140.481 171.826 140.703ZM176.776 143.08C176.457 143.08 176.176 142.999 175.933 142.838C175.689 142.676 175.499 142.447 175.361 142.152C175.224 141.856 175.155 141.505 175.155 141.101C175.155 140.7 175.224 140.352 175.361 140.057C175.499 139.762 175.69 139.534 175.935 139.373C176.181 139.212 176.464 139.132 176.786 139.132C177.034 139.132 177.23 139.174 177.375 139.256C177.52 139.338 177.632 139.43 177.708 139.535C177.786 139.638 177.846 139.722 177.889 139.788H177.939V137.909H178.526V143H177.959V142.413H177.889C177.846 142.483 177.785 142.571 177.705 142.677C177.626 142.781 177.512 142.875 177.365 142.958C177.217 143.039 177.021 143.08 176.776 143.08ZM176.855 142.553C177.09 142.553 177.289 142.491 177.452 142.369C177.614 142.244 177.738 142.073 177.822 141.854C177.907 141.634 177.949 141.379 177.949 141.091C177.949 140.806 177.907 140.556 177.825 140.343C177.742 140.127 177.619 139.96 177.457 139.841C177.294 139.72 177.094 139.659 176.855 139.659C176.607 139.659 176.399 139.723 176.234 139.85C176.07 139.976 175.946 140.148 175.863 140.365C175.782 140.58 175.741 140.822 175.741 141.091C175.741 141.363 175.783 141.61 175.866 141.832C175.95 142.052 176.075 142.228 176.239 142.359C176.404 142.488 176.61 142.553 176.855 142.553ZM183.311 139.182V139.679H181.332V139.182H183.311ZM181.909 138.267H182.495V141.906C182.495 142.072 182.519 142.196 182.567 142.279C182.617 142.36 182.68 142.415 182.756 142.443C182.834 142.47 182.916 142.483 183.002 142.483C183.067 142.483 183.12 142.48 183.162 142.473C183.203 142.465 183.236 142.458 183.261 142.453L183.38 142.98C183.341 142.995 183.285 143.01 183.214 143.025C183.143 143.041 183.052 143.05 182.943 143.05C182.777 143.05 182.615 143.014 182.456 142.943C182.298 142.872 182.167 142.763 182.063 142.617C181.96 142.471 181.909 142.287 181.909 142.065V138.267ZM185.703 143.08C185.359 143.08 185.056 142.998 184.796 142.833C184.537 142.669 184.335 142.44 184.189 142.145C184.045 141.85 183.973 141.505 183.973 141.111C183.973 140.713 184.045 140.366 184.189 140.069C184.335 139.773 184.537 139.542 184.796 139.378C185.056 139.214 185.359 139.132 185.703 139.132C186.048 139.132 186.35 139.214 186.608 139.378C186.868 139.542 187.07 139.773 187.215 140.069C187.36 140.366 187.433 140.713 187.433 141.111C187.433 141.505 187.36 141.85 187.215 142.145C187.07 142.44 186.868 142.669 186.608 142.833C186.35 142.998 186.048 143.08 185.703 143.08ZM185.703 142.553C185.965 142.553 186.181 142.485 186.35 142.351C186.519 142.217 186.644 142.04 186.725 141.822C186.806 141.603 186.847 141.366 186.847 141.111C186.847 140.856 186.806 140.618 186.725 140.397C186.644 140.177 186.519 139.999 186.35 139.863C186.181 139.727 185.965 139.659 185.703 139.659C185.441 139.659 185.226 139.727 185.057 139.863C184.888 139.999 184.763 140.177 184.682 140.397C184.6 140.618 184.56 140.856 184.56 141.111C184.56 141.366 184.6 141.603 184.682 141.822C184.763 142.04 184.888 142.217 185.057 142.351C185.226 142.485 185.441 142.553 185.703 142.553ZM190.298 143V139.182H190.884V143H190.298ZM190.596 138.545C190.482 138.545 190.383 138.507 190.3 138.429C190.219 138.351 190.178 138.257 190.178 138.148C190.178 138.038 190.219 137.945 190.3 137.867C190.383 137.789 190.482 137.75 190.596 137.75C190.71 137.75 190.808 137.789 190.889 137.867C190.972 137.945 191.014 138.038 191.014 138.148C191.014 138.257 190.972 138.351 190.889 138.429C190.808 138.507 190.71 138.545 190.596 138.545ZM193.619 139.182V139.679H191.641V139.182H193.619ZM192.217 138.267H192.804V141.906C192.804 142.072 192.828 142.196 192.876 142.279C192.926 142.36 192.989 142.415 193.065 142.443C193.143 142.47 193.225 142.483 193.311 142.483C193.376 142.483 193.429 142.48 193.47 142.473C193.512 142.465 193.545 142.458 193.57 142.453L193.689 142.98C193.649 142.995 193.594 143.01 193.522 143.025C193.451 143.041 193.361 143.05 193.251 143.05C193.086 143.05 192.923 143.014 192.764 142.943C192.607 142.872 192.476 142.763 192.371 142.617C192.269 142.471 192.217 142.287 192.217 142.065V138.267ZM194.929 143.04C194.807 143.04 194.701 142.996 194.614 142.908C194.526 142.82 194.482 142.715 194.482 142.592C194.482 142.47 194.526 142.364 194.614 142.277C194.701 142.189 194.807 142.145 194.929 142.145C195.052 142.145 195.157 142.189 195.245 142.277C195.333 142.364 195.377 142.47 195.377 142.592C195.377 142.674 195.356 142.748 195.315 142.816C195.275 142.884 195.221 142.939 195.153 142.98C195.087 143.02 195.012 143.04 194.929 143.04Z" fill="#555555"/>
<path d="M64.6 116H59.8L48.68 100.84V116H44.96V86.4L55.92 86.48C58.0267 86.48 59.7467 87.28 61.08 88.88C62.44 90.48 63.12 92.3333 63.12 94.44C63.12 95.56 62.92 96.6 62.52 97.56C62.1467 98.52 61.52 99.4 60.64 100.2C59.6533 101 58.5733 101.573 57.4 101.92H53.48L64.6 116ZM56.48 89.92C56.1333 89.7867 55.76 89.68 55.36 89.6C54.9867 89.4933 54.64 89.44 54.32 89.44H48.68V99.36H55.28C56.56 99.36 57.5467 98.92 58.24 98.04C58.96 97.1333 59.32 96.04 59.32 94.76C59.32 93.6933 59.08 92.72 58.6 91.84C58.12 90.96 57.4133 90.32 56.48 89.92ZM105.08 86.4L105 106.56C105 108.32 104.507 110.013 103.52 111.64C102.533 113.24 101.253 114.453 99.68 115.28C97.4933 116.267 95.2267 116.76 92.88 116.76C90.5333 116.76 88.4267 116.24 86.56 115.2C84.6933 114.16 83.4533 112.947 82.84 111.56C82.2267 110.147 81.8267 109.08 81.64 108.36C81.48 107.64 81.4 106.987 81.4 106.4V86.4H84.96V106.4C85.1467 107.787 85.5467 109.04 86.16 110.16C86.7733 111.253 87.6533 112.08 88.8 112.64C90.2933 113.28 91.8 113.6 93.32 113.6C94.52 113.6 95.6267 113.413 96.64 113.04C97.6533 112.64 98.5067 112.04 99.2 111.24C99.92 110.44 100.467 109.653 100.84 108.88C101.24 108.08 101.44 107.253 101.44 106.4V106.08V86.4H105.08ZM146.24 116.64H145.52L123.92 92.88V116H120.6V85.68H121.44L142.84 109.44V86.4H146.24V116.64ZM180.64 116H164.56V86.4H180.64V89.6H168.2V98.36H180.64V101.4H168.12V112.8H180.64V116Z" fill="black"/>
<g clip-path="url(#clip0_15_2)">
<mask id="mask0_15_2" style="mask-type:luminance" maskUnits="userSpaceOnUse" x="89" y="20" width="42" height="42">
<path d="M131 20H89V62H131V20Z" fill="white"/>
</mask>
<g mask="url(#mask0_15_2)">
<path d="M129.445 21.5273H90.5557V59.7091H129.445V21.5273Z" fill="#EB1414"/>
<path d="M96.2839 52.8364V28.3007H99.4339L107.484 32.768V36.1356L104.614 40.9809L109.199 52.8364H105.839L101.289 40.8091L104.824 34.7954L99.4339 31.8058V52.8364H96.2839ZM117.738 52.8364V40.8778L111.823 37.4758L113.083 35.3109L117.738 38.0256V28.3007H120.888V39.8469L126.768 43.2489L125.543 45.3107L120.888 42.6647V52.8364H117.738Z" fill="white"/>
</g>
</g>
<defs>
<clipPath id="clip0_15_2">
<rect width="42" height="42" fill="white" transform="translate(89 20)"/>
</clipPath>
</defs>
</svg>
