<svg width="199" height="38" viewBox="0 0 199 38" fill="none" xmlns="http://www.w3.org/2000/svg">
<g clip-path="url(#clip0_15_37)">
<path d="M67.6 34H62.8L51.68 18.84V34H47.96V4.4L58.92 4.48C61.0267 4.48 62.7467 5.28 64.08 6.88C65.44 8.48 66.12 10.3333 66.12 12.44C66.12 13.56 65.92 14.6 65.52 15.56C65.1467 16.52 64.52 17.4 63.64 18.2C62.6533 19 61.5733 19.5733 60.4 19.92H56.48L67.6 34ZM59.48 7.92C59.1333 7.78667 58.76 7.68 58.36 7.6C57.9867 7.49333 57.64 7.44 57.32 7.44H51.68V17.36H58.28C59.56 17.36 60.5467 16.92 61.24 16.04C61.96 15.1333 62.32 14.04 62.32 12.76C62.32 11.6933 62.08 10.72 61.6 9.84C61.12 8.96 60.4133 8.32 59.48 7.92ZM108.08 4.4L108 24.56C108 26.32 107.507 28.0133 106.52 29.64C105.533 31.24 104.253 32.4533 102.68 33.28C100.493 34.2667 98.2267 34.76 95.88 34.76C93.5333 34.76 91.4267 34.24 89.56 33.2C87.6933 32.16 86.4533 30.9467 85.84 29.56C85.2267 28.1467 84.8267 27.08 84.64 26.36C84.48 25.64 84.4 24.9867 84.4 24.4V4.4H87.96V24.4C88.1467 25.7867 88.5467 27.04 89.16 28.16C89.7733 29.2533 90.6533 30.08 91.8 30.64C93.2933 31.28 94.8 31.6 96.32 31.6C97.52 31.6 98.6267 31.4133 99.64 31.04C100.653 30.64 101.507 30.04 102.2 29.24C102.92 28.44 103.467 27.6533 103.84 26.88C104.24 26.08 104.44 25.2533 104.44 24.4V24.08V4.4H108.08ZM149.24 34.64H148.52L126.92 10.88V34H123.6V3.68H124.44L145.84 27.44V4.4H149.24V34.64ZM183.64 34H167.56V4.4H183.64V7.6H171.2V16.36H183.64V19.4H171.12V30.8H183.64V34Z" fill="black"/>
<g clip-path="url(#clip1_15_37)">
<mask id="mask0_15_37" style="mask-type:luminance" maskUnits="userSpaceOnUse" x="3" y="1" width="34" height="36">
<path d="M37 1H3V37H37V1Z" fill="white"/>
</mask>
<g mask="url(#mask0_15_37)">
<path d="M35.7408 2.30908H4.25928V35.0364H35.7408V2.30908Z" fill="#EB1414"/>
<path d="M8.89648 29.1454V8.11487H11.4465L17.9632 11.944V14.8305L15.6398 18.9836L19.3515 29.1454H16.6315L12.9482 18.8363L15.8098 13.6818L11.4465 11.1192V29.1454H8.89648ZM26.2641 29.1454V18.8952L21.4758 15.9792L22.4958 14.1236L26.2641 16.4505V8.11487H28.8141V18.0116L33.5741 20.9276L32.5825 22.6949L28.8141 20.4269V29.1454H26.2641Z" fill="white"/>
</g>
</g>
</g>
<defs>
<clipPath id="clip0_15_37">
<rect width="199" height="38" fill="white"/>
</clipPath>
<clipPath id="clip1_15_37">
<rect width="34" height="36" fill="white" transform="translate(3 1)"/>
</clipPath>
</defs>
</svg>
