<svg width="142" height="38" viewBox="0 0 142 38" fill="none" xmlns="http://www.w3.org/2000/svg">
<g clip-path="url(#clip0_15_34)">
<path d="M22.6 34H17.8L6.68 18.84V34H2.96V4.4L13.92 4.48C16.0267 4.48 17.7467 5.28 19.08 6.88C20.44 8.48 21.12 10.3333 21.12 12.44C21.12 13.56 20.92 14.6 20.52 15.56C20.1467 16.52 19.52 17.4 18.64 18.2C17.6533 19 16.5733 19.5733 15.4 19.92H11.48L22.6 34ZM14.48 7.92C14.1333 7.78667 13.76 7.68 13.36 7.6C12.9867 7.49333 12.64 7.44 12.32 7.44H6.68V17.36H13.28C14.56 17.36 15.5467 16.92 16.24 16.04C16.96 15.1333 17.32 14.04 17.32 12.76C17.32 11.6933 17.08 10.72 16.6 9.84C16.12 8.96 15.4133 8.32 14.48 7.92ZM63.08 4.4L63 24.56C63 26.32 62.5067 28.0133 61.52 29.64C60.5333 31.24 59.2533 32.4533 57.68 33.28C55.4933 34.2667 53.2267 34.76 50.88 34.76C48.5333 34.76 46.4267 34.24 44.56 33.2C42.6933 32.16 41.4533 30.9467 40.84 29.56C40.2267 28.1467 39.8267 27.08 39.64 26.36C39.48 25.64 39.4 24.9867 39.4 24.4V4.4H42.96V24.4C43.1467 25.7867 43.5467 27.04 44.16 28.16C44.7733 29.2533 45.6533 30.08 46.8 30.64C48.2933 31.28 49.8 31.6 51.32 31.6C52.52 31.6 53.6267 31.4133 54.64 31.04C55.6533 30.64 56.5067 30.04 57.2 29.24C57.92 28.44 58.4667 27.6533 58.84 26.88C59.24 26.08 59.44 25.2533 59.44 24.4V24.08V4.4H63.08ZM104.24 34.64H103.52L81.92 10.88V34H78.6V3.68H79.44L100.84 27.44V4.4H104.24V34.64ZM138.64 34H122.56V4.4H138.64V7.6H126.2V16.36H138.64V19.4H126.12V30.8H138.64V34Z" fill="black"/>
</g>
<defs>
<clipPath id="clip0_15_34">
<rect width="142" height="38" fill="white"/>
</clipPath>
</defs>
</svg>
