<svg width="225" height="121" viewBox="0 0 225 121" fill="none" xmlns="http://www.w3.org/2000/svg">
<mask id="mask0_22_124" style="mask-type:luminance" maskUnits="userSpaceOnUse" x="39" y="48" width="142" height="38">
<path d="M181 48H39V86H181V48Z" fill="white"/>
</mask>
<g mask="url(#mask0_22_124)">
<path d="M69.7656 77.25C69.7396 77.6406 69.8177 77.9401 70 78.1484C70.2083 78.3307 70.3776 78.5651 70.5078 78.8516C70.4557 79.2161 70.4948 79.5026 70.625 79.7109C70.5469 79.8672 70.4688 80.0495 70.3906 80.2578C70.3125 80.4401 70.1953 80.5964 70.0391 80.7266C69.6224 80.9089 69.375 81.0651 69.2969 81.1953C69.2188 81.3255 69.0625 81.3906 68.8281 81.3906C68.6979 81.5208 68.5547 81.651 68.3984 81.7812C68.2422 81.9375 68.099 82.0807 67.9688 82.2109C67.8385 82.1589 67.7474 82.0938 67.6953 82.0156C67.6432 81.9375 67.5651 81.8333 67.4609 81.7031C67.2005 81.625 66.9661 81.4818 66.7578 81.2734C66.5495 81.0911 66.3672 80.8828 66.2109 80.6484C66.0547 80.388 65.8984 80.1276 65.7422 79.8672C65.612 79.5807 65.4948 79.3203 65.3906 79.0859C65.026 78.4089 64.6484 77.7318 64.2578 77.0547C63.8932 76.3516 63.5156 75.6615 63.125 74.9844C62.9167 74.6458 62.7083 74.3073 62.5 73.9688C62.3177 73.6042 62.1224 73.2396 61.9141 72.875C61.862 72.8229 61.8099 72.7708 61.7578 72.7188C61.7057 72.6406 61.6536 72.5625 61.6016 72.4844C61.4193 72.224 61.276 71.9375 61.1719 71.625C61.0938 71.2865 60.9115 71.013 60.625 70.8047C60.1302 70.7526 59.6745 70.8307 59.2578 71.0391C58.8672 71.2214 58.5156 71.4688 58.2031 71.7812C58.2292 71.9635 58.2422 72.1328 58.2422 72.2891C58.2422 72.4453 58.2422 72.6016 58.2422 72.7578C58.2422 73.3568 58.2161 73.9297 58.1641 74.4766C58.112 75.0234 58.0859 75.5964 58.0859 76.1953C58.0859 76.4557 58.099 76.7292 58.125 77.0156C58.151 77.276 58.1901 77.5365 58.2422 77.7969C58.1641 78.0833 58.125 78.3958 58.125 78.7344C58.125 78.9167 58.138 79.0859 58.1641 79.2422C58.2161 79.3984 58.2422 79.5677 58.2422 79.75C58.2422 80.0104 58.151 80.1927 57.9688 80.2969C57.8125 80.375 57.7604 80.5312 57.8125 80.7656C57.5 80.8958 57.2005 81.026 56.9141 81.1562C56.6276 81.2865 56.3281 81.3776 56.0156 81.4297C55.8854 81.4557 55.7552 81.4557 55.625 81.4297C55.4948 81.4297 55.3776 81.4557 55.2734 81.5078C55.1432 81.5599 55.0391 81.651 54.9609 81.7812C54.8828 81.9375 54.7786 82.0156 54.6484 82.0156C54.4922 82.0156 54.401 81.9505 54.375 81.8203C54.349 81.7161 54.2969 81.625 54.2188 81.5469C54.0885 81.4948 53.9844 81.4688 53.9062 81.4688C53.8281 81.4688 53.75 81.4297 53.6719 81.3516C53.6979 81.1172 53.6458 80.9479 53.5156 80.8438C53.3854 80.7135 53.3203 80.4661 53.3203 80.1016C53.3203 79.8151 53.3333 79.5417 53.3594 79.2812C53.4115 79.0208 53.4375 78.7474 53.4375 78.4609C53.4375 78.2266 53.3984 78.0182 53.3203 77.8359C53.2682 77.6276 53.2161 77.4062 53.1641 77.1719C53.138 77.0677 53.138 76.9635 53.1641 76.8594C53.1901 76.7552 53.2031 76.651 53.2031 76.5469C53.2031 76.0781 53.1771 75.6094 53.125 75.1406C53.099 74.6458 53.0859 74.1641 53.0859 73.6953C53.0859 73.513 53.0859 73.3438 53.0859 73.1875C53.0859 73.0312 53.099 72.875 53.125 72.7188C53.1771 72.5625 53.2161 72.4323 53.2422 72.3281C53.2943 72.224 53.3203 72.0938 53.3203 71.9375C53.3203 71.4427 53.2682 70.9609 53.1641 70.4922C53.0599 69.9974 53.0078 69.5156 53.0078 69.0469C53.0078 68.7865 53.0078 68.526 53.0078 68.2656C53.0339 67.9792 53.0469 67.7057 53.0469 67.4453C53.0469 66.6901 53.0339 65.9479 53.0078 65.2188C52.9818 64.4896 52.9688 63.7604 52.9688 63.0312C52.9688 62.5104 52.9818 62.0026 53.0078 61.5078C53.0339 60.987 53.0469 60.4661 53.0469 59.9453C53.0469 59.2943 53.0208 58.6562 52.9688 58.0312C52.9167 57.3802 52.8906 56.7161 52.8906 56.0391C52.8906 55.8047 52.8776 55.6484 52.8516 55.5703C52.8255 55.4922 52.7865 55.4531 52.7344 55.4531C52.6823 55.4271 52.6172 55.4141 52.5391 55.4141C52.487 55.388 52.4349 55.3359 52.3828 55.2578C52.3828 55.1016 52.4479 54.9974 52.5781 54.9453C52.7083 54.8672 52.7734 54.6458 52.7734 54.2812C52.7734 54.0729 52.7474 53.8646 52.6953 53.6562C52.6693 53.4479 52.6562 53.2396 52.6562 53.0312C52.6562 52.7188 52.7214 52.4062 52.8516 52.0938C52.9818 51.7812 53.099 51.4818 53.2031 51.1953C53.5156 51.1693 53.724 51.1693 53.8281 51.1953C53.9583 51.2214 54.0885 51.2083 54.2188 51.1562C54.2969 51.4427 54.4661 51.599 54.7266 51.625C54.987 51.625 55.2214 51.651 55.4297 51.7031C55.6641 51.7292 55.8854 51.7943 56.0938 51.8984C56.3281 51.9766 56.5495 52.0156 56.7578 52.0156C56.8099 52.1719 56.9141 52.2891 57.0703 52.3672C57.2526 52.4193 57.4349 52.4713 57.6172 52.5234C57.8255 52.4974 57.9818 52.4062 58.0859 52.25C58.2161 52.0938 58.3854 52.0156 58.5938 52.0156C58.75 52.0156 58.9323 52.1328 59.1406 52.3672C59.349 52.5755 59.5052 52.7448 59.6094 52.875C59.7135 52.9531 59.9089 53.1224 60.1953 53.3828C60.4818 53.6432 60.7943 53.9167 61.1328 54.2031C61.4714 54.4635 61.7839 54.724 62.0703 54.9844C62.3568 55.2187 62.5391 55.349 62.6172 55.375C63.6849 56.4427 64.6745 57.4193 65.5859 58.3047C66.5234 59.1641 67.5391 59.9453 68.6328 60.6484C68.6589 60.7266 68.6849 60.7917 68.7109 60.8438C68.763 60.8958 68.8151 60.9609 68.8672 61.0391C68.8672 61.2474 68.8281 61.4036 68.75 61.5078C68.6719 61.612 68.6328 61.7422 68.6328 61.8984C68.6328 61.9766 68.6458 62.0547 68.6719 62.1328C68.724 62.2109 68.75 62.2891 68.75 62.3672C68.776 62.4714 68.776 62.5755 68.75 62.6797C68.75 62.7578 68.75 62.849 68.75 62.9531C68.75 63.2135 68.8281 63.4479 68.9844 63.6562C69.1667 63.8646 69.2578 64.099 69.2578 64.3594C69.2057 64.5938 69.1016 64.737 68.9453 64.7891C68.7891 64.8411 68.6589 64.9062 68.5547 64.9844C68.5026 65.0365 68.4505 65.1016 68.3984 65.1797C68.3724 65.2578 68.3333 65.3229 68.2812 65.375C67.7083 65.6354 67.2917 65.8828 67.0312 66.1172C66.7708 66.3255 66.4974 66.5339 66.2109 66.7422C66.1328 66.7943 66.0026 66.8854 65.8203 67.0156C65.638 67.1198 65.4557 67.237 65.2734 67.3672C65.0911 67.4714 64.9219 67.5885 64.7656 67.7188C64.6354 67.849 64.5703 67.9531 64.5703 68.0312C64.5703 68.2135 64.6745 68.474 64.8828 68.8125C65.1172 69.125 65.2865 69.3724 65.3906 69.5547C65.6771 70.0234 65.9375 70.4922 66.1719 70.9609C66.4062 71.4036 66.6667 71.8464 66.9531 72.2891C67.474 73.0964 67.9557 73.9167 68.3984 74.75C68.8672 75.5833 69.3229 76.4167 69.7656 77.25ZM63.3984 62.7188C62.7995 61.9635 62.1484 61.2865 61.4453 60.6875C60.7682 60.0625 60.1172 59.4115 59.4922 58.7344L59.0625 58.6562C58.9062 58.3958 58.724 58.1745 58.5156 57.9922C58.3333 57.7839 58.138 57.5755 57.9297 57.3672C57.9557 57.6537 57.9688 57.9271 57.9688 58.1875C57.9688 58.4479 57.9688 58.7214 57.9688 59.0078C57.9688 59.8411 57.9427 60.6615 57.8906 61.4688C57.8646 62.25 57.8516 63.0443 57.8516 63.8516C57.8516 64.6589 57.8906 65.4271 57.9688 66.1562C58.5156 66.1562 59.0104 66 59.4531 65.6875C59.6354 65.5573 59.8047 65.4271 59.9609 65.2969C60.1172 65.1406 60.2865 64.9974 60.4688 64.8672C60.6771 64.737 60.9115 64.5807 61.1719 64.3984C61.4583 64.2161 61.7318 64.0339 61.9922 63.8516C62.2786 63.6693 62.5391 63.487 62.7734 63.3047C63.0339 63.0964 63.2422 62.901 63.3984 62.7188ZM102.813 76.3125C102.552 76.3385 102.396 76.3255 102.344 76.2734C102.24 76.3255 102.135 76.3776 102.031 76.4297C101.953 76.4818 101.862 76.5469 101.758 76.625C101.393 76.7552 101.029 76.9245 100.664 77.1328C100.326 77.3411 99.974 77.5365 99.6094 77.7188C99.401 77.8229 99.1927 77.9141 98.9844 77.9922C98.8021 78.0443 98.6068 78.1224 98.3984 78.2266C98.0859 78.3828 97.7734 78.5521 97.4609 78.7344C97.1484 78.8906 96.8229 79.0339 96.4844 79.1641C96.3021 79.2161 96.1198 79.2682 95.9375 79.3203C95.7812 79.3724 95.612 79.4245 95.4297 79.4766C95.2214 79.5547 95.026 79.6458 94.8438 79.75C94.6875 79.8281 94.5182 79.9062 94.3359 79.9844C94.2057 80.0365 94.0625 80.0885 93.9062 80.1406C93.776 80.1667 93.6328 80.2188 93.4766 80.2969C93.3464 80.349 93.2292 80.4141 93.125 80.4922C93.0469 80.5703 92.9427 80.6354 92.8125 80.6875C92.6042 80.7656 92.3828 80.8438 92.1484 80.9219C91.9401 81 91.7318 81.0911 91.5234 81.1953C91.3151 81.2995 91.1589 81.3906 91.0547 81.4688C90.9766 81.5729 90.8073 81.6641 90.5469 81.7422C90.2865 81.8984 90.1432 81.9766 90.1172 81.9766C90.0911 82.0026 90.0521 82.0156 90 82.0156C89.9219 82.0677 89.8438 82.1068 89.7656 82.1328C89.7135 82.1849 89.6484 82.237 89.5703 82.2891C89.4141 82.2891 89.2578 82.3021 89.1016 82.3281C88.9453 82.3542 88.7891 82.3672 88.6328 82.3672C88.4505 82.263 88.3203 82.1589 88.2422 82.0547C88.1901 81.9505 88.1641 81.8073 88.1641 81.625C88.0599 81.4948 87.9557 81.3516 87.8516 81.1953C87.7734 81.0391 87.6823 80.8958 87.5781 80.7656C87.3958 80.8698 87.2786 80.8698 87.2266 80.7656C87.2005 80.6354 87.1745 80.5052 87.1484 80.375C87.1224 80.2188 87.0964 80.0755 87.0703 79.9453C87.0443 79.7891 87.0182 79.6849 86.9922 79.6328C86.862 79.138 86.7969 78.7734 86.7969 78.5391C86.7969 78.4089 86.8229 78.3307 86.875 78.3047C86.9271 78.2526 86.9531 78.1875 86.9531 78.1094C86.9792 77.849 87.0052 77.5495 87.0312 77.2109C87.0573 76.8724 87.0703 76.5208 87.0703 76.1562C87.0703 75.7917 87.0703 75.4271 87.0703 75.0625C87.0703 74.6979 87.0703 74.3724 87.0703 74.0859C87.0703 72.9141 87.0573 71.7812 87.0312 70.6875C87.0052 69.5677 86.9922 68.4479 86.9922 67.3281C86.9922 66.8073 87.0052 66.2865 87.0312 65.7656C87.0573 65.2448 87.0703 64.724 87.0703 64.2031C87.0703 62.9271 87.0833 61.6641 87.1094 60.4141C87.1615 59.1641 87.1875 57.901 87.1875 56.625C87.1875 56.1042 87.1615 55.5833 87.1094 55.0625C87.0573 54.5156 87.0182 53.9687 86.9922 53.4219C86.9661 53.1354 86.9792 52.9141 87.0312 52.7578C87.0833 52.5755 87.0964 52.3932 87.0703 52.2109C87.1484 52.1849 87.2917 52.1719 87.5 52.1719C87.7083 52.1719 87.9167 52.1719 88.125 52.1719C88.3594 52.1458 88.5677 52.1328 88.75 52.1328C88.9583 52.1068 89.0885 52.0807 89.1406 52.0547C89.3229 52.1849 89.5052 52.25 89.6875 52.25C89.8698 52.25 90.0391 52.1719 90.1953 52.0156C90.3255 52.0677 90.3906 52.1068 90.3906 52.1328C90.4167 52.1589 90.4948 52.1719 90.625 52.1719C90.8594 52.1458 91.0417 52.1328 91.1719 52.1328C91.3021 52.1068 91.4193 52.0938 91.5234 52.0938C91.8099 52.3021 91.9792 52.5625 92.0312 52.875C92.1094 53.1615 92.1615 53.474 92.1875 53.8125C92.2135 54.125 92.2266 54.4505 92.2266 54.7891C92.2526 55.1016 92.2656 55.362 92.2656 55.5703C92.2656 55.7266 92.2786 55.8958 92.3047 56.0781C92.3307 56.2344 92.3438 56.4037 92.3438 56.5859C92.3438 56.7162 92.3307 56.8463 92.3047 56.9766C92.3047 57.1068 92.3047 57.237 92.3047 57.3672C92.3047 58.1224 92.3047 58.8906 92.3047 59.6719C92.3307 60.4531 92.3438 61.2214 92.3438 61.9766C92.3438 63.3307 92.3177 64.6979 92.2656 66.0781C92.2396 67.4323 92.2266 68.7865 92.2266 70.1406C92.2266 70.4271 92.2396 70.7135 92.2656 71C92.2917 71.2865 92.3047 71.5729 92.3047 71.8594C92.3047 72.0156 92.2917 72.1719 92.2656 72.3281C92.2656 72.4844 92.2656 72.6406 92.2656 72.7969C92.2656 73.7604 92.3047 74.724 92.3828 75.6875C92.487 75.6615 92.7083 75.5964 93.0469 75.4922C93.3854 75.362 93.737 75.2318 94.1016 75.1016C94.4661 74.9453 94.8047 74.8021 95.1172 74.6719C95.4297 74.5156 95.625 74.3984 95.7031 74.3203C95.8073 74.3203 95.9505 74.2812 96.1328 74.2031C96.3151 74.125 96.5104 74.0339 96.7188 73.9297C96.9271 73.7995 97.1224 73.6823 97.3047 73.5781C97.513 73.474 97.6562 73.3828 97.7344 73.3047C97.7083 72.7839 97.6953 72.263 97.6953 71.7422C97.6953 71.1953 97.6953 70.6615 97.6953 70.1406C97.6953 68.7083 97.7083 67.276 97.7344 65.8438C97.7865 64.4115 97.8125 62.9531 97.8125 61.4688C97.8125 60.5573 97.7995 59.6458 97.7734 58.7344C97.7474 57.8229 97.7344 56.9115 97.7344 56C97.7344 55.7135 97.7344 55.4271 97.7344 55.1406C97.7604 54.8281 97.7734 54.5286 97.7734 54.2422C97.7734 53.7995 97.7604 53.3698 97.7344 52.9531C97.7344 52.5104 97.7604 52.0677 97.8125 51.625C98.0729 51.4948 98.2161 51.4297 98.2422 51.4297C98.3984 51.4297 98.5026 51.4297 98.5547 51.4297C98.6328 51.4297 98.6979 51.4557 98.75 51.5078C98.8281 51.5339 98.8932 51.5469 98.9453 51.5469C99.0234 51.5208 99.1016 51.5078 99.1797 51.5078C99.3099 51.5078 99.4401 51.5338 99.5703 51.5859C99.7005 51.638 99.8307 51.6641 99.9609 51.6641C100.169 51.638 100.273 51.6641 100.273 51.7422C100.3 51.8203 100.352 51.8594 100.43 51.8594C100.638 51.7813 100.781 51.7813 100.859 51.8594C100.938 51.9115 101.081 51.9896 101.289 52.0938C101.497 52.1719 101.719 52.263 101.953 52.3672C102.188 52.4713 102.396 52.5755 102.578 52.6797C102.76 52.7578 102.852 52.8359 102.852 52.9141C102.93 53.3307 102.956 53.7734 102.93 54.2422C102.904 54.7109 102.891 55.1537 102.891 55.5703C102.891 55.9349 102.904 56.2995 102.93 56.6641C102.956 57.0286 102.969 57.3932 102.969 57.7578C102.969 57.9661 102.969 58.1745 102.969 58.3828C102.969 58.5911 102.982 58.7865 103.008 58.9688C103.034 59.099 103.047 59.2161 103.047 59.3203C103.047 59.3984 103.047 59.4896 103.047 59.5938C103.047 59.724 103.073 59.8932 103.125 60.1016C103.099 60.2318 103.086 60.375 103.086 60.5312C103.086 60.6615 103.086 60.7917 103.086 60.9219C103.086 61.2865 103.099 61.6641 103.125 62.0547C103.151 62.4453 103.164 62.8359 103.164 63.2266C103.164 63.487 103.138 63.7344 103.086 63.9688C103.06 64.2031 103.047 64.4375 103.047 64.6719L103.086 65.4141C103.086 65.6745 103.099 65.9349 103.125 66.1953C103.151 66.4557 103.164 66.7292 103.164 67.0156C103.164 67.1458 103.151 67.276 103.125 67.4062C103.125 67.5365 103.112 67.6667 103.086 67.7969C103.06 67.9271 103.047 68.0703 103.047 68.2266C103.047 68.3828 103.047 68.526 103.047 68.6562C103.047 69.0208 103.06 69.3854 103.086 69.75C103.112 70.1146 103.125 70.4792 103.125 70.8438C103.125 71.0781 103.112 71.3125 103.086 71.5469C103.086 71.7552 103.086 71.9766 103.086 72.2109C103.086 72.6797 103.099 73.1615 103.125 73.6562C103.177 74.151 103.203 74.6328 103.203 75.1016C103.203 75.3099 103.177 75.5312 103.125 75.7656C103.073 76 102.969 76.1823 102.813 76.3125ZM134.805 51.8594C135.221 51.8073 135.534 51.8464 135.742 51.9766C135.977 52.0807 136.211 52.1458 136.445 52.1719C136.576 52.1979 136.706 52.2109 136.836 52.2109C136.992 52.1849 137.148 52.1719 137.305 52.1719C137.643 52.1719 137.904 52.2109 138.086 52.2891C138.294 52.3672 138.503 52.5365 138.711 52.7969C138.763 52.849 138.828 52.9271 138.906 53.0312C139.01 53.1094 139.062 53.1875 139.062 53.2656C139.062 53.474 139.01 53.6562 138.906 53.8125C138.802 53.9688 138.75 54.1901 138.75 54.4766C138.75 54.9193 138.802 55.362 138.906 55.8047C139.01 56.2213 139.076 56.651 139.102 57.0938C139.232 58.7083 139.297 60.3359 139.297 61.9766C139.323 63.5911 139.336 65.1927 139.336 66.7812C139.336 66.9896 139.323 67.1849 139.297 67.3672C139.297 67.5234 139.245 67.6667 139.141 67.7969V68.3047C139.115 68.9818 139.128 69.6719 139.18 70.375C139.232 71.0521 139.258 71.7292 139.258 72.4062C139.258 73.0052 139.219 73.6042 139.141 74.2031C139.089 74.8021 139.062 75.4141 139.062 76.0391C139.062 76.612 139.102 77.1719 139.18 77.7188C139.258 78.2656 139.297 78.8255 139.297 79.3984C139.167 79.6328 139.089 79.8151 139.062 79.9453C139.036 80.0755 138.984 80.1927 138.906 80.2969C138.828 80.349 138.737 80.362 138.633 80.3359C138.555 80.3099 138.49 80.3359 138.438 80.4141C138.307 80.5703 138.216 80.7526 138.164 80.9609C138.112 81.1693 137.982 81.3385 137.773 81.4688C137.721 81.8333 137.578 82.1068 137.344 82.2891C137.135 82.4974 136.979 82.7578 136.875 83.0703C136.563 83.0964 136.341 83.0833 136.211 83.0312C136.107 82.9792 135.99 82.9271 135.859 82.875C135.833 82.4323 135.833 82.1068 135.859 81.8984C135.912 81.7161 135.938 81.5208 135.938 81.3125C135.938 81.0521 135.872 80.8568 135.742 80.7266C135.612 80.5964 135.521 80.4271 135.469 80.2188C135.182 80.0365 134.987 79.9193 134.883 79.8672C134.779 79.7891 134.688 79.6979 134.609 79.5938C134.453 79.3854 134.323 79.1641 134.219 78.9297C134.115 78.6953 133.997 78.474 133.867 78.2656C133.503 77.6667 133.125 77.0547 132.734 76.4297C132.37 75.8047 131.966 75.1927 131.523 74.5938C131.445 74.4635 131.354 74.3464 131.25 74.2422C131.146 74.138 131.055 74.0208 130.977 73.8906C130.534 73.1875 130.117 72.4714 129.727 71.7422C129.336 71.013 128.88 70.3229 128.359 69.6719C128.151 69.4115 127.995 69.125 127.891 68.8125C127.787 68.474 127.63 68.1875 127.422 67.9531C127.396 68.0833 127.383 68.2266 127.383 68.3828C127.383 68.5391 127.383 68.6823 127.383 68.8125C127.383 69.6979 127.396 70.5833 127.422 71.4688C127.474 72.3281 127.5 73.2005 127.5 74.0859C127.5 74.2682 127.474 74.4375 127.422 74.5938C127.396 74.724 127.383 74.8802 127.383 75.0625C127.383 75.3229 127.396 75.5703 127.422 75.8047C127.448 76.0391 127.461 76.2734 127.461 76.5078C127.461 76.7943 127.448 77.0677 127.422 77.3281C127.422 77.5885 127.409 77.849 127.383 78.1094C127.331 78.4479 127.266 78.7734 127.188 79.0859C127.109 79.3724 127.07 79.6719 127.07 79.9844C127.07 80.1667 127.083 80.3359 127.109 80.4922C127.162 80.6484 127.188 80.7917 127.188 80.9219C127.005 81.2083 126.771 81.3516 126.484 81.3516C126.224 81.3516 126.003 81.4557 125.82 81.6641C125.664 81.638 125.534 81.651 125.43 81.7031C125.352 81.7552 125.273 81.7812 125.195 81.7812C125.091 81.7812 125 81.7682 124.922 81.7422C124.87 81.7161 124.805 81.7031 124.727 81.7031C124.596 81.7031 124.466 81.7682 124.336 81.8984C124.206 82.0286 124.076 82.0938 123.945 82.0938C123.867 82.0938 123.724 82.0417 123.516 81.9375C123.333 81.8333 123.125 81.7031 122.891 81.5469C122.682 81.4167 122.487 81.2734 122.305 81.1172C122.122 80.987 122.031 80.8828 122.031 80.8047C122.005 80.6745 121.992 80.4922 121.992 80.2578C121.992 79.9453 122.005 79.6458 122.031 79.3594C122.083 79.0469 122.135 78.7344 122.188 78.4219C122.266 77.5365 122.305 76.6641 122.305 75.8047C122.305 74.9193 122.305 74.0339 122.305 73.1484C122.305 72.7839 122.305 72.4193 122.305 72.0547C122.331 71.6901 122.344 71.3255 122.344 70.9609C122.344 70.1016 122.305 69.2422 122.227 68.3828C122.175 67.4974 122.148 66.625 122.148 65.7656C122.148 65.1667 122.175 64.5807 122.227 64.0078C122.279 63.4089 122.305 62.8229 122.305 62.25C122.305 61.8073 122.292 61.3776 122.266 60.9609C122.24 60.5443 122.227 60.1146 122.227 59.6719C122.201 59.3854 122.201 59.0859 122.227 58.7734C122.253 58.4349 122.266 58.1224 122.266 57.8359C122.266 57.4974 122.214 57.1849 122.109 56.8984C122.031 56.5859 121.992 56.2995 121.992 56.0391C121.992 55.8828 122.018 55.7396 122.07 55.6094C122.148 55.4531 122.188 55.2969 122.188 55.1406C122.188 54.9323 122.148 54.724 122.07 54.5156C122.018 54.3073 121.992 54.099 121.992 53.8906C121.992 53.6823 122.018 53.487 122.07 53.3047C122.122 53.1224 122.148 52.9271 122.148 52.7188C122.513 52.5365 122.839 52.4453 123.125 52.4453C123.412 52.4453 123.62 52.5495 123.75 52.7578C123.75 53.2266 123.776 53.5912 123.828 53.8516C123.88 54.0859 123.919 54.3333 123.945 54.5938C123.945 54.75 123.932 54.9323 123.906 55.1406C123.906 55.349 123.919 55.5573 123.945 55.7656C123.971 55.9479 124.023 56.1042 124.102 56.2344C124.206 56.3646 124.375 56.4297 124.609 56.4297C124.662 56.5599 124.727 56.6771 124.805 56.7812C124.883 56.8854 124.935 57.0156 124.961 57.1719C125.117 57.0677 125.208 56.9245 125.234 56.7422C125.26 56.5599 125.26 56.3906 125.234 56.2344C125.365 56.2865 125.482 56.3125 125.586 56.3125C125.69 56.2865 125.794 56.2995 125.898 56.3516C125.951 56.7161 126.016 57.0417 126.094 57.3281C126.172 57.5885 126.198 57.901 126.172 58.2656C126.693 58.6562 127.135 59.2161 127.5 59.9453C127.891 60.6484 128.255 61.2865 128.594 61.8594C128.776 62.1458 128.984 62.4193 129.219 62.6797C129.479 62.9141 129.675 63.2005 129.805 63.5391C130.013 63.6693 130.182 63.8385 130.313 64.0469C130.443 64.2552 130.56 64.4635 130.664 64.6719C131.185 65.5833 131.758 66.4688 132.383 67.3281C133.008 68.1875 133.659 69.0339 134.336 69.8672C134.362 69.6849 134.375 69.5156 134.375 69.3594C134.375 69.1771 134.375 68.9948 134.375 68.8125L134.336 65.2969C134.336 65.0885 134.323 64.8932 134.297 64.7109C134.297 64.5286 134.284 64.3333 134.258 64.125C134.206 63.4479 134.193 62.7839 134.219 62.1328C134.245 61.4818 134.245 60.8177 134.219 60.1406C134.167 59.4375 134.128 58.7214 134.102 57.9922C134.102 57.263 134.076 56.5338 134.023 55.8047C133.997 55.362 133.971 54.9193 133.945 54.4766C133.919 54.0339 133.906 53.5911 133.906 53.1484C133.906 52.6016 133.958 52.1068 134.063 51.6641C134.115 51.612 134.167 51.5729 134.219 51.5469C134.297 51.4948 134.388 51.4688 134.492 51.4688C134.648 51.4688 134.753 51.599 134.805 51.8594ZM163.828 70.7656C163.88 70.8958 164.062 71.1693 164.375 71.5859C164.714 72.0026 165.091 72.4583 165.508 72.9531C165.924 73.4479 166.315 73.9297 166.68 74.3984C167.07 74.8411 167.344 75.1667 167.5 75.375C167.786 75.7396 168.06 76.1042 168.32 76.4688C168.607 76.8073 168.867 77.1719 169.102 77.5625L169.805 78.7344C170.013 78.9948 170.195 79.2161 170.352 79.3984C170.534 79.5807 170.677 79.8281 170.781 80.1406C170.833 80.349 170.859 80.4922 170.859 80.5703C170.859 80.7526 170.794 80.8828 170.664 80.9609C170.456 80.9609 170.339 80.987 170.312 81.0391C170.312 81.1172 170.26 81.1823 170.156 81.2344C170.052 81.2865 169.883 81.3125 169.648 81.3125C169.44 81.3385 169.271 81.3516 169.141 81.3516C168.906 81.3516 168.607 81.3385 168.242 81.3125C167.904 81.3125 167.63 81.3516 167.422 81.4297C167.37 81.4557 167.292 81.4948 167.188 81.5469C167.083 81.599 167.005 81.625 166.953 81.625C166.745 81.625 166.589 81.5859 166.484 81.5078C166.406 81.4557 166.289 81.4167 166.133 81.3906C165.924 81.1562 165.742 80.9219 165.586 80.6875C165.456 80.4271 165.299 80.1667 165.117 79.9062C164.935 79.724 164.753 79.5677 164.57 79.4375C164.388 79.2812 164.232 79.112 164.102 78.9297C163.711 78.3568 163.307 77.7969 162.891 77.25C162.474 76.7031 162.044 76.1693 161.602 75.6484C161.393 75.362 161.172 75.1016 160.938 74.8672C160.703 74.6328 160.482 74.3724 160.273 74.0859C160.065 73.8255 159.87 73.5521 159.688 73.2656C159.505 72.9531 159.323 72.6536 159.141 72.3672C158.984 72.1328 158.776 71.8333 158.516 71.4688C158.255 71.0781 157.969 70.7005 157.656 70.3359C157.344 69.9453 157.031 69.5807 156.719 69.2422C156.406 68.9036 156.146 68.6432 155.938 68.4609C155.911 68.3047 155.846 68.1875 155.742 68.1094C155.638 68.0052 155.521 67.9141 155.391 67.8359C155.339 67.7057 155.286 67.5885 155.234 67.4844C155.156 67.3542 155.117 67.224 155.117 67.0938C155.117 66.9115 155.156 66.7422 155.234 66.5859C155.286 66.4818 155.326 66.3906 155.352 66.3125C155.352 66.2083 155.378 66.1042 155.43 66C155.56 65.7135 155.729 65.4401 155.938 65.1797C156.172 64.8932 156.354 64.5938 156.484 64.2812C156.536 64.2031 156.562 64.125 156.562 64.0469C156.562 63.9427 156.589 63.8516 156.641 63.7734C156.693 63.5651 156.797 63.3958 156.953 63.2656C157.135 63.1094 157.279 62.9401 157.383 62.7578C157.513 62.5495 157.63 62.3411 157.734 62.1328C157.865 61.8984 157.995 61.651 158.125 61.3906C158.516 60.7396 158.919 60.1146 159.336 59.5156C159.779 58.8906 160.221 58.2656 160.664 57.6406C161.003 57.1198 161.328 56.625 161.641 56.1562C161.979 55.6615 162.318 55.1667 162.656 54.6719C162.839 54.4375 163.034 54.1641 163.242 53.8516C163.451 53.5391 163.672 53.2266 163.906 52.9141C164.167 52.6016 164.427 52.3151 164.688 52.0547C164.948 51.7943 165.208 51.5859 165.469 51.4297C165.859 51.4036 166.12 51.4948 166.25 51.7031C166.38 51.8854 166.576 51.9766 166.836 51.9766C167.174 52.0547 167.396 52.1589 167.5 52.2891C167.604 52.4193 167.721 52.5495 167.852 52.6797C168.216 52.6797 168.503 52.7448 168.711 52.875C168.945 53.0052 169.167 53.2005 169.375 53.4609C169.297 53.7474 169.18 54.0078 169.023 54.2422C168.867 54.4505 168.724 54.6719 168.594 54.9062C168.385 55.0104 168.229 55.1536 168.125 55.3359C168.047 55.5182 167.917 55.6615 167.734 55.7656C167.474 56.2083 167.201 56.638 166.914 57.0547C166.628 57.4453 166.341 57.8359 166.055 58.2266C165.898 58.4609 165.729 58.6693 165.547 58.8516C165.391 59.0339 165.247 59.2292 165.117 59.4375C165.065 59.5156 165.013 59.6068 164.961 59.7109C164.935 59.7891 164.896 59.8672 164.844 59.9453C164.531 60.4401 164.193 60.9089 163.828 61.3516C163.464 61.7682 163.125 62.237 162.812 62.7578C162.708 62.9401 162.617 63.1354 162.539 63.3438C162.487 63.526 162.409 63.7083 162.305 63.8906C162.201 64.0469 162.044 64.2552 161.836 64.5156C161.654 64.776 161.471 65.0625 161.289 65.375C161.107 65.6615 160.938 65.9479 160.781 66.2344C160.651 66.4948 160.586 66.7161 160.586 66.8984C160.612 67.0286 160.768 67.2891 161.055 67.6797C161.367 68.0443 161.706 68.4479 162.07 68.8906C162.461 69.3073 162.826 69.7109 163.164 70.1016C163.503 70.4661 163.724 70.6875 163.828 70.7656ZM166.406 63.6562C166.589 64.0469 166.784 64.3854 166.992 64.6719C167.07 64.776 167.161 64.8672 167.266 64.9453C167.37 65.0234 167.448 65.1276 167.5 65.2578C167.552 65.3099 167.604 65.4271 167.656 65.6094C167.708 65.7656 167.76 65.8828 167.812 65.9609C167.891 66.1693 168.047 66.4036 168.281 66.6641C168.516 66.9245 168.633 67.1589 168.633 67.3672C168.633 67.4974 168.607 67.6406 168.555 67.7969C168.503 67.9531 168.464 68.0964 168.438 68.2266C168.411 68.3828 168.398 68.5521 168.398 68.7344C168.398 68.8906 168.346 69.0339 168.242 69.1641C168.112 69.2943 167.969 69.3724 167.812 69.3984C167.656 69.4245 167.513 69.4896 167.383 69.5938C167.331 69.6458 167.253 69.737 167.148 69.8672C167.044 69.9974 166.94 70.1406 166.836 70.2969C166.732 70.4531 166.628 70.6094 166.523 70.7656C166.445 70.8958 166.406 71 166.406 71.0781C166.094 71.1042 165.885 71.1172 165.781 71.1172C165.703 71.0911 165.612 71.0911 165.508 71.1172C165.378 70.987 165.234 70.8828 165.078 70.8047C164.948 70.7005 164.779 70.6094 164.57 70.5312C164.518 70.3229 164.401 70.0885 164.219 69.8281C164.036 69.5417 163.88 69.3073 163.75 69.125L163.477 68.7734C163.086 68.2266 162.721 67.7057 162.383 67.2109C162.07 66.6901 161.836 66.1172 161.68 65.4922C162.174 65.1276 162.552 64.8542 162.812 64.6719C163.099 64.4896 163.398 64.3203 163.711 64.1641C164.023 64.0078 164.323 63.8646 164.609 63.7344C164.922 63.5781 165.208 63.3958 165.469 63.1875C165.677 63.1875 165.82 63.2005 165.898 63.2266C165.977 63.2526 166.029 63.2786 166.055 63.3047C166.081 63.3307 166.107 63.3828 166.133 63.4609C166.185 63.513 166.276 63.5781 166.406 63.6562Z" fill="black"/>
</g>
<path d="M26.07 107.25C26.07 108.343 25.6833 109.277 24.91 110.05C24.1433 110.817 23.2133 111.2 22.12 111.2C21.0133 111.2 20.06 110.83 19.26 110.09C18.4667 109.343 18.07 108.43 18.07 107.35C18.07 106.257 18.4533 105.327 19.22 104.56C19.9933 103.787 20.9267 103.4 22.02 103.4C23.1267 103.4 24.0767 103.773 24.87 104.52C25.67 105.26 26.07 106.17 26.07 107.25ZM25.15 107.23C25.15 106.383 24.8433 105.667 24.23 105.08C23.6167 104.493 22.88 104.2 22.02 104.2C21.1733 104.2 20.4567 104.507 19.87 105.12C19.2833 105.733 18.99 106.47 18.99 107.33C18.99 108.177 19.2933 108.893 19.9 109.48C20.5133 110.06 21.2533 110.35 22.12 110.35C22.9667 110.35 23.6833 110.043 24.27 109.43C24.8567 108.817 25.15 108.083 25.15 107.23ZM34.32 105.43C34.3267 105.55 34.33 105.637 34.33 105.69C34.33 106.21 34.1633 106.657 33.83 107.03C33.4967 107.397 33.06 107.607 32.52 107.66L30.97 107.68V111H30.06V103.6L32.46 103.62C32.9867 103.68 33.4267 103.873 33.78 104.2C34.14 104.52 34.32 104.93 34.32 105.43ZM32.66 104.5C32.5067 104.447 32.3433 104.407 32.17 104.38H30.97V106.92H32.46C32.7467 106.833 32.9733 106.67 33.14 106.43C33.3067 106.183 33.39 105.913 33.39 105.62C33.39 105.373 33.33 105.15 33.21 104.95C33.09 104.75 32.9067 104.6 32.66 104.5ZM43.91 111H39.89V103.6H43.91V104.4H40.8V106.59H43.91V107.35H40.78V110.2H43.91V111ZM55.31 111.16H55.13L49.73 105.22V111H48.9V103.42H49.11L54.46 109.36V103.6H55.31V111.16ZM74.14 104.89L73.35 105.26C73.2767 104.953 73.1 104.707 72.82 104.52C72.54 104.327 72.2333 104.23 71.9 104.23C71.6533 104.23 71.4367 104.28 71.25 104.38C71.0633 104.473 70.91 104.63 70.79 104.85C70.71 105.03 70.67 105.213 70.67 105.4C70.67 105.847 70.88 106.183 71.3 106.41L73.2 107.11C73.5467 107.303 73.81 107.567 73.99 107.9C74.1767 108.227 74.27 108.577 74.27 108.95C74.27 109.27 74.2033 109.577 74.07 109.87C73.9433 110.163 73.75 110.423 73.49 110.65C73.0233 110.977 72.5 111.14 71.92 111.14C71.4 111.14 70.9233 111.01 70.49 110.75C70.2567 110.577 70.0767 110.383 69.95 110.17C69.83 109.95 69.72 109.667 69.62 109.32L70.43 108.91C70.43 109.33 70.58 109.68 70.88 109.96C71.18 110.24 71.5333 110.38 71.94 110.38C72.1 110.38 72.2567 110.357 72.41 110.31C72.57 110.257 72.7233 110.173 72.87 110.06C73.0233 109.947 73.1433 109.793 73.23 109.6C73.3233 109.407 73.37 109.203 73.37 108.99C73.37 108.67 73.2967 108.433 73.15 108.28C73.01 108.127 72.8967 108.023 72.81 107.97C72.73 107.917 72.5633 107.833 72.31 107.72L71.03 107.27C70.65 107.09 70.3433 106.847 70.11 106.54C69.8767 106.227 69.76 105.873 69.76 105.48C69.76 105.38 69.7833 105.2 69.83 104.94C69.8833 104.673 70.0433 104.393 70.31 104.1C70.5767 103.807 70.8667 103.63 71.18 103.57C71.5 103.503 71.7833 103.47 72.03 103.47C72.1367 103.47 72.22 103.473 72.28 103.48C72.34 103.487 72.4933 103.517 72.74 103.57C72.9933 103.617 73.26 103.76 73.54 104C73.8267 104.24 74.0267 104.537 74.14 104.89ZM86.07 107.25C86.07 108.343 85.6833 109.277 84.91 110.05C84.1433 110.817 83.2133 111.2 82.12 111.2C81.0133 111.2 80.06 110.83 79.26 110.09C78.4667 109.343 78.07 108.43 78.07 107.35C78.07 106.257 78.4533 105.327 79.22 104.56C79.9933 103.787 80.9267 103.4 82.02 103.4C83.1267 103.4 84.0767 103.773 84.87 104.52C85.67 105.26 86.07 106.17 86.07 107.25ZM85.15 107.23C85.15 106.383 84.8433 105.667 84.23 105.08C83.6167 104.493 82.88 104.2 82.02 104.2C81.1733 104.2 80.4567 104.507 79.87 105.12C79.2833 105.733 78.99 106.47 78.99 107.33C78.99 108.177 79.2933 108.893 79.9 109.48C80.5133 110.06 81.2533 110.35 82.12 110.35C82.9667 110.35 83.6833 110.043 84.27 109.43C84.8567 108.817 85.15 108.083 85.15 107.23ZM95.02 103.6L95 108.64C95 109.08 94.8767 109.503 94.63 109.91C94.3833 110.31 94.0633 110.613 93.67 110.82C93.1233 111.067 92.5567 111.19 91.97 111.19C91.3833 111.19 90.8567 111.06 90.39 110.8C89.9233 110.54 89.6133 110.237 89.46 109.89C89.3067 109.537 89.2067 109.27 89.16 109.09C89.12 108.91 89.1 108.747 89.1 108.6V103.6H89.99V108.6C90.0367 108.947 90.1367 109.26 90.29 109.54C90.4433 109.813 90.6633 110.02 90.95 110.16C91.3233 110.32 91.7 110.4 92.08 110.4C92.38 110.4 92.6567 110.353 92.91 110.26C93.1633 110.16 93.3767 110.01 93.55 109.81C93.73 109.61 93.8667 109.413 93.96 109.22C94.06 109.02 94.11 108.813 94.11 108.6V108.52V103.6H95.02ZM104.9 111H103.7L100.92 107.21V111H99.99V103.6L102.73 103.62C103.257 103.62 103.687 103.82 104.02 104.22C104.36 104.62 104.53 105.083 104.53 105.61C104.53 105.89 104.48 106.15 104.38 106.39C104.287 106.63 104.13 106.85 103.91 107.05C103.663 107.25 103.393 107.393 103.1 107.48H102.12L104.9 111ZM102.87 104.48C102.783 104.447 102.69 104.42 102.59 104.4C102.497 104.373 102.41 104.36 102.33 104.36H100.92V106.84H102.57C102.89 106.84 103.137 106.73 103.31 106.51C103.49 106.283 103.58 106.01 103.58 105.69C103.58 105.423 103.52 105.18 103.4 104.96C103.28 104.74 103.103 104.58 102.87 104.48ZM114.68 110.67C114.333 110.817 113.98 110.93 113.62 111.01C113.267 111.09 112.907 111.13 112.54 111.13C112.027 111.13 111.537 111.047 111.07 110.88C110.603 110.713 110.177 110.46 109.79 110.12C109.003 109.32 108.61 108.377 108.61 107.29C108.61 106.583 108.763 105.977 109.07 105.47C109.383 104.963 109.687 104.577 109.98 104.31C110.28 104.037 110.563 103.847 110.83 103.74C111.103 103.627 111.323 103.55 111.49 103.51C111.663 103.47 111.837 103.44 112.01 103.42C112.19 103.4 112.363 103.39 112.53 103.39C112.777 103.39 113.037 103.413 113.31 103.46C113.583 103.5 113.857 103.56 114.13 103.64L114.68 103.89V104.87C114.06 104.43 113.38 104.21 112.64 104.21C112.14 104.21 111.673 104.313 111.24 104.52C110.807 104.72 110.433 105.03 110.12 105.45C109.94 105.717 109.8 106.007 109.7 106.32C109.607 106.633 109.56 106.953 109.56 107.28C109.56 107.847 109.7 108.38 109.98 108.88C110.267 109.373 110.657 109.747 111.15 110C111.65 110.247 112.157 110.37 112.67 110.37C113.223 110.37 113.72 110.233 114.16 109.96L114.68 109.63V110.67ZM123.91 111H119.89V103.6H123.91V104.4H120.8V106.59H123.91V107.35H120.78V110.2H123.91V111ZM144.32 105.43C144.327 105.55 144.33 105.637 144.33 105.69C144.33 106.21 144.163 106.657 143.83 107.03C143.497 107.397 143.06 107.607 142.52 107.66L140.97 107.68V111H140.06V103.6L142.46 103.62C142.987 103.68 143.427 103.873 143.78 104.2C144.14 104.52 144.32 104.93 144.32 105.43ZM142.66 104.5C142.507 104.447 142.343 104.407 142.17 104.38H140.97V106.92H142.46C142.747 106.833 142.973 106.67 143.14 106.43C143.307 106.183 143.39 105.913 143.39 105.62C143.39 105.373 143.33 105.15 143.21 104.95C143.09 104.75 142.907 104.6 142.66 104.5ZM154.9 111H153.7L150.92 107.21V111H149.99V103.6L152.73 103.62C153.257 103.62 153.687 103.82 154.02 104.22C154.36 104.62 154.53 105.083 154.53 105.61C154.53 105.89 154.48 106.15 154.38 106.39C154.287 106.63 154.13 106.85 153.91 107.05C153.663 107.25 153.393 107.393 153.1 107.48H152.12L154.9 111ZM152.87 104.48C152.783 104.447 152.69 104.42 152.59 104.4C152.497 104.373 152.41 104.36 152.33 104.36H150.92V106.84H152.57C152.89 106.84 153.137 106.73 153.31 106.51C153.49 106.283 153.58 106.01 153.58 105.69C153.58 105.423 153.52 105.18 153.4 104.96C153.28 104.74 153.103 104.58 152.87 104.48ZM166.07 107.25C166.07 108.343 165.683 109.277 164.91 110.05C164.143 110.817 163.213 111.2 162.12 111.2C161.013 111.2 160.06 110.83 159.26 110.09C158.467 109.343 158.07 108.43 158.07 107.35C158.07 106.257 158.453 105.327 159.22 104.56C159.993 103.787 160.927 103.4 162.02 103.4C163.127 103.4 164.077 103.773 164.87 104.52C165.67 105.26 166.07 106.17 166.07 107.25ZM165.15 107.23C165.15 106.383 164.843 105.667 164.23 105.08C163.617 104.493 162.88 104.2 162.02 104.2C161.173 104.2 160.457 104.507 159.87 105.12C159.283 105.733 158.99 106.47 158.99 107.33C158.99 108.177 159.293 108.893 159.9 109.48C160.513 110.06 161.253 110.35 162.12 110.35C162.967 110.35 163.683 110.043 164.27 109.43C164.857 108.817 165.15 108.083 165.15 107.23ZM173.15 109.85C173.043 110.19 172.89 110.47 172.69 110.69C172.497 110.91 172.287 111.037 172.06 111.07C171.84 111.11 171.667 111.13 171.54 111.13C170.873 111.13 170.34 110.89 169.94 110.41L170.51 109.79C170.617 109.943 170.767 110.08 170.96 110.2C171.153 110.32 171.34 110.38 171.52 110.38C171.733 110.38 171.887 110.32 171.98 110.2C172.073 110.08 172.137 109.973 172.17 109.88C172.21 109.78 172.247 109.667 172.28 109.54V103.6H173.15V109.85ZM183.91 111H179.89V103.6H183.91V104.4H180.8V106.59H183.91V107.35H180.78V110.2H183.91V111ZM194.68 110.67C194.333 110.817 193.98 110.93 193.62 111.01C193.267 111.09 192.907 111.13 192.54 111.13C192.027 111.13 191.537 111.047 191.07 110.88C190.603 110.713 190.177 110.46 189.79 110.12C189.003 109.32 188.61 108.377 188.61 107.29C188.61 106.583 188.763 105.977 189.07 105.47C189.383 104.963 189.687 104.577 189.98 104.31C190.28 104.037 190.563 103.847 190.83 103.74C191.103 103.627 191.323 103.55 191.49 103.51C191.663 103.47 191.837 103.44 192.01 103.42C192.19 103.4 192.363 103.39 192.53 103.39C192.777 103.39 193.037 103.413 193.31 103.46C193.583 103.5 193.857 103.56 194.13 103.64L194.68 103.89V104.87C194.06 104.43 193.38 104.21 192.64 104.21C192.14 104.21 191.673 104.313 191.24 104.52C190.807 104.72 190.433 105.03 190.12 105.45C189.94 105.717 189.8 106.007 189.7 106.32C189.607 106.633 189.56 106.953 189.56 107.28C189.56 107.847 189.7 108.38 189.98 108.88C190.267 109.373 190.657 109.747 191.15 110C191.65 110.247 192.157 110.37 192.67 110.37C193.223 110.37 193.72 110.233 194.16 109.96L194.68 109.63V110.67ZM204.55 104.38H202.42V111H201.5V104.38H199.37V103.6H204.55V104.38Z" fill="#555555"/>
<g clip-path="url(#clip0_22_124)">
<mask id="mask1_22_124" style="mask-type:luminance" maskUnits="userSpaceOnUse" x="93" y="3" width="40" height="40">
<path d="M133 3H93V43H133V3Z" fill="white"/>
</mask>
<g mask="url(#mask1_22_124)">
<mask id="mask2_22_124" style="mask-type:alpha" maskUnits="userSpaceOnUse" x="94" y="4" width="38" height="38">
<path d="M131.518 4.48145H94.4814V41.5185H131.518V4.48145Z" fill="#EB1414"/>
</mask>
<g mask="url(#mask2_22_124)">
<path d="M131.518 4.48145H94.4814V41.5185H131.518V4.48145Z" fill="#EB1414"/>
<path d="M106.985 41.5185V20.3629H109.652L116.467 24.2148V27.1185L114.037 31.2962L117.918 41.5185H115.074L111.222 31.1481L114.215 25.9629L109.652 23.3851V41.5185H106.985ZM125.147 41.5185V31.2074L120.14 28.274L121.207 26.4074L125.147 28.7481V20.3629H127.814V30.3185L132.792 33.2518L131.755 35.0296L127.814 32.7481V41.5185H125.147Z" fill="white"/>
</g>
</g>
</g>
<defs>
<clipPath id="clip0_22_124">
<rect width="40" height="40" fill="white" transform="translate(93 3)"/>
</clipPath>
</defs>
</svg>
