<svg width="225" height="121" viewBox="0 0 225 121" fill="none" xmlns="http://www.w3.org/2000/svg">
<mask id="mask0_22_94" style="mask-type:luminance" maskUnits="userSpaceOnUse" x="68" y="32" width="142" height="38">
<path d="M210 32H68V70H210V32Z" fill="white"/>
</mask>
<g mask="url(#mask0_22_94)">
<path d="M98.7656 61.25C98.7396 61.6406 98.8177 61.9401 99 62.1484C99.2083 62.3307 99.3776 62.5651 99.5078 62.8516C99.4557 63.2161 99.4948 63.5026 99.625 63.7109C99.5469 63.8672 99.4688 64.0495 99.3906 64.2578C99.3125 64.4401 99.1953 64.5964 99.0391 64.7266C98.6224 64.9089 98.375 65.0651 98.2969 65.1953C98.2188 65.3255 98.0625 65.3906 97.8281 65.3906C97.6979 65.5208 97.5547 65.651 97.3984 65.7812C97.2422 65.9375 97.099 66.0807 96.9688 66.2109C96.8385 66.1589 96.7474 66.0938 96.6953 66.0156C96.6432 65.9375 96.5651 65.8333 96.4609 65.7031C96.2005 65.625 95.9661 65.4818 95.7578 65.2734C95.5495 65.0911 95.3672 64.8828 95.2109 64.6484C95.0547 64.388 94.8984 64.1276 94.7422 63.8672C94.612 63.5807 94.4948 63.3203 94.3906 63.0859C94.026 62.4089 93.6484 61.7318 93.2578 61.0547C92.8932 60.3516 92.5156 59.6615 92.125 58.9844C91.9167 58.6458 91.7083 58.3073 91.5 57.9688C91.3177 57.6042 91.1224 57.2396 90.9141 56.875C90.862 56.8229 90.8099 56.7708 90.7578 56.7188C90.7057 56.6406 90.6536 56.5625 90.6016 56.4844C90.4193 56.224 90.276 55.9375 90.1719 55.625C90.0938 55.2865 89.9115 55.013 89.625 54.8047C89.1302 54.7526 88.6745 54.8307 88.2578 55.0391C87.8672 55.2214 87.5156 55.4688 87.2031 55.7812C87.2292 55.9635 87.2422 56.1328 87.2422 56.2891C87.2422 56.4453 87.2422 56.6016 87.2422 56.7578C87.2422 57.3568 87.2161 57.9297 87.1641 58.4766C87.112 59.0234 87.0859 59.5964 87.0859 60.1953C87.0859 60.4557 87.099 60.7292 87.125 61.0156C87.151 61.276 87.1901 61.5365 87.2422 61.7969C87.1641 62.0833 87.125 62.3958 87.125 62.7344C87.125 62.9167 87.138 63.0859 87.1641 63.2422C87.2161 63.3984 87.2422 63.5677 87.2422 63.75C87.2422 64.0104 87.151 64.1927 86.9688 64.2969C86.8125 64.375 86.7604 64.5312 86.8125 64.7656C86.5 64.8958 86.2005 65.026 85.9141 65.1562C85.6276 65.2865 85.3281 65.3776 85.0156 65.4297C84.8854 65.4557 84.7552 65.4557 84.625 65.4297C84.4948 65.4297 84.3776 65.4557 84.2734 65.5078C84.1432 65.5599 84.0391 65.651 83.9609 65.7812C83.8828 65.9375 83.7786 66.0156 83.6484 66.0156C83.4922 66.0156 83.401 65.9505 83.375 65.8203C83.349 65.7161 83.2969 65.625 83.2188 65.5469C83.0885 65.4948 82.9844 65.4688 82.9062 65.4688C82.8281 65.4688 82.75 65.4297 82.6719 65.3516C82.6979 65.1172 82.6458 64.9479 82.5156 64.8438C82.3854 64.7135 82.3203 64.4661 82.3203 64.1016C82.3203 63.8151 82.3333 63.5417 82.3594 63.2812C82.4115 63.0208 82.4375 62.7474 82.4375 62.4609C82.4375 62.2266 82.3984 62.0182 82.3203 61.8359C82.2682 61.6276 82.2161 61.4062 82.1641 61.1719C82.138 61.0677 82.138 60.9635 82.1641 60.8594C82.1901 60.7552 82.2031 60.651 82.2031 60.5469C82.2031 60.0781 82.1771 59.6094 82.125 59.1406C82.099 58.6458 82.0859 58.1641 82.0859 57.6953C82.0859 57.513 82.0859 57.3438 82.0859 57.1875C82.0859 57.0312 82.099 56.875 82.125 56.7188C82.1771 56.5625 82.2161 56.4323 82.2422 56.3281C82.2943 56.224 82.3203 56.0938 82.3203 55.9375C82.3203 55.4427 82.2682 54.9609 82.1641 54.4922C82.0599 53.9974 82.0078 53.5156 82.0078 53.0469C82.0078 52.7865 82.0078 52.526 82.0078 52.2656C82.0339 51.9792 82.0469 51.7057 82.0469 51.4453C82.0469 50.6901 82.0339 49.9479 82.0078 49.2188C81.9818 48.4896 81.9688 47.7604 81.9688 47.0312C81.9688 46.5104 81.9818 46.0026 82.0078 45.5078C82.0339 44.987 82.0469 44.4661 82.0469 43.9453C82.0469 43.2943 82.0208 42.6562 81.9688 42.0312C81.9167 41.3802 81.8906 40.7161 81.8906 40.0391C81.8906 39.8047 81.8776 39.6484 81.8516 39.5703C81.8255 39.4922 81.7865 39.4531 81.7344 39.4531C81.6823 39.4271 81.6172 39.4141 81.5391 39.4141C81.487 39.388 81.4349 39.3359 81.3828 39.2578C81.3828 39.1016 81.4479 38.9974 81.5781 38.9453C81.7083 38.8672 81.7734 38.6458 81.7734 38.2812C81.7734 38.0729 81.7474 37.8646 81.6953 37.6562C81.6693 37.4479 81.6562 37.2396 81.6562 37.0312C81.6562 36.7188 81.7214 36.4062 81.8516 36.0938C81.9818 35.7812 82.099 35.4818 82.2031 35.1953C82.5156 35.1693 82.724 35.1693 82.8281 35.1953C82.9583 35.2214 83.0885 35.2083 83.2188 35.1562C83.2969 35.4427 83.4661 35.599 83.7266 35.625C83.987 35.625 84.2214 35.651 84.4297 35.7031C84.6641 35.7292 84.8854 35.7943 85.0938 35.8984C85.3281 35.9766 85.5495 36.0156 85.7578 36.0156C85.8099 36.1719 85.9141 36.2891 86.0703 36.3672C86.2526 36.4193 86.4349 36.4713 86.6172 36.5234C86.8255 36.4974 86.9818 36.4062 87.0859 36.25C87.2161 36.0938 87.3854 36.0156 87.5938 36.0156C87.75 36.0156 87.9323 36.1328 88.1406 36.3672C88.349 36.5755 88.5052 36.7448 88.6094 36.875C88.7135 36.9531 88.9089 37.1224 89.1953 37.3828C89.4818 37.6432 89.7943 37.9167 90.1328 38.2031C90.4714 38.4635 90.7839 38.724 91.0703 38.9844C91.3568 39.2187 91.5391 39.349 91.6172 39.375C92.6849 40.4427 93.6745 41.4193 94.5859 42.3047C95.5234 43.1641 96.5391 43.9453 97.6328 44.6484C97.6589 44.7266 97.6849 44.7917 97.7109 44.8438C97.763 44.8958 97.8151 44.9609 97.8672 45.0391C97.8672 45.2474 97.8281 45.4036 97.75 45.5078C97.6719 45.612 97.6328 45.7422 97.6328 45.8984C97.6328 45.9766 97.6458 46.0547 97.6719 46.1328C97.724 46.2109 97.75 46.2891 97.75 46.3672C97.776 46.4714 97.776 46.5755 97.75 46.6797C97.75 46.7578 97.75 46.849 97.75 46.9531C97.75 47.2135 97.8281 47.4479 97.9844 47.6562C98.1667 47.8646 98.2578 48.099 98.2578 48.3594C98.2057 48.5938 98.1016 48.737 97.9453 48.7891C97.7891 48.8411 97.6589 48.9062 97.5547 48.9844C97.5026 49.0365 97.4505 49.1016 97.3984 49.1797C97.3724 49.2578 97.3333 49.3229 97.2812 49.375C96.7083 49.6354 96.2917 49.8828 96.0312 50.1172C95.7708 50.3255 95.4974 50.5339 95.2109 50.7422C95.1328 50.7943 95.0026 50.8854 94.8203 51.0156C94.638 51.1198 94.4557 51.237 94.2734 51.3672C94.0911 51.4714 93.9219 51.5885 93.7656 51.7188C93.6354 51.849 93.5703 51.9531 93.5703 52.0312C93.5703 52.2135 93.6745 52.474 93.8828 52.8125C94.1172 53.125 94.2865 53.3724 94.3906 53.5547C94.6771 54.0234 94.9375 54.4922 95.1719 54.9609C95.4062 55.4036 95.6667 55.8464 95.9531 56.2891C96.474 57.0964 96.9557 57.9167 97.3984 58.75C97.8672 59.5833 98.3229 60.4167 98.7656 61.25ZM92.3984 46.7188C91.7995 45.9635 91.1484 45.2865 90.4453 44.6875C89.7682 44.0625 89.1172 43.4115 88.4922 42.7344L88.0625 42.6562C87.9062 42.3958 87.724 42.1745 87.5156 41.9922C87.3333 41.7839 87.138 41.5755 86.9297 41.3672C86.9557 41.6537 86.9688 41.9271 86.9688 42.1875C86.9688 42.4479 86.9688 42.7214 86.9688 43.0078C86.9688 43.8411 86.9427 44.6615 86.8906 45.4688C86.8646 46.25 86.8516 47.0443 86.8516 47.8516C86.8516 48.6589 86.8906 49.4271 86.9688 50.1562C87.5156 50.1562 88.0104 50 88.4531 49.6875C88.6354 49.5573 88.8047 49.4271 88.9609 49.2969C89.1172 49.1406 89.2865 48.9974 89.4688 48.8672C89.6771 48.737 89.9115 48.5807 90.1719 48.3984C90.4583 48.2161 90.7318 48.0339 90.9922 47.8516C91.2786 47.6693 91.5391 47.487 91.7734 47.3047C92.0339 47.0964 92.2422 46.901 92.3984 46.7188ZM131.813 60.3125C131.552 60.3385 131.396 60.3255 131.344 60.2734C131.24 60.3255 131.135 60.3776 131.031 60.4297C130.953 60.4818 130.862 60.5469 130.758 60.625C130.393 60.7552 130.029 60.9245 129.664 61.1328C129.326 61.3411 128.974 61.5365 128.609 61.7188C128.401 61.8229 128.193 61.9141 127.984 61.9922C127.802 62.0443 127.607 62.1224 127.398 62.2266C127.086 62.3828 126.773 62.5521 126.461 62.7344C126.148 62.8906 125.823 63.0339 125.484 63.1641C125.302 63.2161 125.12 63.2682 124.938 63.3203C124.781 63.3724 124.612 63.4245 124.43 63.4766C124.221 63.5547 124.026 63.6458 123.844 63.75C123.688 63.8281 123.518 63.9062 123.336 63.9844C123.206 64.0365 123.063 64.0885 122.906 64.1406C122.776 64.1667 122.633 64.2188 122.477 64.2969C122.346 64.349 122.229 64.4141 122.125 64.4922C122.047 64.5703 121.943 64.6354 121.813 64.6875C121.604 64.7656 121.383 64.8438 121.148 64.9219C120.94 65 120.732 65.0911 120.523 65.1953C120.315 65.2995 120.159 65.3906 120.055 65.4688C119.977 65.5729 119.807 65.6641 119.547 65.7422C119.287 65.8984 119.143 65.9766 119.117 65.9766C119.091 66.0026 119.052 66.0156 119 66.0156C118.922 66.0677 118.844 66.1068 118.766 66.1328C118.714 66.1849 118.648 66.237 118.57 66.2891C118.414 66.2891 118.258 66.3021 118.102 66.3281C117.945 66.3542 117.789 66.3672 117.633 66.3672C117.451 66.263 117.32 66.1589 117.242 66.0547C117.19 65.9505 117.164 65.8073 117.164 65.625C117.06 65.4948 116.956 65.3516 116.852 65.1953C116.773 65.0391 116.682 64.8958 116.578 64.7656C116.396 64.8698 116.279 64.8698 116.227 64.7656C116.201 64.6354 116.175 64.5052 116.148 64.375C116.122 64.2188 116.096 64.0755 116.07 63.9453C116.044 63.7891 116.018 63.6849 115.992 63.6328C115.862 63.138 115.797 62.7734 115.797 62.5391C115.797 62.4089 115.823 62.3307 115.875 62.3047C115.927 62.2526 115.953 62.1875 115.953 62.1094C115.979 61.849 116.005 61.5495 116.031 61.2109C116.057 60.8724 116.07 60.5208 116.07 60.1562C116.07 59.7917 116.07 59.4271 116.07 59.0625C116.07 58.6979 116.07 58.3724 116.07 58.0859C116.07 56.9141 116.057 55.7812 116.031 54.6875C116.005 53.5677 115.992 52.4479 115.992 51.3281C115.992 50.8073 116.005 50.2865 116.031 49.7656C116.057 49.2448 116.07 48.724 116.07 48.2031C116.07 46.9271 116.083 45.6641 116.109 44.4141C116.162 43.1641 116.188 41.901 116.188 40.625C116.188 40.1042 116.162 39.5833 116.109 39.0625C116.057 38.5156 116.018 37.9687 115.992 37.4219C115.966 37.1354 115.979 36.9141 116.031 36.7578C116.083 36.5755 116.096 36.3932 116.07 36.2109C116.148 36.1849 116.292 36.1719 116.5 36.1719C116.708 36.1719 116.917 36.1719 117.125 36.1719C117.359 36.1458 117.568 36.1328 117.75 36.1328C117.958 36.1068 118.089 36.0807 118.141 36.0547C118.323 36.1849 118.505 36.25 118.688 36.25C118.87 36.25 119.039 36.1719 119.195 36.0156C119.326 36.0677 119.391 36.1068 119.391 36.1328C119.417 36.1589 119.495 36.1719 119.625 36.1719C119.859 36.1458 120.042 36.1328 120.172 36.1328C120.302 36.1068 120.419 36.0938 120.523 36.0938C120.81 36.3021 120.979 36.5625 121.031 36.875C121.109 37.1615 121.162 37.474 121.188 37.8125C121.214 38.125 121.227 38.4505 121.227 38.7891C121.253 39.1016 121.266 39.362 121.266 39.5703C121.266 39.7266 121.279 39.8958 121.305 40.0781C121.331 40.2344 121.344 40.4037 121.344 40.5859C121.344 40.7162 121.331 40.8463 121.305 40.9766C121.305 41.1068 121.305 41.237 121.305 41.3672C121.305 42.1224 121.305 42.8906 121.305 43.6719C121.331 44.4531 121.344 45.2214 121.344 45.9766C121.344 47.3307 121.318 48.6979 121.266 50.0781C121.24 51.4323 121.227 52.7865 121.227 54.1406C121.227 54.4271 121.24 54.7135 121.266 55C121.292 55.2865 121.305 55.5729 121.305 55.8594C121.305 56.0156 121.292 56.1719 121.266 56.3281C121.266 56.4844 121.266 56.6406 121.266 56.7969C121.266 57.7604 121.305 58.724 121.383 59.6875C121.487 59.6615 121.708 59.5964 122.047 59.4922C122.385 59.362 122.737 59.2318 123.102 59.1016C123.466 58.9453 123.805 58.8021 124.117 58.6719C124.43 58.5156 124.625 58.3984 124.703 58.3203C124.807 58.3203 124.951 58.2812 125.133 58.2031C125.315 58.125 125.51 58.0339 125.719 57.9297C125.927 57.7995 126.122 57.6823 126.305 57.5781C126.513 57.474 126.656 57.3828 126.734 57.3047C126.708 56.7839 126.695 56.263 126.695 55.7422C126.695 55.1953 126.695 54.6615 126.695 54.1406C126.695 52.7083 126.708 51.276 126.734 49.8438C126.787 48.4115 126.813 46.9531 126.813 45.4688C126.813 44.5573 126.8 43.6458 126.773 42.7344C126.747 41.8229 126.734 40.9115 126.734 40C126.734 39.7135 126.734 39.4271 126.734 39.1406C126.76 38.8281 126.773 38.5286 126.773 38.2422C126.773 37.7995 126.76 37.3698 126.734 36.9531C126.734 36.5104 126.76 36.0677 126.813 35.625C127.073 35.4948 127.216 35.4297 127.242 35.4297C127.398 35.4297 127.503 35.4297 127.555 35.4297C127.633 35.4297 127.698 35.4557 127.75 35.5078C127.828 35.5339 127.893 35.5469 127.945 35.5469C128.023 35.5208 128.102 35.5078 128.18 35.5078C128.31 35.5078 128.44 35.5338 128.57 35.5859C128.701 35.638 128.831 35.6641 128.961 35.6641C129.169 35.638 129.273 35.6641 129.273 35.7422C129.3 35.8203 129.352 35.8594 129.43 35.8594C129.638 35.7813 129.781 35.7813 129.859 35.8594C129.938 35.9115 130.081 35.9896 130.289 36.0938C130.497 36.1719 130.719 36.263 130.953 36.3672C131.188 36.4713 131.396 36.5755 131.578 36.6797C131.76 36.7578 131.852 36.8359 131.852 36.9141C131.93 37.3307 131.956 37.7734 131.93 38.2422C131.904 38.7109 131.891 39.1537 131.891 39.5703C131.891 39.9349 131.904 40.2995 131.93 40.6641C131.956 41.0286 131.969 41.3932 131.969 41.7578C131.969 41.9661 131.969 42.1745 131.969 42.3828C131.969 42.5911 131.982 42.7865 132.008 42.9688C132.034 43.099 132.047 43.2161 132.047 43.3203C132.047 43.3984 132.047 43.4896 132.047 43.5938C132.047 43.724 132.073 43.8932 132.125 44.1016C132.099 44.2318 132.086 44.375 132.086 44.5312C132.086 44.6615 132.086 44.7917 132.086 44.9219C132.086 45.2865 132.099 45.6641 132.125 46.0547C132.151 46.4453 132.164 46.8359 132.164 47.2266C132.164 47.487 132.138 47.7344 132.086 47.9688C132.06 48.2031 132.047 48.4375 132.047 48.6719L132.086 49.4141C132.086 49.6745 132.099 49.9349 132.125 50.1953C132.151 50.4557 132.164 50.7292 132.164 51.0156C132.164 51.1458 132.151 51.276 132.125 51.4062C132.125 51.5365 132.112 51.6667 132.086 51.7969C132.06 51.9271 132.047 52.0703 132.047 52.2266C132.047 52.3828 132.047 52.526 132.047 52.6562C132.047 53.0208 132.06 53.3854 132.086 53.75C132.112 54.1146 132.125 54.4792 132.125 54.8438C132.125 55.0781 132.112 55.3125 132.086 55.5469C132.086 55.7552 132.086 55.9766 132.086 56.2109C132.086 56.6797 132.099 57.1615 132.125 57.6562C132.177 58.151 132.203 58.6328 132.203 59.1016C132.203 59.3099 132.177 59.5312 132.125 59.7656C132.073 60 131.969 60.1823 131.813 60.3125ZM163.805 35.8594C164.221 35.8073 164.534 35.8464 164.742 35.9766C164.977 36.0807 165.211 36.1458 165.445 36.1719C165.576 36.1979 165.706 36.2109 165.836 36.2109C165.992 36.1849 166.148 36.1719 166.305 36.1719C166.643 36.1719 166.904 36.2109 167.086 36.2891C167.294 36.3672 167.503 36.5365 167.711 36.7969C167.763 36.849 167.828 36.9271 167.906 37.0312C168.01 37.1094 168.062 37.1875 168.062 37.2656C168.062 37.474 168.01 37.6562 167.906 37.8125C167.802 37.9688 167.75 38.1901 167.75 38.4766C167.75 38.9193 167.802 39.362 167.906 39.8047C168.01 40.2213 168.076 40.651 168.102 41.0938C168.232 42.7083 168.297 44.3359 168.297 45.9766C168.323 47.5911 168.336 49.1927 168.336 50.7812C168.336 50.9896 168.323 51.1849 168.297 51.3672C168.297 51.5234 168.245 51.6667 168.141 51.7969V52.3047C168.115 52.9818 168.128 53.6719 168.18 54.375C168.232 55.0521 168.258 55.7292 168.258 56.4062C168.258 57.0052 168.219 57.6042 168.141 58.2031C168.089 58.8021 168.062 59.4141 168.062 60.0391C168.062 60.612 168.102 61.1719 168.18 61.7188C168.258 62.2656 168.297 62.8255 168.297 63.3984C168.167 63.6328 168.089 63.8151 168.062 63.9453C168.036 64.0755 167.984 64.1927 167.906 64.2969C167.828 64.349 167.737 64.362 167.633 64.3359C167.555 64.3099 167.49 64.3359 167.438 64.4141C167.307 64.5703 167.216 64.7526 167.164 64.9609C167.112 65.1693 166.982 65.3385 166.773 65.4688C166.721 65.8333 166.578 66.1068 166.344 66.2891C166.135 66.4974 165.979 66.7578 165.875 67.0703C165.563 67.0964 165.341 67.0833 165.211 67.0312C165.107 66.9792 164.99 66.9271 164.859 66.875C164.833 66.4323 164.833 66.1068 164.859 65.8984C164.912 65.7161 164.938 65.5208 164.938 65.3125C164.938 65.0521 164.872 64.8568 164.742 64.7266C164.612 64.5964 164.521 64.4271 164.469 64.2188C164.182 64.0365 163.987 63.9193 163.883 63.8672C163.779 63.7891 163.688 63.6979 163.609 63.5938C163.453 63.3854 163.323 63.1641 163.219 62.9297C163.115 62.6953 162.997 62.474 162.867 62.2656C162.503 61.6667 162.125 61.0547 161.734 60.4297C161.37 59.8047 160.966 59.1927 160.523 58.5938C160.445 58.4635 160.354 58.3464 160.25 58.2422C160.146 58.138 160.055 58.0208 159.977 57.8906C159.534 57.1875 159.117 56.4714 158.727 55.7422C158.336 55.013 157.88 54.3229 157.359 53.6719C157.151 53.4115 156.995 53.125 156.891 52.8125C156.787 52.474 156.63 52.1875 156.422 51.9531C156.396 52.0833 156.383 52.2266 156.383 52.3828C156.383 52.5391 156.383 52.6823 156.383 52.8125C156.383 53.6979 156.396 54.5833 156.422 55.4688C156.474 56.3281 156.5 57.2005 156.5 58.0859C156.5 58.2682 156.474 58.4375 156.422 58.5938C156.396 58.724 156.383 58.8802 156.383 59.0625C156.383 59.3229 156.396 59.5703 156.422 59.8047C156.448 60.0391 156.461 60.2734 156.461 60.5078C156.461 60.7943 156.448 61.0677 156.422 61.3281C156.422 61.5885 156.409 61.849 156.383 62.1094C156.331 62.4479 156.266 62.7734 156.188 63.0859C156.109 63.3724 156.07 63.6719 156.07 63.9844C156.07 64.1667 156.083 64.3359 156.109 64.4922C156.162 64.6484 156.188 64.7917 156.188 64.9219C156.005 65.2083 155.771 65.3516 155.484 65.3516C155.224 65.3516 155.003 65.4557 154.82 65.6641C154.664 65.638 154.534 65.651 154.43 65.7031C154.352 65.7552 154.273 65.7812 154.195 65.7812C154.091 65.7812 154 65.7682 153.922 65.7422C153.87 65.7161 153.805 65.7031 153.727 65.7031C153.596 65.7031 153.466 65.7682 153.336 65.8984C153.206 66.0286 153.076 66.0938 152.945 66.0938C152.867 66.0938 152.724 66.0417 152.516 65.9375C152.333 65.8333 152.125 65.7031 151.891 65.5469C151.682 65.4167 151.487 65.2734 151.305 65.1172C151.122 64.987 151.031 64.8828 151.031 64.8047C151.005 64.6745 150.992 64.4922 150.992 64.2578C150.992 63.9453 151.005 63.6458 151.031 63.3594C151.083 63.0469 151.135 62.7344 151.188 62.4219C151.266 61.5365 151.305 60.6641 151.305 59.8047C151.305 58.9193 151.305 58.0339 151.305 57.1484C151.305 56.7839 151.305 56.4193 151.305 56.0547C151.331 55.6901 151.344 55.3255 151.344 54.9609C151.344 54.1016 151.305 53.2422 151.227 52.3828C151.175 51.4974 151.148 50.625 151.148 49.7656C151.148 49.1667 151.175 48.5807 151.227 48.0078C151.279 47.4089 151.305 46.8229 151.305 46.25C151.305 45.8073 151.292 45.3776 151.266 44.9609C151.24 44.5443 151.227 44.1146 151.227 43.6719C151.201 43.3854 151.201 43.0859 151.227 42.7734C151.253 42.4349 151.266 42.1224 151.266 41.8359C151.266 41.4974 151.214 41.1849 151.109 40.8984C151.031 40.5859 150.992 40.2995 150.992 40.0391C150.992 39.8828 151.018 39.7396 151.07 39.6094C151.148 39.4531 151.188 39.2969 151.188 39.1406C151.188 38.9323 151.148 38.724 151.07 38.5156C151.018 38.3073 150.992 38.099 150.992 37.8906C150.992 37.6823 151.018 37.487 151.07 37.3047C151.122 37.1224 151.148 36.9271 151.148 36.7188C151.513 36.5365 151.839 36.4453 152.125 36.4453C152.412 36.4453 152.62 36.5495 152.75 36.7578C152.75 37.2266 152.776 37.5912 152.828 37.8516C152.88 38.0859 152.919 38.3333 152.945 38.5938C152.945 38.75 152.932 38.9323 152.906 39.1406C152.906 39.349 152.919 39.5573 152.945 39.7656C152.971 39.9479 153.023 40.1042 153.102 40.2344C153.206 40.3646 153.375 40.4297 153.609 40.4297C153.662 40.5599 153.727 40.6771 153.805 40.7812C153.883 40.8854 153.935 41.0156 153.961 41.1719C154.117 41.0677 154.208 40.9245 154.234 40.7422C154.26 40.5599 154.26 40.3906 154.234 40.2344C154.365 40.2865 154.482 40.3125 154.586 40.3125C154.69 40.2865 154.794 40.2995 154.898 40.3516C154.951 40.7161 155.016 41.0417 155.094 41.3281C155.172 41.5885 155.198 41.901 155.172 42.2656C155.693 42.6562 156.135 43.2161 156.5 43.9453C156.891 44.6484 157.255 45.2865 157.594 45.8594C157.776 46.1458 157.984 46.4193 158.219 46.6797C158.479 46.9141 158.675 47.2005 158.805 47.5391C159.013 47.6693 159.182 47.8385 159.313 48.0469C159.443 48.2552 159.56 48.4635 159.664 48.6719C160.185 49.5833 160.758 50.4688 161.383 51.3281C162.008 52.1875 162.659 53.0339 163.336 53.8672C163.362 53.6849 163.375 53.5156 163.375 53.3594C163.375 53.1771 163.375 52.9948 163.375 52.8125L163.336 49.2969C163.336 49.0885 163.323 48.8932 163.297 48.7109C163.297 48.5286 163.284 48.3333 163.258 48.125C163.206 47.4479 163.193 46.7839 163.219 46.1328C163.245 45.4818 163.245 44.8177 163.219 44.1406C163.167 43.4375 163.128 42.7214 163.102 41.9922C163.102 41.263 163.076 40.5338 163.023 39.8047C162.997 39.362 162.971 38.9193 162.945 38.4766C162.919 38.0339 162.906 37.5911 162.906 37.1484C162.906 36.6016 162.958 36.1068 163.063 35.6641C163.115 35.612 163.167 35.5729 163.219 35.5469C163.297 35.4948 163.388 35.4688 163.492 35.4688C163.648 35.4688 163.753 35.599 163.805 35.8594ZM192.828 54.7656C192.88 54.8958 193.062 55.1693 193.375 55.5859C193.714 56.0026 194.091 56.4583 194.508 56.9531C194.924 57.4479 195.315 57.9297 195.68 58.3984C196.07 58.8411 196.344 59.1667 196.5 59.375C196.786 59.7396 197.06 60.1042 197.32 60.4688C197.607 60.8073 197.867 61.1719 198.102 61.5625L198.805 62.7344C199.013 62.9948 199.195 63.2161 199.352 63.3984C199.534 63.5807 199.677 63.8281 199.781 64.1406C199.833 64.349 199.859 64.4922 199.859 64.5703C199.859 64.7526 199.794 64.8828 199.664 64.9609C199.456 64.9609 199.339 64.987 199.312 65.0391C199.312 65.1172 199.26 65.1823 199.156 65.2344C199.052 65.2865 198.883 65.3125 198.648 65.3125C198.44 65.3385 198.271 65.3516 198.141 65.3516C197.906 65.3516 197.607 65.3385 197.242 65.3125C196.904 65.3125 196.63 65.3516 196.422 65.4297C196.37 65.4557 196.292 65.4948 196.188 65.5469C196.083 65.599 196.005 65.625 195.953 65.625C195.745 65.625 195.589 65.5859 195.484 65.5078C195.406 65.4557 195.289 65.4167 195.133 65.3906C194.924 65.1562 194.742 64.9219 194.586 64.6875C194.456 64.4271 194.299 64.1667 194.117 63.9062C193.935 63.724 193.753 63.5677 193.57 63.4375C193.388 63.2812 193.232 63.112 193.102 62.9297C192.711 62.3568 192.307 61.7969 191.891 61.25C191.474 60.7031 191.044 60.1693 190.602 59.6484C190.393 59.362 190.172 59.1016 189.938 58.8672C189.703 58.6328 189.482 58.3724 189.273 58.0859C189.065 57.8255 188.87 57.5521 188.688 57.2656C188.505 56.9531 188.323 56.6536 188.141 56.3672C187.984 56.1328 187.776 55.8333 187.516 55.4688C187.255 55.0781 186.969 54.7005 186.656 54.3359C186.344 53.9453 186.031 53.5807 185.719 53.2422C185.406 52.9036 185.146 52.6432 184.938 52.4609C184.911 52.3047 184.846 52.1875 184.742 52.1094C184.638 52.0052 184.521 51.9141 184.391 51.8359C184.339 51.7057 184.286 51.5885 184.234 51.4844C184.156 51.3542 184.117 51.224 184.117 51.0938C184.117 50.9115 184.156 50.7422 184.234 50.5859C184.286 50.4818 184.326 50.3906 184.352 50.3125C184.352 50.2083 184.378 50.1042 184.43 50C184.56 49.7135 184.729 49.4401 184.938 49.1797C185.172 48.8932 185.354 48.5938 185.484 48.2812C185.536 48.2031 185.562 48.125 185.562 48.0469C185.562 47.9427 185.589 47.8516 185.641 47.7734C185.693 47.5651 185.797 47.3958 185.953 47.2656C186.135 47.1094 186.279 46.9401 186.383 46.7578C186.513 46.5495 186.63 46.3411 186.734 46.1328C186.865 45.8984 186.995 45.651 187.125 45.3906C187.516 44.7396 187.919 44.1146 188.336 43.5156C188.779 42.8906 189.221 42.2656 189.664 41.6406C190.003 41.1198 190.328 40.625 190.641 40.1562C190.979 39.6615 191.318 39.1667 191.656 38.6719C191.839 38.4375 192.034 38.1641 192.242 37.8516C192.451 37.5391 192.672 37.2266 192.906 36.9141C193.167 36.6016 193.427 36.3151 193.688 36.0547C193.948 35.7943 194.208 35.5859 194.469 35.4297C194.859 35.4036 195.12 35.4948 195.25 35.7031C195.38 35.8854 195.576 35.9766 195.836 35.9766C196.174 36.0547 196.396 36.1589 196.5 36.2891C196.604 36.4193 196.721 36.5495 196.852 36.6797C197.216 36.6797 197.503 36.7448 197.711 36.875C197.945 37.0052 198.167 37.2005 198.375 37.4609C198.297 37.7474 198.18 38.0078 198.023 38.2422C197.867 38.4505 197.724 38.6719 197.594 38.9062C197.385 39.0104 197.229 39.1536 197.125 39.3359C197.047 39.5182 196.917 39.6615 196.734 39.7656C196.474 40.2083 196.201 40.638 195.914 41.0547C195.628 41.4453 195.341 41.8359 195.055 42.2266C194.898 42.4609 194.729 42.6693 194.547 42.8516C194.391 43.0339 194.247 43.2292 194.117 43.4375C194.065 43.5156 194.013 43.6068 193.961 43.7109C193.935 43.7891 193.896 43.8672 193.844 43.9453C193.531 44.4401 193.193 44.9089 192.828 45.3516C192.464 45.7682 192.125 46.237 191.812 46.7578C191.708 46.9401 191.617 47.1354 191.539 47.3438C191.487 47.526 191.409 47.7083 191.305 47.8906C191.201 48.0469 191.044 48.2552 190.836 48.5156C190.654 48.776 190.471 49.0625 190.289 49.375C190.107 49.6615 189.938 49.9479 189.781 50.2344C189.651 50.4948 189.586 50.7161 189.586 50.8984C189.612 51.0286 189.768 51.2891 190.055 51.6797C190.367 52.0443 190.706 52.4479 191.07 52.8906C191.461 53.3073 191.826 53.7109 192.164 54.1016C192.503 54.4661 192.724 54.6875 192.828 54.7656ZM195.406 47.6562C195.589 48.0469 195.784 48.3854 195.992 48.6719C196.07 48.776 196.161 48.8672 196.266 48.9453C196.37 49.0234 196.448 49.1276 196.5 49.2578C196.552 49.3099 196.604 49.4271 196.656 49.6094C196.708 49.7656 196.76 49.8828 196.812 49.9609C196.891 50.1693 197.047 50.4036 197.281 50.6641C197.516 50.9245 197.633 51.1589 197.633 51.3672C197.633 51.4974 197.607 51.6406 197.555 51.7969C197.503 51.9531 197.464 52.0964 197.438 52.2266C197.411 52.3828 197.398 52.5521 197.398 52.7344C197.398 52.8906 197.346 53.0339 197.242 53.1641C197.112 53.2943 196.969 53.3724 196.812 53.3984C196.656 53.4245 196.513 53.4896 196.383 53.5938C196.331 53.6458 196.253 53.737 196.148 53.8672C196.044 53.9974 195.94 54.1406 195.836 54.2969C195.732 54.4531 195.628 54.6094 195.523 54.7656C195.445 54.8958 195.406 55 195.406 55.0781C195.094 55.1042 194.885 55.1172 194.781 55.1172C194.703 55.0911 194.612 55.0911 194.508 55.1172C194.378 54.987 194.234 54.8828 194.078 54.8047C193.948 54.7005 193.779 54.6094 193.57 54.5312C193.518 54.3229 193.401 54.0885 193.219 53.8281C193.036 53.5417 192.88 53.3073 192.75 53.125L192.477 52.7734C192.086 52.2266 191.721 51.7057 191.383 51.2109C191.07 50.6901 190.836 50.1172 190.68 49.4922C191.174 49.1276 191.552 48.8542 191.812 48.6719C192.099 48.4896 192.398 48.3203 192.711 48.1641C193.023 48.0078 193.323 47.8646 193.609 47.7344C193.922 47.5781 194.208 47.3958 194.469 47.1875C194.677 47.1875 194.82 47.2005 194.898 47.2266C194.977 47.2526 195.029 47.2786 195.055 47.3047C195.081 47.3307 195.107 47.3828 195.133 47.4609C195.185 47.513 195.276 47.5781 195.406 47.6562Z" fill="black"/>
</g>
<path d="M26.07 84.25C26.07 85.3433 25.6833 86.2767 24.91 87.05C24.1433 87.8167 23.2133 88.2 22.12 88.2C21.0133 88.2 20.06 87.83 19.26 87.09C18.4667 86.3433 18.07 85.43 18.07 84.35C18.07 83.2567 18.4533 82.3267 19.22 81.56C19.9933 80.7867 20.9267 80.4 22.02 80.4C23.1267 80.4 24.0767 80.7733 24.87 81.52C25.67 82.26 26.07 83.17 26.07 84.25ZM25.15 84.23C25.15 83.3833 24.8433 82.6667 24.23 82.08C23.6167 81.4933 22.88 81.2 22.02 81.2C21.1733 81.2 20.4567 81.5067 19.87 82.12C19.2833 82.7333 18.99 83.47 18.99 84.33C18.99 85.1767 19.2933 85.8933 19.9 86.48C20.5133 87.06 21.2533 87.35 22.12 87.35C22.9667 87.35 23.6833 87.0433 24.27 86.43C24.8567 85.8167 25.15 85.0833 25.15 84.23ZM34.32 82.43C34.3267 82.55 34.33 82.6367 34.33 82.69C34.33 83.21 34.1633 83.6567 33.83 84.03C33.4967 84.3967 33.06 84.6067 32.52 84.66L30.97 84.68V88H30.06V80.6L32.46 80.62C32.9867 80.68 33.4267 80.8733 33.78 81.2C34.14 81.52 34.32 81.93 34.32 82.43ZM32.66 81.5C32.5067 81.4467 32.3433 81.4067 32.17 81.38H30.97V83.92H32.46C32.7467 83.8333 32.9733 83.67 33.14 83.43C33.3067 83.1833 33.39 82.9133 33.39 82.62C33.39 82.3733 33.33 82.15 33.21 81.95C33.09 81.75 32.9067 81.6 32.66 81.5ZM43.91 88H39.89V80.6H43.91V81.4H40.8V83.59H43.91V84.35H40.78V87.2H43.91V88ZM55.31 88.16H55.13L49.73 82.22V88H48.9V80.42H49.11L54.46 86.36V80.6H55.31V88.16ZM74.14 81.89L73.35 82.26C73.2767 81.9533 73.1 81.7067 72.82 81.52C72.54 81.3267 72.2333 81.23 71.9 81.23C71.6533 81.23 71.4367 81.28 71.25 81.38C71.0633 81.4733 70.91 81.63 70.79 81.85C70.71 82.03 70.67 82.2133 70.67 82.4C70.67 82.8467 70.88 83.1833 71.3 83.41L73.2 84.11C73.5467 84.3033 73.81 84.5667 73.99 84.9C74.1767 85.2267 74.27 85.5767 74.27 85.95C74.27 86.27 74.2033 86.5767 74.07 86.87C73.9433 87.1633 73.75 87.4233 73.49 87.65C73.0233 87.9767 72.5 88.14 71.92 88.14C71.4 88.14 70.9233 88.01 70.49 87.75C70.2567 87.5767 70.0767 87.3833 69.95 87.17C69.83 86.95 69.72 86.6667 69.62 86.32L70.43 85.91C70.43 86.33 70.58 86.68 70.88 86.96C71.18 87.24 71.5333 87.38 71.94 87.38C72.1 87.38 72.2567 87.3567 72.41 87.31C72.57 87.2567 72.7233 87.1733 72.87 87.06C73.0233 86.9467 73.1433 86.7933 73.23 86.6C73.3233 86.4067 73.37 86.2033 73.37 85.99C73.37 85.67 73.2967 85.4333 73.15 85.28C73.01 85.1267 72.8967 85.0233 72.81 84.97C72.73 84.9167 72.5633 84.8333 72.31 84.72L71.03 84.27C70.65 84.09 70.3433 83.8467 70.11 83.54C69.8767 83.2267 69.76 82.8733 69.76 82.48C69.76 82.38 69.7833 82.2 69.83 81.94C69.8833 81.6733 70.0433 81.3933 70.31 81.1C70.5767 80.8067 70.8667 80.63 71.18 80.57C71.5 80.5033 71.7833 80.47 72.03 80.47C72.1367 80.47 72.22 80.4733 72.28 80.48C72.34 80.4867 72.4933 80.5167 72.74 80.57C72.9933 80.6167 73.26 80.76 73.54 81C73.8267 81.24 74.0267 81.5367 74.14 81.89ZM86.07 84.25C86.07 85.3433 85.6833 86.2767 84.91 87.05C84.1433 87.8167 83.2133 88.2 82.12 88.2C81.0133 88.2 80.06 87.83 79.26 87.09C78.4667 86.3433 78.07 85.43 78.07 84.35C78.07 83.2567 78.4533 82.3267 79.22 81.56C79.9933 80.7867 80.9267 80.4 82.02 80.4C83.1267 80.4 84.0767 80.7733 84.87 81.52C85.67 82.26 86.07 83.17 86.07 84.25ZM85.15 84.23C85.15 83.3833 84.8433 82.6667 84.23 82.08C83.6167 81.4933 82.88 81.2 82.02 81.2C81.1733 81.2 80.4567 81.5067 79.87 82.12C79.2833 82.7333 78.99 83.47 78.99 84.33C78.99 85.1767 79.2933 85.8933 79.9 86.48C80.5133 87.06 81.2533 87.35 82.12 87.35C82.9667 87.35 83.6833 87.0433 84.27 86.43C84.8567 85.8167 85.15 85.0833 85.15 84.23ZM95.02 80.6L95 85.64C95 86.08 94.8767 86.5033 94.63 86.91C94.3833 87.31 94.0633 87.6133 93.67 87.82C93.1233 88.0667 92.5567 88.19 91.97 88.19C91.3833 88.19 90.8567 88.06 90.39 87.8C89.9233 87.54 89.6133 87.2367 89.46 86.89C89.3067 86.5367 89.2067 86.27 89.16 86.09C89.12 85.91 89.1 85.7467 89.1 85.6V80.6H89.99V85.6C90.0367 85.9467 90.1367 86.26 90.29 86.54C90.4433 86.8133 90.6633 87.02 90.95 87.16C91.3233 87.32 91.7 87.4 92.08 87.4C92.38 87.4 92.6567 87.3533 92.91 87.26C93.1633 87.16 93.3767 87.01 93.55 86.81C93.73 86.61 93.8667 86.4133 93.96 86.22C94.06 86.02 94.11 85.8133 94.11 85.6V85.52V80.6H95.02ZM104.9 88H103.7L100.92 84.21V88H99.99V80.6L102.73 80.62C103.257 80.62 103.687 80.82 104.02 81.22C104.36 81.62 104.53 82.0833 104.53 82.61C104.53 82.89 104.48 83.15 104.38 83.39C104.287 83.63 104.13 83.85 103.91 84.05C103.663 84.25 103.393 84.3933 103.1 84.48H102.12L104.9 88ZM102.87 81.48C102.783 81.4467 102.69 81.42 102.59 81.4C102.497 81.3733 102.41 81.36 102.33 81.36H100.92V83.84H102.57C102.89 83.84 103.137 83.73 103.31 83.51C103.49 83.2833 103.58 83.01 103.58 82.69C103.58 82.4233 103.52 82.18 103.4 81.96C103.28 81.74 103.103 81.58 102.87 81.48ZM114.68 87.67C114.333 87.8167 113.98 87.93 113.62 88.01C113.267 88.09 112.907 88.13 112.54 88.13C112.027 88.13 111.537 88.0467 111.07 87.88C110.603 87.7133 110.177 87.46 109.79 87.12C109.003 86.32 108.61 85.3767 108.61 84.29C108.61 83.5833 108.763 82.9767 109.07 82.47C109.383 81.9633 109.687 81.5767 109.98 81.31C110.28 81.0367 110.563 80.8467 110.83 80.74C111.103 80.6267 111.323 80.55 111.49 80.51C111.663 80.47 111.837 80.44 112.01 80.42C112.19 80.4 112.363 80.39 112.53 80.39C112.777 80.39 113.037 80.4133 113.31 80.46C113.583 80.5 113.857 80.56 114.13 80.64L114.68 80.89V81.87C114.06 81.43 113.38 81.21 112.64 81.21C112.14 81.21 111.673 81.3133 111.24 81.52C110.807 81.72 110.433 82.03 110.12 82.45C109.94 82.7167 109.8 83.0067 109.7 83.32C109.607 83.6333 109.56 83.9533 109.56 84.28C109.56 84.8467 109.7 85.38 109.98 85.88C110.267 86.3733 110.657 86.7467 111.15 87C111.65 87.2467 112.157 87.37 112.67 87.37C113.223 87.37 113.72 87.2333 114.16 86.96L114.68 86.63V87.67ZM123.91 88H119.89V80.6H123.91V81.4H120.8V83.59H123.91V84.35H120.78V87.2H123.91V88ZM144.32 82.43C144.327 82.55 144.33 82.6367 144.33 82.69C144.33 83.21 144.163 83.6567 143.83 84.03C143.497 84.3967 143.06 84.6067 142.52 84.66L140.97 84.68V88H140.06V80.6L142.46 80.62C142.987 80.68 143.427 80.8733 143.78 81.2C144.14 81.52 144.32 81.93 144.32 82.43ZM142.66 81.5C142.507 81.4467 142.343 81.4067 142.17 81.38H140.97V83.92H142.46C142.747 83.8333 142.973 83.67 143.14 83.43C143.307 83.1833 143.39 82.9133 143.39 82.62C143.39 82.3733 143.33 82.15 143.21 81.95C143.09 81.75 142.907 81.6 142.66 81.5ZM154.9 88H153.7L150.92 84.21V88H149.99V80.6L152.73 80.62C153.257 80.62 153.687 80.82 154.02 81.22C154.36 81.62 154.53 82.0833 154.53 82.61C154.53 82.89 154.48 83.15 154.38 83.39C154.287 83.63 154.13 83.85 153.91 84.05C153.663 84.25 153.393 84.3933 153.1 84.48H152.12L154.9 88ZM152.87 81.48C152.783 81.4467 152.69 81.42 152.59 81.4C152.497 81.3733 152.41 81.36 152.33 81.36H150.92V83.84H152.57C152.89 83.84 153.137 83.73 153.31 83.51C153.49 83.2833 153.58 83.01 153.58 82.69C153.58 82.4233 153.52 82.18 153.4 81.96C153.28 81.74 153.103 81.58 152.87 81.48ZM166.07 84.25C166.07 85.3433 165.683 86.2767 164.91 87.05C164.143 87.8167 163.213 88.2 162.12 88.2C161.013 88.2 160.06 87.83 159.26 87.09C158.467 86.3433 158.07 85.43 158.07 84.35C158.07 83.2567 158.453 82.3267 159.22 81.56C159.993 80.7867 160.927 80.4 162.02 80.4C163.127 80.4 164.077 80.7733 164.87 81.52C165.67 82.26 166.07 83.17 166.07 84.25ZM165.15 84.23C165.15 83.3833 164.843 82.6667 164.23 82.08C163.617 81.4933 162.88 81.2 162.02 81.2C161.173 81.2 160.457 81.5067 159.87 82.12C159.283 82.7333 158.99 83.47 158.99 84.33C158.99 85.1767 159.293 85.8933 159.9 86.48C160.513 87.06 161.253 87.35 162.12 87.35C162.967 87.35 163.683 87.0433 164.27 86.43C164.857 85.8167 165.15 85.0833 165.15 84.23ZM173.15 86.85C173.043 87.19 172.89 87.47 172.69 87.69C172.497 87.91 172.287 88.0367 172.06 88.07C171.84 88.11 171.667 88.13 171.54 88.13C170.873 88.13 170.34 87.89 169.94 87.41L170.51 86.79C170.617 86.9433 170.767 87.08 170.96 87.2C171.153 87.32 171.34 87.38 171.52 87.38C171.733 87.38 171.887 87.32 171.98 87.2C172.073 87.08 172.137 86.9733 172.17 86.88C172.21 86.78 172.247 86.6667 172.28 86.54V80.6H173.15V86.85ZM183.91 88H179.89V80.6H183.91V81.4H180.8V83.59H183.91V84.35H180.78V87.2H183.91V88ZM194.68 87.67C194.333 87.8167 193.98 87.93 193.62 88.01C193.267 88.09 192.907 88.13 192.54 88.13C192.027 88.13 191.537 88.0467 191.07 87.88C190.603 87.7133 190.177 87.46 189.79 87.12C189.003 86.32 188.61 85.3767 188.61 84.29C188.61 83.5833 188.763 82.9767 189.07 82.47C189.383 81.9633 189.687 81.5767 189.98 81.31C190.28 81.0367 190.563 80.8467 190.83 80.74C191.103 80.6267 191.323 80.55 191.49 80.51C191.663 80.47 191.837 80.44 192.01 80.42C192.19 80.4 192.363 80.39 192.53 80.39C192.777 80.39 193.037 80.4133 193.31 80.46C193.583 80.5 193.857 80.56 194.13 80.64L194.68 80.89V81.87C194.06 81.43 193.38 81.21 192.64 81.21C192.14 81.21 191.673 81.3133 191.24 81.52C190.807 81.72 190.433 82.03 190.12 82.45C189.94 82.7167 189.8 83.0067 189.7 83.32C189.607 83.6333 189.56 83.9533 189.56 84.28C189.56 84.8467 189.7 85.38 189.98 85.88C190.267 86.3733 190.657 86.7467 191.15 87C191.65 87.2467 192.157 87.37 192.67 87.37C193.223 87.37 193.72 87.2333 194.16 86.96L194.68 86.63V87.67ZM204.55 81.38H202.42V88H201.5V81.38H199.37V80.6H204.55V81.38Z" fill="#555555"/>
<g clip-path="url(#clip0_22_94)">
<mask id="mask1_22_94" style="mask-type:luminance" maskUnits="userSpaceOnUse" x="20" y="30" width="40" height="40">
<path d="M60 30H20V70H60V30Z" fill="white"/>
</mask>
<g mask="url(#mask1_22_94)">
<mask id="mask2_22_94" style="mask-type:alpha" maskUnits="userSpaceOnUse" x="21" y="31" width="38" height="38">
<path d="M58.5185 31.4814H21.4814V68.5185H58.5185V31.4814Z" fill="#EB1414"/>
</mask>
<g mask="url(#mask2_22_94)">
<path d="M58.5185 31.4814H21.4814V68.5185H58.5185V31.4814Z" fill="#EB1414"/>
<path d="M33.9851 68.5185V47.3629H36.6518L43.4666 51.2148V54.1185L41.037 58.2962L44.9184 68.5185H42.074L38.2221 58.1481L41.2147 52.9629L36.6518 50.3851V68.5185H33.9851ZM52.1474 68.5185V58.2074L47.14 55.274L48.2067 53.4074L52.1474 55.7481V47.3629H54.8141V57.3185L59.7919 60.2518L58.7548 62.0296L54.8141 59.7481V68.5185H52.1474Z" fill="white"/>
</g>
</g>
</g>
<defs>
<clipPath id="clip0_22_94">
<rect width="40" height="40" fill="white" transform="translate(20 30)"/>
</clipPath>
</defs>
</svg>
