<svg width="153" height="38" viewBox="0 0 153 38" fill="none" xmlns="http://www.w3.org/2000/svg">
<g clip-path="url(#clip0_23_296)">
<g clip-path="url(#clip1_23_296)">
<mask id="mask0_23_296" style="mask-type:luminance" maskUnits="userSpaceOnUse" x="0" y="0" width="38" height="38">
<path d="M38 0H0V38H38V0Z" fill="white"/>
</mask>
<g mask="url(#mask0_23_296)">
<mask id="mask1_23_296" style="mask-type:alpha" maskUnits="userSpaceOnUse" x="1" y="1" width="36" height="36">
<path d="M36.5927 1.40747H1.40747V36.5927H36.5927V1.40747Z" fill="#EB1414"/>
</mask>
<g mask="url(#mask1_23_296)">
<path d="M36.5927 1.40747H1.40747V36.5927H36.5927V1.40747Z" fill="#EB1414"/>
<path d="M13.2859 36.5927V16.4949H15.8192L22.2933 20.1541V22.9127L19.9851 26.8815L23.6726 36.5927H20.9703L17.3111 26.7408L20.154 21.8149L15.8192 19.366V36.5927H13.2859ZM30.5401 36.5927V26.7971L25.783 24.0104L26.7964 22.2371L30.5401 24.4608V16.4949H33.0734V25.9527L37.8023 28.7393L36.8171 30.4282L33.0734 28.2608V36.5927H30.5401Z" fill="white"/>
</g>
</g>
</g>
<g clip-path="url(#clip2_23_296)">
<mask id="mask2_23_296" style="mask-type:luminance" maskUnits="userSpaceOnUse" x="38" y="3" width="115" height="31">
<path d="M153 3H38V34H153V3Z" fill="white"/>
</mask>
<g mask="url(#mask2_23_296)">
<path d="M62.9158 26.862C62.8947 27.1806 62.9579 27.4249 63.1056 27.5949C63.2743 27.7436 63.4114 27.9348 63.5168 28.1685C63.4746 28.4659 63.5063 28.6996 63.6117 28.8695C63.5485 28.997 63.4852 29.1458 63.4219 29.3157C63.3587 29.4644 63.2638 29.5919 63.1373 29.6981C62.7998 29.8469 62.5994 29.9743 62.5362 30.0805C62.4729 30.1867 62.3463 30.2398 62.1565 30.2398C62.0511 30.346 61.9351 30.4522 61.8085 30.5585C61.682 30.686 61.566 30.8028 61.4606 30.909C61.3551 30.8666 61.2813 30.8135 61.2391 30.7497C61.1969 30.686 61.1337 30.601 61.0493 30.4947C60.8384 30.431 60.6486 30.3142 60.4799 30.1442C60.3112 29.9955 60.1635 29.8256 60.0369 29.6343C59.9104 29.4219 59.7839 29.2095 59.6574 28.997C59.5519 28.7633 59.457 28.5509 59.3726 28.3597C59.0773 27.8074 58.7715 27.255 58.4552 26.7026C58.1599 26.1291 57.8541 25.5661 57.5378 25.0137C57.3691 24.7375 57.2003 24.4613 57.0316 24.1852C56.884 23.8878 56.7258 23.5903 56.5571 23.2929C56.515 23.2504 56.4728 23.2079 56.4306 23.1655C56.3884 23.1017 56.3462 23.0379 56.3041 22.9742C56.1564 22.7618 56.0404 22.5281 55.9561 22.2731C55.8928 21.997 55.7452 21.7739 55.5132 21.604C55.1124 21.5614 54.7434 21.6252 54.4059 21.7952C54.0896 21.9439 53.8048 22.1457 53.5518 22.4006C53.5729 22.5493 53.5834 22.6874 53.5834 22.8149C53.5834 22.9423 53.5834 23.0698 53.5834 23.1973C53.5834 23.6859 53.5623 24.1533 53.5202 24.5994C53.478 25.0455 53.4568 25.513 53.4568 26.0015C53.4568 26.214 53.4675 26.4371 53.4885 26.6707C53.5096 26.8832 53.5412 27.0957 53.5834 27.3081C53.5202 27.5418 53.4885 27.7967 53.4885 28.0729C53.4885 28.2216 53.499 28.3597 53.5202 28.4872C53.5623 28.6146 53.5834 28.7527 53.5834 28.9014C53.5834 29.1139 53.5096 29.2626 53.362 29.3476C53.2354 29.4113 53.1932 29.5387 53.2354 29.7299C52.9823 29.8362 52.7398 29.9424 52.5079 30.0486C52.2758 30.1549 52.0333 30.2292 51.7802 30.2717C51.6747 30.2929 51.5693 30.2929 51.4639 30.2717C51.3584 30.2717 51.2635 30.2929 51.1791 30.3354C51.0737 30.3779 50.9894 30.4522 50.926 30.5585C50.8628 30.686 50.7784 30.7497 50.673 30.7497C50.5465 30.7497 50.4726 30.6966 50.4515 30.5904C50.4305 30.5054 50.3883 30.431 50.325 30.3673C50.2195 30.3248 50.1352 30.3036 50.0719 30.3036C50.0086 30.3036 49.9454 30.2717 49.8821 30.208C49.9032 30.0168 49.861 29.8787 49.7555 29.7937C49.6501 29.6874 49.5974 29.4856 49.5974 29.1883C49.5974 28.9545 49.6079 28.7315 49.629 28.519C49.6712 28.3066 49.6923 28.0835 49.6923 27.8498C49.6923 27.6587 49.6606 27.4886 49.5974 27.3399C49.5552 27.17 49.513 26.9894 49.4709 26.7982C49.4497 26.7132 49.4497 26.6282 49.4709 26.5433C49.4919 26.4583 49.5025 26.3733 49.5025 26.2884C49.5025 25.9059 49.4814 25.5236 49.4392 25.1411C49.4182 24.7375 49.4075 24.3445 49.4075 23.9621C49.4075 23.8134 49.4075 23.6753 49.4075 23.5478C49.4075 23.4203 49.4182 23.2929 49.4392 23.1655C49.4814 23.0379 49.513 22.9317 49.5341 22.8467C49.5763 22.7618 49.5974 22.6556 49.5974 22.5281C49.5974 22.1244 49.5552 21.7314 49.4709 21.349C49.3865 20.9454 49.3443 20.5523 49.3443 20.17C49.3443 19.9575 49.3443 19.745 49.3443 19.5326C49.3654 19.2989 49.376 19.0758 49.376 18.8634C49.376 18.2473 49.3654 17.6418 49.3443 17.047C49.3232 16.4522 49.3127 15.8573 49.3127 15.2624C49.3127 14.8375 49.3232 14.4233 49.3443 14.0196C49.3654 13.5948 49.376 13.1698 49.376 12.745C49.376 12.2139 49.3548 11.6933 49.3127 11.1835C49.2705 10.6524 49.2494 10.1107 49.2494 9.5583C49.2494 9.3671 49.2389 9.23963 49.2178 9.1759C49.1967 9.11217 49.1651 9.08029 49.1229 9.08029C49.0807 9.05905 49.028 9.04843 48.9647 9.04843C48.9225 9.02718 48.8803 8.9847 48.8381 8.92096C48.8381 8.79349 48.8909 8.70852 48.9963 8.66603C49.1017 8.6023 49.1545 8.42171 49.1545 8.12429C49.1545 7.95434 49.1334 7.78438 49.0912 7.61442C49.0702 7.44447 49.0596 7.27451 49.0596 7.10456C49.0596 6.84962 49.1124 6.59469 49.2178 6.33975C49.3232 6.08482 49.4182 5.84051 49.5025 5.60682C49.7555 5.58557 49.9243 5.58557 50.0086 5.60682C50.1141 5.62806 50.2195 5.61744 50.325 5.57495C50.3883 5.80864 50.5253 5.93611 50.7363 5.95735C50.9472 5.95735 51.137 5.9786 51.3057 6.02108C51.4955 6.04233 51.6747 6.09544 51.8435 6.18042C52.0333 6.24415 52.2126 6.27602 52.3813 6.27602C52.4235 6.40349 52.5078 6.49909 52.6343 6.56282C52.782 6.60531 52.9296 6.6478 53.0773 6.69029C53.246 6.66905 53.3725 6.59469 53.4568 6.46722C53.5623 6.33975 53.6994 6.27602 53.8682 6.27602C53.9947 6.27602 54.1423 6.37162 54.311 6.56282C54.4798 6.73278 54.6063 6.87087 54.6907 6.97709C54.775 7.04082 54.9332 7.17892 55.1652 7.39136C55.3972 7.6038 55.6503 7.82687 55.9244 8.06056C56.1986 8.273 56.4517 8.48545 56.6836 8.6979C56.9157 8.8891 57.0633 8.99532 57.1266 9.01656C57.9912 9.88759 58.7927 10.6843 59.5308 11.4066C60.29 12.1077 61.1126 12.745 61.9983 13.3185C62.0195 13.3823 62.0405 13.4354 62.0616 13.478C62.1038 13.5204 62.146 13.5735 62.1882 13.6373C62.1882 13.8072 62.1565 13.9346 62.0933 14.0196C62.03 14.1046 61.9983 14.2109 61.9983 14.3383C61.9983 14.4021 62.0089 14.4658 62.03 14.5295C62.0722 14.5932 62.0933 14.657 62.0933 14.7207C62.1143 14.8057 62.1143 14.8907 62.0933 14.9757C62.0933 15.0394 62.0933 15.1138 62.0933 15.1987C62.0933 15.4111 62.1565 15.6024 62.2831 15.7723C62.4307 15.9423 62.5045 16.1335 62.5045 16.3459C62.4623 16.5372 62.378 16.654 62.2514 16.6965C62.1249 16.7389 62.0195 16.792 61.9351 16.8558C61.8929 16.8983 61.8507 16.9514 61.8085 17.0151C61.7875 17.0788 61.7558 17.132 61.7136 17.1745C61.2496 17.3869 60.9122 17.5887 60.7013 17.7799C60.4904 17.9499 60.269 18.1199 60.0369 18.2898C59.9737 18.3323 59.8683 18.4066 59.7206 18.5128C59.573 18.5978 59.4253 18.6935 59.2777 18.7997C59.1301 18.8847 58.993 18.9802 58.8665 19.0865C58.761 19.1927 58.7083 19.2776 58.7083 19.3414C58.7083 19.4901 58.7927 19.7026 58.9614 19.9787C59.1512 20.2337 59.2883 20.4355 59.3726 20.5842C59.6046 20.9666 59.8155 21.349 60.0054 21.7314C60.1951 22.0925 60.4061 22.4538 60.638 22.8149C61.0599 23.4735 61.45 24.1427 61.8085 24.8225C62.1882 25.5023 62.5572 26.1822 62.9158 26.862ZM57.7592 15.0076C57.2742 14.3914 56.7469 13.8391 56.1775 13.3504C55.6291 12.8406 55.1019 12.3095 54.5957 11.7571L54.2478 11.6933C54.1212 11.4809 53.9736 11.3004 53.8048 11.1516C53.6572 10.9817 53.499 10.8117 53.3303 10.6418C53.3514 10.8755 53.362 11.0985 53.362 11.311C53.362 11.5234 53.362 11.7465 53.362 11.9802C53.362 12.66 53.3409 13.3292 53.2987 13.9878C53.2776 14.6251 53.2671 15.2731 53.2671 15.9317C53.2671 16.5903 53.2987 17.217 53.362 17.8118C53.8048 17.8118 54.2056 17.6843 54.5641 17.4294C54.7117 17.3232 54.8488 17.217 54.9753 17.1107C55.1019 16.9832 55.239 16.8664 55.3867 16.7602C55.5553 16.654 55.7452 16.5265 55.9561 16.3778C56.188 16.229 56.4095 16.0804 56.6204 15.9317C56.8523 15.783 57.0633 15.6342 57.2531 15.4855C57.464 15.3156 57.6327 15.1562 57.7592 15.0076ZM89.6791 26.0972C89.4682 26.1184 89.3416 26.1078 89.2995 26.0653C89.2151 26.1078 89.1307 26.1503 89.0463 26.1928C88.9831 26.2353 88.9093 26.2884 88.8249 26.3521C88.5297 26.4583 88.2344 26.5964 87.9392 26.7663C87.665 26.9363 87.3803 27.0957 87.085 27.2444C86.9163 27.3293 86.7476 27.4037 86.5789 27.4674C86.4312 27.5099 86.2731 27.5737 86.1043 27.6587C85.8512 27.7861 85.5981 27.9242 85.345 28.0729C85.092 28.2003 84.8284 28.3172 84.5542 28.4235C84.4066 28.4659 84.2589 28.5084 84.1113 28.5509C83.9847 28.5934 83.8477 28.6359 83.7001 28.6784C83.5314 28.7421 83.3731 28.8164 83.2256 28.9014C83.099 28.9651 82.9619 29.0289 82.8142 29.0927C82.7088 29.1352 82.5928 29.1776 82.4662 29.2201C82.3608 29.2414 82.2448 29.2839 82.1183 29.3476C82.0129 29.3901 81.918 29.4432 81.8336 29.5069C81.7703 29.5706 81.6859 29.6237 81.5805 29.6662C81.4118 29.7299 81.2325 29.7937 81.0427 29.8575C80.874 29.9212 80.7053 29.9955 80.5365 30.0805C80.3678 30.1655 80.2413 30.2398 80.1569 30.3036C80.0937 30.3885 79.9566 30.4629 79.7457 30.5266C79.5348 30.6541 79.4187 30.7179 79.3977 30.7179C79.3765 30.7391 79.345 30.7497 79.3028 30.7497C79.2395 30.7922 79.1763 30.8241 79.1129 30.8453C79.0707 30.8878 79.018 30.9303 78.9548 30.9728C78.8283 30.9728 78.7017 30.9834 78.5752 31.0046C78.4486 31.0259 78.3221 31.0365 78.1955 31.0365C78.0479 30.9515 77.9424 30.8666 77.8792 30.7816C77.837 30.6966 77.8159 30.5798 77.8159 30.431C77.7316 30.3248 77.6472 30.208 77.5629 30.0805C77.4995 29.9531 77.4258 29.8362 77.3414 29.7299C77.1937 29.815 77.0988 29.815 77.0567 29.7299C77.0356 29.6237 77.0145 29.5175 76.9934 29.4113C76.9723 29.2839 76.9513 29.167 76.9301 29.0608C76.9091 28.9333 76.8879 28.8483 76.8669 28.8058C76.7614 28.4022 76.7087 28.1047 76.7087 27.9136C76.7087 27.8074 76.7298 27.7436 76.772 27.7224C76.8142 27.6799 76.8352 27.6268 76.8352 27.563C76.8563 27.3506 76.8774 27.1063 76.8985 26.8301C76.9196 26.5539 76.9301 26.2671 76.9301 25.9696C76.9301 25.6723 76.9301 25.3749 76.9301 25.0774C76.9301 24.78 76.9301 24.5144 76.9301 24.2807C76.9301 23.3248 76.9196 22.4006 76.8985 21.5083C76.8774 20.5948 76.8669 19.6813 76.8669 18.7678C76.8669 18.3429 76.8774 17.9181 76.8985 17.4931C76.9196 17.0682 76.9301 16.6434 76.9301 16.2184C76.9301 15.1775 76.9407 14.1471 76.9618 13.1274C77.004 12.1077 77.025 11.0773 77.025 10.0363C77.025 9.61141 77.004 9.18652 76.9618 8.76163C76.9196 8.31549 76.8879 7.86936 76.8669 7.42323C76.8457 7.18954 76.8563 7.00895 76.8985 6.88149C76.9407 6.73278 76.9513 6.58407 76.9301 6.43536C76.9934 6.41411 77.1094 6.40349 77.2781 6.40349C77.4468 6.40349 77.6156 6.40349 77.7843 6.40349C77.9741 6.38224 78.1428 6.37162 78.2904 6.37162C78.4591 6.35038 78.5646 6.32913 78.6068 6.30789C78.7544 6.41411 78.902 6.46722 79.0497 6.46722C79.1973 6.46722 79.3344 6.40349 79.4609 6.27602C79.5664 6.31851 79.6191 6.35038 79.6191 6.37162C79.6402 6.39286 79.7035 6.40349 79.8089 6.40349C79.9988 6.38224 80.1464 6.37162 80.2518 6.37162C80.3573 6.35038 80.4522 6.33975 80.5365 6.33975C80.7685 6.50971 80.9056 6.72216 80.9478 6.97709C81.0111 7.21078 81.0533 7.46571 81.0743 7.74189C81.0954 7.99683 81.106 8.26238 81.106 8.53856C81.1271 8.79349 81.1376 9.00594 81.1376 9.1759C81.1376 9.30336 81.1481 9.44145 81.1692 9.59016C81.1903 9.71764 81.2009 9.85573 81.2009 10.0044C81.2009 10.1107 81.1903 10.2169 81.1692 10.3231C81.1692 10.4293 81.1692 10.5355 81.1692 10.6418C81.1692 11.2579 81.1692 11.8846 81.1692 12.5219C81.1903 13.1592 81.2009 13.786 81.2009 14.4021C81.2009 15.5067 81.1798 16.6221 81.1376 17.748C81.1165 18.8528 81.106 19.9575 81.106 21.0622C81.106 21.2959 81.1165 21.5296 81.1376 21.7633C81.1587 21.997 81.1692 22.2306 81.1692 22.4644C81.1692 22.5918 81.1587 22.7193 81.1376 22.8467C81.1376 22.9742 81.1376 23.1017 81.1376 23.2292C81.1376 24.0152 81.1693 24.8013 81.2325 25.5873C81.3169 25.5661 81.4961 25.513 81.7703 25.428C82.0445 25.3217 82.3292 25.2155 82.6245 25.1093C82.9197 24.9818 83.1939 24.865 83.447 24.7588C83.7001 24.6313 83.8582 24.5357 83.9215 24.4719C84.0059 24.4719 84.1218 24.44 84.2695 24.3763C84.4171 24.3126 84.5753 24.2383 84.744 24.1533C84.9127 24.0471 85.0709 23.9515 85.2185 23.8665C85.3872 23.7815 85.5032 23.7071 85.5665 23.6434C85.5454 23.2186 85.5349 22.7936 85.5349 22.3688C85.5349 21.9226 85.5349 21.4871 85.5349 21.0622C85.5349 19.8937 85.5454 18.7253 85.5665 17.5569C85.6087 16.3884 85.6298 15.1987 85.6298 13.9878C85.6298 13.2442 85.6193 12.5006 85.5981 11.7571C85.5771 11.0136 85.5665 10.27 85.5665 9.52643C85.5665 9.29274 85.5665 9.05905 85.5665 8.82536C85.5876 8.57042 85.5981 8.32612 85.5981 8.09243C85.5981 7.73127 85.5876 7.38073 85.5665 7.04082C85.5665 6.67967 85.5876 6.31851 85.6298 5.95735C85.8407 5.85113 85.9567 5.79802 85.9778 5.79802C86.1043 5.79802 86.1887 5.79802 86.2309 5.79802C86.2941 5.79802 86.3468 5.81926 86.389 5.86175C86.4523 5.88299 86.505 5.89362 86.5472 5.89362C86.6105 5.87237 86.6738 5.86175 86.737 5.86175C86.8425 5.86175 86.9479 5.88299 87.0534 5.92549C87.1588 5.96797 87.2642 5.98922 87.3697 5.98922C87.5385 5.96797 87.6228 5.98922 87.6228 6.05295C87.6439 6.11668 87.6861 6.14856 87.7494 6.14856C87.918 6.08482 88.034 6.08482 88.0974 6.14856C88.1606 6.19104 88.2766 6.25477 88.4453 6.33975C88.614 6.40349 88.7933 6.47784 88.9831 6.56282C89.1729 6.6478 89.3416 6.73278 89.4893 6.81776C89.6369 6.88149 89.7108 6.94522 89.7108 7.00895C89.774 7.34887 89.7951 7.71003 89.774 8.09243C89.7529 8.47483 89.7423 8.83599 89.7423 9.1759C89.7423 9.47332 89.7529 9.77074 89.774 10.0682C89.7951 10.3656 89.8057 10.663 89.8057 10.9604C89.8057 11.1304 89.8057 11.3004 89.8057 11.4703C89.8057 11.6402 89.8162 11.7996 89.8373 11.9483C89.8584 12.0546 89.8689 12.1501 89.8689 12.2351C89.8689 12.2988 89.8689 12.3732 89.8689 12.4582C89.8689 12.5644 89.89 12.7025 89.9322 12.8725C89.9111 12.9787 89.9005 13.0955 89.9005 13.2229C89.9005 13.3292 89.9005 13.4355 89.9005 13.5417C89.9005 13.8391 89.9111 14.1471 89.9322 14.4658C89.9532 14.7844 89.9638 15.1031 89.9638 15.4218C89.9638 15.6342 89.9427 15.8361 89.9005 16.0273C89.8794 16.2184 89.8689 16.4097 89.8689 16.6009L89.9005 17.2064C89.9005 17.4188 89.9111 17.6312 89.9322 17.8436C89.9532 18.0561 89.9638 18.2792 89.9638 18.5128C89.9638 18.6191 89.9532 18.7253 89.9322 18.8315C89.9322 18.9378 89.9216 19.044 89.9005 19.1502C89.8794 19.2564 89.8689 19.3733 89.8689 19.5008C89.8689 19.6282 89.8689 19.745 89.8689 19.8512C89.8689 20.1487 89.8794 20.4461 89.9005 20.7435C89.9216 21.041 89.9322 21.3384 89.9322 21.6358C89.9322 21.827 89.9216 22.0182 89.9005 22.2094C89.9005 22.3794 89.9005 22.56 89.9005 22.7511C89.9005 23.1336 89.9111 23.5266 89.9322 23.9302C89.9744 24.3338 89.9954 24.7269 89.9954 25.1093C89.9954 25.2792 89.9744 25.4598 89.9322 25.651C89.89 25.8422 89.8057 25.9909 89.6791 26.0972ZM115.588 6.14856C115.926 6.10606 116.179 6.13793 116.348 6.24415C116.537 6.32913 116.727 6.38224 116.917 6.40349C117.022 6.42473 117.128 6.43536 117.233 6.43536C117.36 6.41411 117.486 6.40349 117.613 6.40349C117.887 6.40349 118.098 6.43536 118.246 6.49909C118.414 6.56282 118.583 6.70091 118.752 6.91336C118.794 6.95585 118.847 7.01958 118.91 7.10456C118.994 7.16829 119.036 7.23202 119.036 7.29575C119.036 7.46571 118.994 7.61442 118.91 7.74189C118.826 7.86936 118.783 8.04993 118.783 8.28363C118.783 8.64478 118.826 9.00594 118.91 9.3671C118.994 9.70701 119.047 10.0575 119.068 10.4187C119.174 11.7358 119.226 13.0636 119.226 14.4021C119.247 15.7192 119.258 17.0257 119.258 18.3216C119.258 18.4916 119.247 18.651 119.226 18.7997C119.226 18.9271 119.184 19.044 119.1 19.1502V19.5645C119.079 20.1168 119.09 20.6798 119.132 21.2534C119.174 21.8058 119.195 22.3581 119.195 22.9104C119.195 23.3991 119.163 23.8878 119.1 24.3763C119.058 24.865 119.036 25.3643 119.036 25.8741C119.036 26.3415 119.068 26.7982 119.132 27.2444C119.195 27.6905 119.226 28.1472 119.226 28.6146C119.121 28.8058 119.058 28.9545 119.036 29.0608C119.015 29.167 118.973 29.2626 118.91 29.3476C118.847 29.3901 118.773 29.4007 118.688 29.3794C118.625 29.3582 118.573 29.3794 118.53 29.4432C118.425 29.5706 118.351 29.7193 118.309 29.8893C118.267 30.0593 118.161 30.1973 117.992 30.3036C117.95 30.601 117.834 30.8241 117.645 30.9728C117.476 31.1427 117.349 31.3552 117.265 31.6101C117.012 31.6314 116.833 31.6207 116.727 31.5782C116.643 31.5358 116.548 31.4933 116.442 31.4508C116.421 31.0896 116.421 30.8241 116.442 30.6541C116.485 30.5054 116.506 30.346 116.506 30.1761C116.506 29.9637 116.453 29.8043 116.348 29.6981C116.242 29.5919 116.168 29.4538 116.126 29.2839C115.894 29.1352 115.736 29.0395 115.652 28.997C115.567 28.9333 115.493 28.8589 115.43 28.774C115.304 28.604 115.198 28.4235 115.114 28.2322C115.029 28.041 114.934 27.8605 114.829 27.6905C114.534 27.2019 114.228 26.7026 113.912 26.1928C113.616 25.6829 113.289 25.1836 112.931 24.6951C112.868 24.5888 112.794 24.4932 112.709 24.4082C112.625 24.3232 112.551 24.2276 112.488 24.1214C112.13 23.5478 111.792 22.9636 111.476 22.3688C111.159 21.7739 110.79 21.2109 110.368 20.6798C110.2 20.4674 110.073 20.2337 109.989 19.9787C109.905 19.7026 109.778 19.4689 109.609 19.2776C109.588 19.3839 109.578 19.5008 109.578 19.6282C109.578 19.7557 109.578 19.8725 109.578 19.9787C109.578 20.701 109.588 21.4233 109.609 22.1457C109.651 22.8467 109.672 23.5584 109.672 24.2807C109.672 24.4294 109.651 24.5676 109.609 24.6951C109.588 24.8013 109.578 24.9287 109.578 25.0774C109.578 25.2899 109.588 25.4917 109.609 25.6829C109.63 25.8741 109.641 26.0653 109.641 26.2565C109.641 26.4902 109.63 26.7132 109.609 26.9257C109.609 27.1381 109.599 27.3506 109.578 27.563C109.535 27.8392 109.483 28.1047 109.419 28.3597C109.356 28.5934 109.324 28.8377 109.324 29.0927C109.324 29.2414 109.335 29.3794 109.356 29.5069C109.398 29.6343 109.419 29.7512 109.419 29.8575C109.272 30.0911 109.082 30.208 108.85 30.208C108.639 30.208 108.46 30.2929 108.312 30.4629C108.186 30.4416 108.08 30.4522 107.996 30.4947C107.933 30.5373 107.869 30.5585 107.806 30.5585C107.722 30.5585 107.648 30.5479 107.585 30.5266C107.542 30.5054 107.49 30.4947 107.426 30.4947C107.321 30.4947 107.215 30.5479 107.11 30.6541C107.005 30.7603 106.899 30.8135 106.794 30.8135C106.73 30.8135 106.614 30.771 106.446 30.686C106.298 30.601 106.129 30.4948 105.94 30.3673C105.771 30.2611 105.613 30.1442 105.465 30.0168C105.317 29.9106 105.244 29.8256 105.244 29.7618C105.222 29.6556 105.212 29.5069 105.212 29.3157C105.212 29.0608 105.222 28.8164 105.244 28.5828C105.286 28.3279 105.328 28.0729 105.37 27.818C105.433 27.0957 105.465 26.384 105.465 25.6829C105.465 24.9606 105.465 24.2383 105.465 23.5159C105.465 23.2186 105.465 22.9211 105.465 22.6237C105.486 22.3263 105.497 22.0288 105.497 21.7314C105.497 21.0304 105.465 20.3293 105.402 19.6282C105.36 18.9059 105.338 18.1942 105.338 17.4931C105.338 17.0045 105.36 16.5265 105.402 16.0591C105.444 15.5705 105.465 15.0925 105.465 14.6251C105.465 14.264 105.455 13.9134 105.433 13.5735C105.412 13.2336 105.402 12.8831 105.402 12.5219C105.381 12.2882 105.381 12.0439 105.402 11.7889C105.423 11.5128 105.433 11.2579 105.433 11.0242C105.433 10.748 105.391 10.4931 105.307 10.2594C105.244 10.0044 105.212 9.77074 105.212 9.5583C105.212 9.43083 105.233 9.31398 105.275 9.20777C105.338 9.08029 105.37 8.95283 105.37 8.82536C105.37 8.65541 105.338 8.48545 105.275 8.31549C105.233 8.14554 105.212 7.97558 105.212 7.80562C105.212 7.63567 105.233 7.47634 105.275 7.32763C105.317 7.17892 105.338 7.01958 105.338 6.84962C105.634 6.70091 105.897 6.62655 106.129 6.62655C106.361 6.62655 106.53 6.71153 106.636 6.88149C106.636 7.26389 106.657 7.56132 106.699 7.77376C106.741 7.96496 106.773 8.16678 106.794 8.37923C106.794 8.50669 106.783 8.65541 106.762 8.82536C106.762 8.99532 106.773 9.16527 106.794 9.33523C106.815 9.48395 106.857 9.61141 106.92 9.71764C107.005 9.82385 107.142 9.87697 107.332 9.87697C107.374 9.98319 107.426 10.0788 107.49 10.1638C107.553 10.2487 107.595 10.355 107.616 10.4824C107.743 10.3975 107.817 10.2806 107.838 10.1319C107.859 9.98319 107.859 9.8451 107.838 9.71764C107.943 9.76012 108.038 9.78137 108.122 9.78137C108.207 9.76012 108.291 9.77074 108.375 9.81323C108.418 10.1107 108.47 10.3762 108.534 10.6099C108.597 10.8223 108.618 11.0773 108.597 11.3747C109.019 11.6933 109.377 12.1501 109.672 12.745C109.989 13.3185 110.284 13.8391 110.558 14.3065C110.706 14.5401 110.875 14.7632 111.064 14.9757C111.275 15.1669 111.434 15.4005 111.539 15.6768C111.708 15.783 111.845 15.921 111.95 16.091C112.056 16.2609 112.151 16.4309 112.235 16.6009C112.657 17.3444 113.121 18.0668 113.627 18.7678C114.133 19.4689 114.66 20.1594 115.209 20.8391C115.23 20.6904 115.24 20.5523 115.24 20.4249C115.24 20.2762 115.24 20.1275 115.24 19.9787L115.209 17.1107C115.209 16.9407 115.198 16.7814 115.177 16.6327C115.177 16.484 115.166 16.3247 115.145 16.1547C115.103 15.6024 115.093 15.0607 115.114 14.5295C115.135 13.9984 115.135 13.4567 115.114 12.9043C115.072 12.3307 115.04 11.7465 115.019 11.1516C115.019 10.5568 114.998 9.96194 114.956 9.3671C114.934 9.00594 114.913 8.64478 114.892 8.28363C114.871 7.92247 114.861 7.56132 114.861 7.20016C114.861 6.75402 114.903 6.35038 114.987 5.98922C115.029 5.94673 115.072 5.91487 115.114 5.89362C115.177 5.85113 115.251 5.82989 115.335 5.82989C115.462 5.82989 115.546 5.93611 115.588 6.14856ZM139.093 21.5721C139.135 21.6783 139.283 21.9014 139.536 22.2412C139.811 22.5812 140.116 22.9529 140.454 23.3566C140.791 23.7602 141.107 24.1533 141.403 24.5357C141.719 24.8968 141.941 25.1624 142.067 25.3324C142.298 25.6298 142.52 25.9272 142.731 26.2247C142.963 26.5008 143.174 26.7982 143.364 27.1169L143.934 28.0729C144.102 28.2853 144.249 28.4659 144.377 28.6146C144.524 28.7633 144.64 28.9651 144.724 29.2201C144.766 29.3901 144.787 29.5069 144.787 29.5706C144.787 29.7193 144.735 29.8256 144.629 29.8893C144.461 29.8893 144.366 29.9106 144.344 29.9531C144.344 30.0168 144.302 30.0699 144.218 30.1124C144.134 30.1549 143.997 30.1761 143.806 30.1761C143.638 30.1973 143.501 30.208 143.396 30.208C143.206 30.208 142.963 30.1973 142.668 30.1761C142.394 30.1761 142.172 30.208 142.004 30.2717C141.962 30.2929 141.898 30.3248 141.814 30.3673C141.729 30.4098 141.666 30.431 141.624 30.431C141.455 30.431 141.329 30.3991 141.244 30.3354C141.181 30.2929 141.086 30.2611 140.96 30.2398C140.791 30.0486 140.643 29.8575 140.517 29.6662C140.412 29.4538 140.284 29.2414 140.137 29.0289C139.99 28.8802 139.842 28.7527 139.694 28.6465C139.547 28.519 139.42 28.381 139.315 28.2322C138.998 27.7649 138.671 27.3081 138.334 26.862C137.997 26.4158 137.648 25.9803 137.29 25.5554C137.121 25.3217 136.942 25.1093 136.753 24.9181C136.562 24.7269 136.383 24.5144 136.214 24.2807C136.046 24.0683 135.888 23.8453 135.74 23.6115C135.592 23.3566 135.445 23.1123 135.297 22.8786C135.17 22.6874 135.002 22.4431 134.791 22.1457C134.58 21.827 134.348 21.5189 134.095 21.2215C133.842 20.9029 133.588 20.6054 133.336 20.3293C133.082 20.0531 132.872 19.8406 132.703 19.6919C132.681 19.5645 132.629 19.4689 132.545 19.4052C132.46 19.3201 132.366 19.2458 132.26 19.182C132.218 19.0758 132.175 18.9802 132.133 18.8953C132.07 18.7891 132.038 18.6829 132.038 18.5766C132.038 18.4279 132.07 18.2898 132.133 18.1623C132.175 18.0774 132.208 18.003 132.229 17.9393C132.229 17.8543 132.25 17.7693 132.292 17.6843C132.397 17.4506 132.534 17.2276 132.703 17.0151C132.893 16.7814 133.04 16.5372 133.145 16.2821C133.188 16.2184 133.209 16.1547 133.209 16.091C133.209 16.006 133.23 15.9317 133.273 15.8679C133.315 15.698 133.399 15.5598 133.525 15.4536C133.673 15.3262 133.789 15.1881 133.874 15.0394C133.979 14.8694 134.074 14.6994 134.158 14.5295C134.264 14.3383 134.369 14.1365 134.474 13.924C134.791 13.3929 135.117 12.8831 135.455 12.3944C135.814 11.8846 136.172 11.3747 136.531 10.8648C136.805 10.4399 137.068 10.0363 137.322 9.6539C137.596 9.25025 137.87 8.84661 138.144 8.44297C138.292 8.25176 138.45 8.02869 138.618 7.77376C138.788 7.51882 138.967 7.26389 139.156 7.00895C139.368 6.75402 139.578 6.52033 139.79 6.30789C140 6.09544 140.211 5.92549 140.422 5.79802C140.738 5.77678 140.949 5.85113 141.055 6.02108C141.16 6.1698 141.319 6.24415 141.529 6.24415C141.803 6.30789 141.983 6.39286 142.067 6.49909C142.151 6.60531 142.246 6.71153 142.352 6.81776C142.647 6.81776 142.879 6.87087 143.048 6.97709C143.237 7.08331 143.417 7.24265 143.585 7.45509C143.522 7.68878 143.427 7.90122 143.3 8.09243C143.174 8.26238 143.058 8.44297 142.953 8.63416C142.784 8.71914 142.657 8.83599 142.573 8.9847C142.51 9.13341 142.405 9.25025 142.256 9.33523C142.046 9.69639 141.825 10.0469 141.592 10.3868C141.361 10.7055 141.128 11.0242 140.897 11.3429C140.769 11.534 140.633 11.704 140.485 11.8527C140.359 12.0015 140.242 12.1608 140.137 12.3307C140.095 12.3944 140.053 12.4688 140.011 12.5537C139.99 12.6175 139.958 12.6813 139.916 12.745C139.662 13.1486 139.389 13.5311 139.093 13.8922C138.798 14.2321 138.524 14.6145 138.27 15.0394C138.186 15.1881 138.112 15.3474 138.049 15.5174C138.007 15.6661 137.944 15.8148 137.86 15.9635C137.775 16.091 137.648 16.2609 137.48 16.4734C137.332 16.6858 137.184 16.9195 137.037 17.1745C136.889 17.4082 136.753 17.6418 136.625 17.8755C136.52 18.088 136.467 18.2685 136.467 18.4172C136.489 18.5234 136.615 18.736 136.847 19.0546C137.1 19.352 137.375 19.6813 137.669 20.0424C137.986 20.3824 138.282 20.7116 138.555 21.0304C138.83 21.3277 139.009 21.5083 139.093 21.5721ZM141.181 15.7723C141.329 16.091 141.487 16.3672 141.655 16.6009C141.719 16.6858 141.792 16.7602 141.877 16.8239C141.962 16.8876 142.025 16.9726 142.067 17.0788C142.109 17.1213 142.151 17.217 142.193 17.3657C142.235 17.4931 142.277 17.5887 142.32 17.6524C142.384 17.8224 142.51 18.0136 142.699 18.2261C142.89 18.4385 142.984 18.6297 142.984 18.7997C142.984 18.9059 142.963 19.0227 142.921 19.1502C142.879 19.2776 142.848 19.3945 142.827 19.5008C142.805 19.6282 142.794 19.7663 142.794 19.915C142.794 20.0424 142.752 20.1594 142.668 20.2656C142.562 20.3718 142.447 20.4355 142.32 20.4567C142.193 20.478 142.077 20.5311 141.972 20.6161C141.93 20.6585 141.867 20.7329 141.782 20.8391C141.698 20.9454 141.613 21.0622 141.529 21.1897C141.445 21.3171 141.361 21.4446 141.276 21.5721C141.212 21.6783 141.181 21.7633 141.181 21.827C140.928 21.8483 140.759 21.8589 140.675 21.8589C140.612 21.8376 140.538 21.8376 140.454 21.8589C140.348 21.7527 140.232 21.6677 140.105 21.604C140 21.5189 139.863 21.4446 139.694 21.3808C139.652 21.2109 139.557 21.0197 139.41 20.8073C139.262 20.5736 139.135 20.3824 139.03 20.2337L138.809 19.9468C138.492 19.5008 138.197 19.0758 137.923 18.6722C137.669 18.2473 137.48 17.7799 137.353 17.2701C137.754 16.9726 138.06 16.7496 138.27 16.6009C138.503 16.4522 138.745 16.314 138.998 16.1866C139.251 16.0591 139.494 15.9423 139.726 15.8361C139.979 15.7086 140.211 15.5598 140.422 15.3899C140.59 15.3899 140.706 15.4005 140.769 15.4218C140.833 15.443 140.876 15.4642 140.897 15.4855C140.918 15.5067 140.939 15.5492 140.96 15.613C141.002 15.6555 141.076 15.7086 141.181 15.7723Z" fill="white"/>
</g>
</g>
</g>
<defs>
<clipPath id="clip0_23_296">
<rect width="153" height="38" fill="white"/>
</clipPath>
<clipPath id="clip1_23_296">
<rect width="38" height="38" fill="white"/>
</clipPath>
<clipPath id="clip2_23_296">
<rect width="115" height="31" fill="white" transform="translate(38 3)"/>
</clipPath>
</defs>
</svg>
