<svg width="142" height="38" viewBox="0 0 142 38" fill="none" xmlns="http://www.w3.org/2000/svg">
<g clip-path="url(#clip0_19_12)">
<path d="M30.7656 29.25C30.7396 29.6406 30.8177 29.9401 31 30.1484C31.2083 30.3307 31.3776 30.5651 31.5078 30.8516C31.4557 31.2161 31.4948 31.5026 31.625 31.7109C31.5469 31.8672 31.4688 32.0495 31.3906 32.2578C31.3125 32.4401 31.1953 32.5964 31.0391 32.7266C30.6224 32.9089 30.375 33.0651 30.2969 33.1953C30.2188 33.3255 30.0625 33.3906 29.8281 33.3906C29.6979 33.5208 29.5547 33.651 29.3984 33.7812C29.2422 33.9375 29.099 34.0807 28.9688 34.2109C28.8385 34.1589 28.7474 34.0938 28.6953 34.0156C28.6432 33.9375 28.5651 33.8333 28.4609 33.7031C28.2005 33.625 27.9661 33.4818 27.7578 33.2734C27.5495 33.0911 27.3672 32.8828 27.2109 32.6484C27.0547 32.388 26.8984 32.1276 26.7422 31.8672C26.612 31.5807 26.4948 31.3203 26.3906 31.0859C26.026 30.4089 25.6484 29.7318 25.2578 29.0547C24.8932 28.3516 24.5156 27.6615 24.125 26.9844C23.9167 26.6458 23.7083 26.3073 23.5 25.9688C23.3177 25.6042 23.1224 25.2396 22.9141 24.875C22.862 24.8229 22.8099 24.7708 22.7578 24.7188C22.7057 24.6406 22.6536 24.5625 22.6016 24.4844C22.4193 24.224 22.276 23.9375 22.1719 23.625C22.0938 23.2865 21.9115 23.013 21.625 22.8047C21.1302 22.7526 20.6745 22.8307 20.2578 23.0391C19.8672 23.2214 19.5156 23.4688 19.2031 23.7812C19.2292 23.9635 19.2422 24.1328 19.2422 24.2891C19.2422 24.4453 19.2422 24.6016 19.2422 24.7578C19.2422 25.3568 19.2161 25.9297 19.1641 26.4766C19.112 27.0234 19.0859 27.5964 19.0859 28.1953C19.0859 28.4557 19.099 28.7292 19.125 29.0156C19.151 29.276 19.1901 29.5365 19.2422 29.7969C19.1641 30.0833 19.125 30.3958 19.125 30.7344C19.125 30.9167 19.138 31.0859 19.1641 31.2422C19.2161 31.3984 19.2422 31.5677 19.2422 31.75C19.2422 32.0104 19.151 32.1927 18.9688 32.2969C18.8125 32.375 18.7604 32.5312 18.8125 32.7656C18.5 32.8958 18.2005 33.026 17.9141 33.1562C17.6276 33.2865 17.3281 33.3776 17.0156 33.4297C16.8854 33.4557 16.7552 33.4557 16.625 33.4297C16.4948 33.4297 16.3776 33.4557 16.2734 33.5078C16.1432 33.5599 16.0391 33.651 15.9609 33.7812C15.8828 33.9375 15.7786 34.0156 15.6484 34.0156C15.4922 34.0156 15.401 33.9505 15.375 33.8203C15.349 33.7161 15.2969 33.625 15.2188 33.5469C15.0885 33.4948 14.9844 33.4688 14.9062 33.4688C14.8281 33.4688 14.75 33.4297 14.6719 33.3516C14.6979 33.1172 14.6458 32.9479 14.5156 32.8438C14.3854 32.7135 14.3203 32.4661 14.3203 32.1016C14.3203 31.8151 14.3333 31.5417 14.3594 31.2812C14.4115 31.0208 14.4375 30.7474 14.4375 30.4609C14.4375 30.2266 14.3984 30.0182 14.3203 29.8359C14.2682 29.6276 14.2161 29.4062 14.1641 29.1719C14.138 29.0677 14.138 28.9635 14.1641 28.8594C14.1901 28.7552 14.2031 28.651 14.2031 28.5469C14.2031 28.0781 14.1771 27.6094 14.125 27.1406C14.099 26.6458 14.0859 26.1641 14.0859 25.6953C14.0859 25.513 14.0859 25.3438 14.0859 25.1875C14.0859 25.0312 14.099 24.875 14.125 24.7188C14.1771 24.5625 14.2161 24.4323 14.2422 24.3281C14.2943 24.224 14.3203 24.0938 14.3203 23.9375C14.3203 23.4427 14.2682 22.9609 14.1641 22.4922C14.0599 21.9974 14.0078 21.5156 14.0078 21.0469C14.0078 20.7865 14.0078 20.526 14.0078 20.2656C14.0339 19.9792 14.0469 19.7057 14.0469 19.4453C14.0469 18.6901 14.0339 17.9479 14.0078 17.2188C13.9818 16.4896 13.9688 15.7604 13.9688 15.0312C13.9688 14.5104 13.9818 14.0026 14.0078 13.5078C14.0339 12.987 14.0469 12.4661 14.0469 11.9453C14.0469 11.2943 14.0208 10.6562 13.9688 10.0312C13.9167 9.38021 13.8906 8.71615 13.8906 8.03906C13.8906 7.80469 13.8776 7.64844 13.8516 7.57031C13.8255 7.49219 13.7865 7.45312 13.7344 7.45312C13.6823 7.42708 13.6172 7.41406 13.5391 7.41406C13.487 7.38802 13.4349 7.33594 13.3828 7.25781C13.3828 7.10156 13.4479 6.9974 13.5781 6.94531C13.7083 6.86719 13.7734 6.64583 13.7734 6.28125C13.7734 6.07292 13.7474 5.86458 13.6953 5.65625C13.6693 5.44792 13.6562 5.23958 13.6562 5.03125C13.6562 4.71875 13.7214 4.40625 13.8516 4.09375C13.9818 3.78125 14.099 3.48177 14.2031 3.19531C14.5156 3.16927 14.724 3.16927 14.8281 3.19531C14.9583 3.22135 15.0885 3.20833 15.2188 3.15625C15.2969 3.44271 15.4661 3.59896 15.7266 3.625C15.987 3.625 16.2214 3.65104 16.4297 3.70312C16.6641 3.72917 16.8854 3.79427 17.0938 3.89844C17.3281 3.97656 17.5495 4.01562 17.7578 4.01562C17.8099 4.17188 17.9141 4.28906 18.0703 4.36719C18.2526 4.41927 18.4349 4.47135 18.6172 4.52344C18.8255 4.4974 18.9818 4.40625 19.0859 4.25C19.2161 4.09375 19.3854 4.01562 19.5938 4.01562C19.75 4.01562 19.9323 4.13281 20.1406 4.36719C20.349 4.57552 20.5052 4.74479 20.6094 4.875C20.7135 4.95312 20.9089 5.1224 21.1953 5.38281C21.4818 5.64323 21.7943 5.91667 22.1328 6.20312C22.4714 6.46354 22.7839 6.72396 23.0703 6.98438C23.3568 7.21875 23.5391 7.34896 23.6172 7.375C24.6849 8.44271 25.6745 9.41927 26.5859 10.3047C27.5234 11.1641 28.5391 11.9453 29.6328 12.6484C29.6589 12.7266 29.6849 12.7917 29.7109 12.8438C29.763 12.8958 29.8151 12.9609 29.8672 13.0391C29.8672 13.2474 29.8281 13.4036 29.75 13.5078C29.6719 13.612 29.6328 13.7422 29.6328 13.8984C29.6328 13.9766 29.6458 14.0547 29.6719 14.1328C29.724 14.2109 29.75 14.2891 29.75 14.3672C29.776 14.4714 29.776 14.5755 29.75 14.6797C29.75 14.7578 29.75 14.849 29.75 14.9531C29.75 15.2135 29.8281 15.4479 29.9844 15.6562C30.1667 15.8646 30.2578 16.099 30.2578 16.3594C30.2057 16.5938 30.1016 16.737 29.9453 16.7891C29.7891 16.8411 29.6589 16.9062 29.5547 16.9844C29.5026 17.0365 29.4505 17.1016 29.3984 17.1797C29.3724 17.2578 29.3333 17.3229 29.2812 17.375C28.7083 17.6354 28.2917 17.8828 28.0312 18.1172C27.7708 18.3255 27.4974 18.5339 27.2109 18.7422C27.1328 18.7943 27.0026 18.8854 26.8203 19.0156C26.638 19.1198 26.4557 19.237 26.2734 19.3672C26.0911 19.4714 25.9219 19.5885 25.7656 19.7188C25.6354 19.849 25.5703 19.9531 25.5703 20.0312C25.5703 20.2135 25.6745 20.474 25.8828 20.8125C26.1172 21.125 26.2865 21.3724 26.3906 21.5547C26.6771 22.0234 26.9375 22.4922 27.1719 22.9609C27.4062 23.4036 27.6667 23.8464 27.9531 24.2891C28.474 25.0964 28.9557 25.9167 29.3984 26.75C29.8672 27.5833 30.3229 28.4167 30.7656 29.25ZM24.3984 14.7188C23.7995 13.9635 23.1484 13.2865 22.4453 12.6875C21.7682 12.0625 21.1172 11.4115 20.4922 10.7344L20.0625 10.6562C19.9062 10.3958 19.724 10.1745 19.5156 9.99219C19.3333 9.78385 19.138 9.57552 18.9297 9.36719C18.9557 9.65365 18.9688 9.92708 18.9688 10.1875C18.9688 10.4479 18.9688 10.7214 18.9688 11.0078C18.9688 11.8411 18.9427 12.6615 18.8906 13.4688C18.8646 14.25 18.8516 15.0443 18.8516 15.8516C18.8516 16.6589 18.8906 17.4271 18.9688 18.1562C19.5156 18.1562 20.0104 18 20.4531 17.6875C20.6354 17.5573 20.8047 17.4271 20.9609 17.2969C21.1172 17.1406 21.2865 16.9974 21.4688 16.8672C21.6771 16.737 21.9115 16.5807 22.1719 16.3984C22.4583 16.2161 22.7318 16.0339 22.9922 15.8516C23.2786 15.6693 23.5391 15.487 23.7734 15.3047C24.0339 15.0964 24.2422 14.901 24.3984 14.7188ZM63.8125 28.3125C63.5521 28.3385 63.3958 28.3255 63.3438 28.2734C63.2396 28.3255 63.1354 28.3776 63.0312 28.4297C62.9531 28.4818 62.862 28.5469 62.7578 28.625C62.3932 28.7552 62.0286 28.9245 61.6641 29.1328C61.3255 29.3411 60.974 29.5365 60.6094 29.7188C60.401 29.8229 60.1927 29.9141 59.9844 29.9922C59.8021 30.0443 59.6068 30.1224 59.3984 30.2266C59.0859 30.3828 58.7734 30.5521 58.4609 30.7344C58.1484 30.8906 57.8229 31.0339 57.4844 31.1641C57.3021 31.2161 57.1198 31.2682 56.9375 31.3203C56.7812 31.3724 56.612 31.4245 56.4297 31.4766C56.2214 31.5547 56.026 31.6458 55.8438 31.75C55.6875 31.8281 55.5182 31.9062 55.3359 31.9844C55.2057 32.0365 55.0625 32.0885 54.9062 32.1406C54.776 32.1667 54.6328 32.2188 54.4766 32.2969C54.3464 32.349 54.2292 32.4141 54.125 32.4922C54.0469 32.5703 53.9427 32.6354 53.8125 32.6875C53.6042 32.7656 53.3828 32.8438 53.1484 32.9219C52.9401 33 52.7318 33.0911 52.5234 33.1953C52.3151 33.2995 52.1589 33.3906 52.0547 33.4688C51.9766 33.5729 51.8073 33.6641 51.5469 33.7422C51.2865 33.8984 51.1432 33.9766 51.1172 33.9766C51.0911 34.0026 51.0521 34.0156 51 34.0156C50.9219 34.0677 50.8438 34.1068 50.7656 34.1328C50.7135 34.1849 50.6484 34.237 50.5703 34.2891C50.4141 34.2891 50.2578 34.3021 50.1016 34.3281C49.9453 34.3542 49.7891 34.3672 49.6328 34.3672C49.4505 34.263 49.3203 34.1589 49.2422 34.0547C49.1901 33.9505 49.1641 33.8073 49.1641 33.625C49.0599 33.4948 48.9557 33.3516 48.8516 33.1953C48.7734 33.0391 48.6823 32.8958 48.5781 32.7656C48.3958 32.8698 48.2786 32.8698 48.2266 32.7656C48.2005 32.6354 48.1745 32.5052 48.1484 32.375C48.1224 32.2188 48.0964 32.0755 48.0703 31.9453C48.0443 31.7891 48.0182 31.6849 47.9922 31.6328C47.862 31.138 47.7969 30.7734 47.7969 30.5391C47.7969 30.4089 47.8229 30.3307 47.875 30.3047C47.9271 30.2526 47.9531 30.1875 47.9531 30.1094C47.9792 29.849 48.0052 29.5495 48.0312 29.2109C48.0573 28.8724 48.0703 28.5208 48.0703 28.1562C48.0703 27.7917 48.0703 27.4271 48.0703 27.0625C48.0703 26.6979 48.0703 26.3724 48.0703 26.0859C48.0703 24.9141 48.0573 23.7812 48.0312 22.6875C48.0052 21.5677 47.9922 20.4479 47.9922 19.3281C47.9922 18.8073 48.0052 18.2865 48.0312 17.7656C48.0573 17.2448 48.0703 16.724 48.0703 16.2031C48.0703 14.9271 48.0833 13.6641 48.1094 12.4141C48.1615 11.1641 48.1875 9.90104 48.1875 8.625C48.1875 8.10417 48.1615 7.58333 48.1094 7.0625C48.0573 6.51562 48.0182 5.96875 47.9922 5.42188C47.9661 5.13542 47.9792 4.91406 48.0312 4.75781C48.0833 4.57552 48.0964 4.39323 48.0703 4.21094C48.1484 4.1849 48.2917 4.17188 48.5 4.17188C48.7083 4.17188 48.9167 4.17188 49.125 4.17188C49.3594 4.14583 49.5677 4.13281 49.75 4.13281C49.9583 4.10677 50.0885 4.08073 50.1406 4.05469C50.3229 4.1849 50.5052 4.25 50.6875 4.25C50.8698 4.25 51.0391 4.17188 51.1953 4.01562C51.3255 4.06771 51.3906 4.10677 51.3906 4.13281C51.4167 4.15885 51.4948 4.17188 51.625 4.17188C51.8594 4.14583 52.0417 4.13281 52.1719 4.13281C52.3021 4.10677 52.4193 4.09375 52.5234 4.09375C52.8099 4.30208 52.9792 4.5625 53.0312 4.875C53.1094 5.16146 53.1615 5.47396 53.1875 5.8125C53.2135 6.125 53.2266 6.45052 53.2266 6.78906C53.2526 7.10156 53.2656 7.36198 53.2656 7.57031C53.2656 7.72656 53.2786 7.89583 53.3047 8.07812C53.3307 8.23438 53.3438 8.40365 53.3438 8.58594C53.3438 8.71615 53.3307 8.84635 53.3047 8.97656C53.3047 9.10677 53.3047 9.23698 53.3047 9.36719C53.3047 10.1224 53.3047 10.8906 53.3047 11.6719C53.3307 12.4531 53.3438 13.2214 53.3438 13.9766C53.3438 15.3307 53.3177 16.6979 53.2656 18.0781C53.2396 19.4323 53.2266 20.7865 53.2266 22.1406C53.2266 22.4271 53.2396 22.7135 53.2656 23C53.2917 23.2865 53.3047 23.5729 53.3047 23.8594C53.3047 24.0156 53.2917 24.1719 53.2656 24.3281C53.2656 24.4844 53.2656 24.6406 53.2656 24.7969C53.2656 25.7604 53.3047 26.724 53.3828 27.6875C53.487 27.6615 53.7083 27.5964 54.0469 27.4922C54.3854 27.362 54.737 27.2318 55.1016 27.1016C55.4661 26.9453 55.8047 26.8021 56.1172 26.6719C56.4297 26.5156 56.625 26.3984 56.7031 26.3203C56.8073 26.3203 56.9505 26.2812 57.1328 26.2031C57.3151 26.125 57.5104 26.0339 57.7188 25.9297C57.9271 25.7995 58.1224 25.6823 58.3047 25.5781C58.513 25.474 58.6562 25.3828 58.7344 25.3047C58.7083 24.7839 58.6953 24.263 58.6953 23.7422C58.6953 23.1953 58.6953 22.6615 58.6953 22.1406C58.6953 20.7083 58.7083 19.276 58.7344 17.8438C58.7865 16.4115 58.8125 14.9531 58.8125 13.4688C58.8125 12.5573 58.7995 11.6458 58.7734 10.7344C58.7474 9.82292 58.7344 8.91146 58.7344 8C58.7344 7.71354 58.7344 7.42708 58.7344 7.14062C58.7604 6.82812 58.7734 6.52865 58.7734 6.24219C58.7734 5.79948 58.7604 5.36979 58.7344 4.95312C58.7344 4.51042 58.7604 4.06771 58.8125 3.625C59.0729 3.49479 59.2161 3.42969 59.2422 3.42969C59.3984 3.42969 59.5026 3.42969 59.5547 3.42969C59.6328 3.42969 59.6979 3.45573 59.75 3.50781C59.8281 3.53385 59.8932 3.54688 59.9453 3.54688C60.0234 3.52083 60.1016 3.50781 60.1797 3.50781C60.3099 3.50781 60.4401 3.53385 60.5703 3.58594C60.7005 3.63802 60.8307 3.66406 60.9609 3.66406C61.1693 3.63802 61.2734 3.66406 61.2734 3.74219C61.2995 3.82031 61.3516 3.85938 61.4297 3.85938C61.638 3.78125 61.7812 3.78125 61.8594 3.85938C61.9375 3.91146 62.0807 3.98958 62.2891 4.09375C62.4974 4.17188 62.7188 4.26302 62.9531 4.36719C63.1875 4.47135 63.3958 4.57552 63.5781 4.67969C63.7604 4.75781 63.8516 4.83594 63.8516 4.91406C63.9297 5.33073 63.9557 5.77344 63.9297 6.24219C63.9036 6.71094 63.8906 7.15365 63.8906 7.57031C63.8906 7.9349 63.9036 8.29948 63.9297 8.66406C63.9557 9.02865 63.9688 9.39323 63.9688 9.75781C63.9688 9.96615 63.9688 10.1745 63.9688 10.3828C63.9688 10.5911 63.9818 10.7865 64.0078 10.9688C64.0339 11.099 64.0469 11.2161 64.0469 11.3203C64.0469 11.3984 64.0469 11.4896 64.0469 11.5938C64.0469 11.724 64.0729 11.8932 64.125 12.1016C64.099 12.2318 64.0859 12.375 64.0859 12.5312C64.0859 12.6615 64.0859 12.7917 64.0859 12.9219C64.0859 13.2865 64.099 13.6641 64.125 14.0547C64.151 14.4453 64.1641 14.8359 64.1641 15.2266C64.1641 15.487 64.138 15.7344 64.0859 15.9688C64.0599 16.2031 64.0469 16.4375 64.0469 16.6719L64.0859 17.4141C64.0859 17.6745 64.099 17.9349 64.125 18.1953C64.151 18.4557 64.1641 18.7292 64.1641 19.0156C64.1641 19.1458 64.151 19.276 64.125 19.4062C64.125 19.5365 64.112 19.6667 64.0859 19.7969C64.0599 19.9271 64.0469 20.0703 64.0469 20.2266C64.0469 20.3828 64.0469 20.526 64.0469 20.6562C64.0469 21.0208 64.0599 21.3854 64.0859 21.75C64.112 22.1146 64.125 22.4792 64.125 22.8438C64.125 23.0781 64.112 23.3125 64.0859 23.5469C64.0859 23.7552 64.0859 23.9766 64.0859 24.2109C64.0859 24.6797 64.099 25.1615 64.125 25.6562C64.1771 26.151 64.2031 26.6328 64.2031 27.1016C64.2031 27.3099 64.1771 27.5312 64.125 27.7656C64.0729 28 63.9688 28.1823 63.8125 28.3125ZM95.8047 3.85938C96.2214 3.80729 96.5339 3.84635 96.7422 3.97656C96.9766 4.08073 97.2109 4.14583 97.4453 4.17188C97.5755 4.19792 97.7057 4.21094 97.8359 4.21094C97.9922 4.1849 98.1484 4.17188 98.3047 4.17188C98.6432 4.17188 98.9036 4.21094 99.0859 4.28906C99.2943 4.36719 99.5026 4.53646 99.7109 4.79688C99.763 4.84896 99.8281 4.92708 99.9062 5.03125C100.01 5.10938 100.062 5.1875 100.062 5.26562C100.062 5.47396 100.01 5.65625 99.9062 5.8125C99.8021 5.96875 99.75 6.1901 99.75 6.47656C99.75 6.91927 99.8021 7.36198 99.9062 7.80469C100.01 8.22135 100.076 8.65104 100.102 9.09375C100.232 10.7083 100.297 12.3359 100.297 13.9766C100.323 15.5911 100.336 17.1927 100.336 18.7812C100.336 18.9896 100.323 19.1849 100.297 19.3672C100.297 19.5234 100.245 19.6667 100.141 19.7969V20.3047C100.115 20.9818 100.128 21.6719 100.18 22.375C100.232 23.0521 100.258 23.7292 100.258 24.4062C100.258 25.0052 100.219 25.6042 100.141 26.2031C100.089 26.8021 100.062 27.4141 100.062 28.0391C100.062 28.612 100.102 29.1719 100.18 29.7188C100.258 30.2656 100.297 30.8255 100.297 31.3984C100.167 31.6328 100.089 31.8151 100.062 31.9453C100.036 32.0755 99.9844 32.1927 99.9062 32.2969C99.8281 32.349 99.737 32.362 99.6328 32.3359C99.5547 32.3099 99.4896 32.3359 99.4375 32.4141C99.3073 32.5703 99.2161 32.7526 99.1641 32.9609C99.112 33.1693 98.9818 33.3385 98.7734 33.4688C98.7214 33.8333 98.5781 34.1068 98.3438 34.2891C98.1354 34.4974 97.9792 34.7578 97.875 35.0703C97.5625 35.0964 97.3411 35.0833 97.2109 35.0312C97.1068 34.9792 96.9896 34.9271 96.8594 34.875C96.8333 34.4323 96.8333 34.1068 96.8594 33.8984C96.9115 33.7161 96.9375 33.5208 96.9375 33.3125C96.9375 33.0521 96.8724 32.8568 96.7422 32.7266C96.612 32.5964 96.5208 32.4271 96.4688 32.2188C96.1823 32.0365 95.987 31.9193 95.8828 31.8672C95.7786 31.7891 95.6875 31.6979 95.6094 31.5938C95.4531 31.3854 95.3229 31.1641 95.2188 30.9297C95.1146 30.6953 94.9974 30.474 94.8672 30.2656C94.5026 29.6667 94.125 29.0547 93.7344 28.4297C93.3698 27.8047 92.9661 27.1927 92.5234 26.5938C92.4453 26.4635 92.3542 26.3464 92.25 26.2422C92.1458 26.138 92.0547 26.0208 91.9766 25.8906C91.5339 25.1875 91.1172 24.4714 90.7266 23.7422C90.3359 23.013 89.8802 22.3229 89.3594 21.6719C89.151 21.4115 88.9948 21.125 88.8906 20.8125C88.7865 20.474 88.6302 20.1875 88.4219 19.9531C88.3958 20.0833 88.3828 20.2266 88.3828 20.3828C88.3828 20.5391 88.3828 20.6823 88.3828 20.8125C88.3828 21.6979 88.3958 22.5833 88.4219 23.4688C88.474 24.3281 88.5 25.2005 88.5 26.0859C88.5 26.2682 88.474 26.4375 88.4219 26.5938C88.3958 26.724 88.3828 26.8802 88.3828 27.0625C88.3828 27.3229 88.3958 27.5703 88.4219 27.8047C88.4479 28.0391 88.4609 28.2734 88.4609 28.5078C88.4609 28.7943 88.4479 29.0677 88.4219 29.3281C88.4219 29.5885 88.4089 29.849 88.3828 30.1094C88.3307 30.4479 88.2656 30.7734 88.1875 31.0859C88.1094 31.3724 88.0703 31.6719 88.0703 31.9844C88.0703 32.1667 88.0833 32.3359 88.1094 32.4922C88.1615 32.6484 88.1875 32.7917 88.1875 32.9219C88.0052 33.2083 87.7708 33.3516 87.4844 33.3516C87.224 33.3516 87.0026 33.4557 86.8203 33.6641C86.6641 33.638 86.5339 33.651 86.4297 33.7031C86.3516 33.7552 86.2734 33.7812 86.1953 33.7812C86.0911 33.7812 86 33.7682 85.9219 33.7422C85.8698 33.7161 85.8047 33.7031 85.7266 33.7031C85.5964 33.7031 85.4661 33.7682 85.3359 33.8984C85.2057 34.0286 85.0755 34.0938 84.9453 34.0938C84.8672 34.0938 84.724 34.0417 84.5156 33.9375C84.3333 33.8333 84.125 33.7031 83.8906 33.5469C83.6823 33.4167 83.487 33.2734 83.3047 33.1172C83.1224 32.987 83.0312 32.8828 83.0312 32.8047C83.0052 32.6745 82.9922 32.4922 82.9922 32.2578C82.9922 31.9453 83.0052 31.6458 83.0312 31.3594C83.0833 31.0469 83.1354 30.7344 83.1875 30.4219C83.2656 29.5365 83.3047 28.6641 83.3047 27.8047C83.3047 26.9193 83.3047 26.0339 83.3047 25.1484C83.3047 24.7839 83.3047 24.4193 83.3047 24.0547C83.3307 23.6901 83.3438 23.3255 83.3438 22.9609C83.3438 22.1016 83.3047 21.2422 83.2266 20.3828C83.1745 19.4974 83.1484 18.625 83.1484 17.7656C83.1484 17.1667 83.1745 16.5807 83.2266 16.0078C83.2786 15.4089 83.3047 14.8229 83.3047 14.25C83.3047 13.8073 83.2917 13.3776 83.2656 12.9609C83.2396 12.5443 83.2266 12.1146 83.2266 11.6719C83.2005 11.3854 83.2005 11.0859 83.2266 10.7734C83.2526 10.4349 83.2656 10.1224 83.2656 9.83594C83.2656 9.4974 83.2135 9.1849 83.1094 8.89844C83.0312 8.58594 82.9922 8.29948 82.9922 8.03906C82.9922 7.88281 83.0182 7.73958 83.0703 7.60938C83.1484 7.45312 83.1875 7.29688 83.1875 7.14062C83.1875 6.93229 83.1484 6.72396 83.0703 6.51562C83.0182 6.30729 82.9922 6.09896 82.9922 5.89062C82.9922 5.68229 83.0182 5.48698 83.0703 5.30469C83.1224 5.1224 83.1484 4.92708 83.1484 4.71875C83.513 4.53646 83.8385 4.44531 84.125 4.44531C84.4115 4.44531 84.6198 4.54948 84.75 4.75781C84.75 5.22656 84.776 5.59115 84.8281 5.85156C84.8802 6.08594 84.9193 6.33333 84.9453 6.59375C84.9453 6.75 84.9323 6.93229 84.9062 7.14062C84.9062 7.34896 84.9193 7.55729 84.9453 7.76562C84.9714 7.94792 85.0234 8.10417 85.1016 8.23438C85.2057 8.36458 85.375 8.42969 85.6094 8.42969C85.6615 8.5599 85.7266 8.67708 85.8047 8.78125C85.8828 8.88542 85.9349 9.01562 85.9609 9.17188C86.1172 9.06771 86.2083 8.92448 86.2344 8.74219C86.2604 8.5599 86.2604 8.39062 86.2344 8.23438C86.3646 8.28646 86.4818 8.3125 86.5859 8.3125C86.6901 8.28646 86.7943 8.29948 86.8984 8.35156C86.9505 8.71615 87.0156 9.04167 87.0938 9.32812C87.1719 9.58854 87.1979 9.90104 87.1719 10.2656C87.6927 10.6562 88.1354 11.2161 88.5 11.9453C88.8906 12.6484 89.2552 13.2865 89.5938 13.8594C89.776 14.1458 89.9844 14.4193 90.2188 14.6797C90.4792 14.9141 90.6745 15.2005 90.8047 15.5391C91.013 15.6693 91.1823 15.8385 91.3125 16.0469C91.4427 16.2552 91.5599 16.4635 91.6641 16.6719C92.1849 17.5833 92.7578 18.4688 93.3828 19.3281C94.0078 20.1875 94.6589 21.0339 95.3359 21.8672C95.362 21.6849 95.375 21.5156 95.375 21.3594C95.375 21.1771 95.375 20.9948 95.375 20.8125L95.3359 17.2969C95.3359 17.0885 95.3229 16.8932 95.2969 16.7109C95.2969 16.5286 95.2839 16.3333 95.2578 16.125C95.2057 15.4479 95.1927 14.7839 95.2188 14.1328C95.2448 13.4818 95.2448 12.8177 95.2188 12.1406C95.1667 11.4375 95.1276 10.7214 95.1016 9.99219C95.1016 9.26302 95.0755 8.53385 95.0234 7.80469C94.9974 7.36198 94.9714 6.91927 94.9453 6.47656C94.9193 6.03385 94.9062 5.59115 94.9062 5.14844C94.9062 4.60156 94.9583 4.10677 95.0625 3.66406C95.1146 3.61198 95.1667 3.57292 95.2188 3.54688C95.2969 3.49479 95.388 3.46875 95.4922 3.46875C95.6484 3.46875 95.7526 3.59896 95.8047 3.85938ZM124.828 22.7656C124.88 22.8958 125.062 23.1693 125.375 23.5859C125.714 24.0026 126.091 24.4583 126.508 24.9531C126.924 25.4479 127.315 25.9297 127.68 26.3984C128.07 26.8411 128.344 27.1667 128.5 27.375C128.786 27.7396 129.06 28.1042 129.32 28.4688C129.607 28.8073 129.867 29.1719 130.102 29.5625L130.805 30.7344C131.013 30.9948 131.195 31.2161 131.352 31.3984C131.534 31.5807 131.677 31.8281 131.781 32.1406C131.833 32.349 131.859 32.4922 131.859 32.5703C131.859 32.7526 131.794 32.8828 131.664 32.9609C131.456 32.9609 131.339 32.987 131.312 33.0391C131.312 33.1172 131.26 33.1823 131.156 33.2344C131.052 33.2865 130.883 33.3125 130.648 33.3125C130.44 33.3385 130.271 33.3516 130.141 33.3516C129.906 33.3516 129.607 33.3385 129.242 33.3125C128.904 33.3125 128.63 33.3516 128.422 33.4297C128.37 33.4557 128.292 33.4948 128.188 33.5469C128.083 33.599 128.005 33.625 127.953 33.625C127.745 33.625 127.589 33.5859 127.484 33.5078C127.406 33.4557 127.289 33.4167 127.133 33.3906C126.924 33.1562 126.742 32.9219 126.586 32.6875C126.456 32.4271 126.299 32.1667 126.117 31.9062C125.935 31.724 125.753 31.5677 125.57 31.4375C125.388 31.2812 125.232 31.112 125.102 30.9297C124.711 30.3568 124.307 29.7969 123.891 29.25C123.474 28.7031 123.044 28.1693 122.602 27.6484C122.393 27.362 122.172 27.1016 121.938 26.8672C121.703 26.6328 121.482 26.3724 121.273 26.0859C121.065 25.8255 120.87 25.5521 120.688 25.2656C120.505 24.9531 120.323 24.6536 120.141 24.3672C119.984 24.1328 119.776 23.8333 119.516 23.4688C119.255 23.0781 118.969 22.7005 118.656 22.3359C118.344 21.9453 118.031 21.5807 117.719 21.2422C117.406 20.9036 117.146 20.6432 116.938 20.4609C116.911 20.3047 116.846 20.1875 116.742 20.1094C116.638 20.0052 116.521 19.9141 116.391 19.8359C116.339 19.7057 116.286 19.5885 116.234 19.4844C116.156 19.3542 116.117 19.224 116.117 19.0938C116.117 18.9115 116.156 18.7422 116.234 18.5859C116.286 18.4818 116.326 18.3906 116.352 18.3125C116.352 18.2083 116.378 18.1042 116.43 18C116.56 17.7135 116.729 17.4401 116.938 17.1797C117.172 16.8932 117.354 16.5938 117.484 16.2812C117.536 16.2031 117.562 16.125 117.562 16.0469C117.562 15.9427 117.589 15.8516 117.641 15.7734C117.693 15.5651 117.797 15.3958 117.953 15.2656C118.135 15.1094 118.279 14.9401 118.383 14.7578C118.513 14.5495 118.63 14.3411 118.734 14.1328C118.865 13.8984 118.995 13.651 119.125 13.3906C119.516 12.7396 119.919 12.1146 120.336 11.5156C120.779 10.8906 121.221 10.2656 121.664 9.64062C122.003 9.11979 122.328 8.625 122.641 8.15625C122.979 7.66146 123.318 7.16667 123.656 6.67188C123.839 6.4375 124.034 6.16406 124.242 5.85156C124.451 5.53906 124.672 5.22656 124.906 4.91406C125.167 4.60156 125.427 4.3151 125.688 4.05469C125.948 3.79427 126.208 3.58594 126.469 3.42969C126.859 3.40365 127.12 3.49479 127.25 3.70312C127.38 3.88542 127.576 3.97656 127.836 3.97656C128.174 4.05469 128.396 4.15885 128.5 4.28906C128.604 4.41927 128.721 4.54948 128.852 4.67969C129.216 4.67969 129.503 4.74479 129.711 4.875C129.945 5.00521 130.167 5.20052 130.375 5.46094C130.297 5.7474 130.18 6.00781 130.023 6.24219C129.867 6.45052 129.724 6.67188 129.594 6.90625C129.385 7.01042 129.229 7.15365 129.125 7.33594C129.047 7.51823 128.917 7.66146 128.734 7.76562C128.474 8.20833 128.201 8.63802 127.914 9.05469C127.628 9.44531 127.341 9.83594 127.055 10.2266C126.898 10.4609 126.729 10.6693 126.547 10.8516C126.391 11.0339 126.247 11.2292 126.117 11.4375C126.065 11.5156 126.013 11.6068 125.961 11.7109C125.935 11.7891 125.896 11.8672 125.844 11.9453C125.531 12.4401 125.193 12.9089 124.828 13.3516C124.464 13.7682 124.125 14.237 123.812 14.7578C123.708 14.9401 123.617 15.1354 123.539 15.3438C123.487 15.526 123.409 15.7083 123.305 15.8906C123.201 16.0469 123.044 16.2552 122.836 16.5156C122.654 16.776 122.471 17.0625 122.289 17.375C122.107 17.6615 121.938 17.9479 121.781 18.2344C121.651 18.4948 121.586 18.7161 121.586 18.8984C121.612 19.0286 121.768 19.2891 122.055 19.6797C122.367 20.0443 122.706 20.4479 123.07 20.8906C123.461 21.3073 123.826 21.7109 124.164 22.1016C124.503 22.4661 124.724 22.6875 124.828 22.7656ZM127.406 15.6562C127.589 16.0469 127.784 16.3854 127.992 16.6719C128.07 16.776 128.161 16.8672 128.266 16.9453C128.37 17.0234 128.448 17.1276 128.5 17.2578C128.552 17.3099 128.604 17.4271 128.656 17.6094C128.708 17.7656 128.76 17.8828 128.812 17.9609C128.891 18.1693 129.047 18.4036 129.281 18.6641C129.516 18.9245 129.633 19.1589 129.633 19.3672C129.633 19.4974 129.607 19.6406 129.555 19.7969C129.503 19.9531 129.464 20.0964 129.438 20.2266C129.411 20.3828 129.398 20.5521 129.398 20.7344C129.398 20.8906 129.346 21.0339 129.242 21.1641C129.112 21.2943 128.969 21.3724 128.812 21.3984C128.656 21.4245 128.513 21.4896 128.383 21.5938C128.331 21.6458 128.253 21.737 128.148 21.8672C128.044 21.9974 127.94 22.1406 127.836 22.2969C127.732 22.4531 127.628 22.6094 127.523 22.7656C127.445 22.8958 127.406 23 127.406 23.0781C127.094 23.1042 126.885 23.1172 126.781 23.1172C126.703 23.0911 126.612 23.0911 126.508 23.1172C126.378 22.987 126.234 22.8828 126.078 22.8047C125.948 22.7005 125.779 22.6094 125.57 22.5312C125.518 22.3229 125.401 22.0885 125.219 21.8281C125.036 21.5417 124.88 21.3073 124.75 21.125L124.477 20.7734C124.086 20.2266 123.721 19.7057 123.383 19.2109C123.07 18.6901 122.836 18.1172 122.68 17.4922C123.174 17.1276 123.552 16.8542 123.812 16.6719C124.099 16.4896 124.398 16.3203 124.711 16.1641C125.023 16.0078 125.323 15.8646 125.609 15.7344C125.922 15.5781 126.208 15.3958 126.469 15.1875C126.677 15.1875 126.82 15.2005 126.898 15.2266C126.977 15.2526 127.029 15.2786 127.055 15.3047C127.081 15.3307 127.107 15.3828 127.133 15.4609C127.185 15.513 127.276 15.5781 127.406 15.6562Z" fill="black"/>
</g>
<defs>
<clipPath id="clip0_19_12">
<rect width="142" height="38" fill="white"/>
</clipPath>
</defs>
</svg>
